<svg width="40" height="40" viewBox="0 0 40 40" fill="none" xmlns="http://www.w3.org/2000/svg">
<path d="M20.7504 39.9989C31.381 39.9989 39.9989 31.381 39.9989 20.7504C39.9989 10.1198 31.381 1.50195 20.7504 1.50195C10.1198 1.50195 1.50195 10.1198 1.50195 20.7504C1.50195 31.381 10.1198 39.9989 20.7504 39.9989Z" fill="url(#paint0_linear_403_7470)"/>
<path d="M19.2484 38.4969C29.8791 38.4969 38.4969 29.8791 38.4969 19.2484C38.4969 8.61782 29.8791 0 19.2484 0C8.61782 0 0 8.61782 0 19.2484C0 29.8791 8.61782 38.4969 19.2484 38.4969Z" fill="url(#paint1_linear_403_7470)"/>
<path d="M19.2488 35.2848C28.1058 35.2848 35.2858 28.1048 35.2858 19.2479C35.2858 10.3909 28.1058 3.21094 19.2488 3.21094C10.3919 3.21094 3.21191 10.3909 3.21191 19.2479C3.21191 28.1048 10.3919 35.2848 19.2488 35.2848Z" fill="url(#paint2_linear_403_7470)"/>
<path opacity="0.5" d="M19.2488 35.2848C28.1058 35.2848 35.2858 28.1048 35.2858 19.2479C35.2858 10.3909 28.1058 3.21094 19.2488 3.21094C10.3919 3.21094 3.21191 10.3909 3.21191 19.2479C3.21191 28.1048 10.3919 35.2848 19.2488 35.2848Z" fill="url(#paint3_linear_403_7470)"/>
<path opacity="0.7" d="M30.7326 8.05859C33.5468 10.9473 35.285 14.8914 35.285 19.2451C35.285 28.1016 28.1046 35.282 19.2481 35.282C14.8943 35.282 10.9502 33.5439 8.06152 30.7296C10.9751 33.7218 15.0433 35.58 19.5502 35.58C28.4067 35.58 35.5871 28.3996 35.5871 19.5431C35.5871 15.0445 33.7247 10.9721 30.7326 8.05859Z" fill="white"/>
<path d="M4.10924 19.848C4.10924 10.9914 11.2896 3.81103 20.1462 3.81103C23.2253 3.81103 26.0974 4.68013 28.5392 6.18243C25.9153 4.3118 22.7079 3.21094 19.244 3.21094C10.3874 3.2068 3.20703 10.3872 3.20703 19.2479C3.20703 25.0294 6.26543 30.0909 10.851 32.9134C6.77033 30.004 4.10924 25.2405 4.10924 19.848Z" fill="url(#paint4_linear_403_7470)"/>
<path d="M34.623 30.8125L36.9861 31.0732C36.3363 32.0913 35.5955 33.0432 34.772 33.9206L32.0322 33.6184C32.9841 32.77 33.8532 31.8306 34.623 30.8125Z" fill="url(#paint5_linear_403_7470)"/>
<path d="M38.5087 19.6344C38.6164 14.7054 36.8575 10.1654 33.8818 6.69727C37.739 10.3061 40.1021 15.4752 39.9779 21.174C39.9076 24.3151 39.0881 27.2618 37.6935 29.8525L35.4669 29.6042C37.3251 26.7196 38.4301 23.3095 38.5087 19.6344Z" fill="url(#paint6_linear_403_7470)"/>
<path d="M6.125 33.2715C9.46482 36.3961 13.9179 38.3495 18.8511 38.4571C21.0404 38.5068 23.151 38.1798 25.1293 37.5466L29.2678 38.006C26.5778 39.3386 23.5359 40.0629 20.3244 39.9925C14.6215 39.8684 9.56001 37.2818 6.125 33.2715Z" fill="url(#paint7_linear_403_7470)"/>
<path opacity="0.9" d="M19.2488 20.7523C25.3863 20.7523 30.9817 19.5397 35.1989 17.5491C34.3463 9.48718 27.5301 3.20898 19.2488 3.20898C10.9634 3.20898 4.15137 9.48718 3.29883 17.5491C7.51602 19.5397 13.1072 20.7523 19.2488 20.7523Z" fill="url(#paint8_radial_403_7470)"/>
<path opacity="0.9" d="M34.2174 30.4265C35.1238 32.5041 31.9412 35.8936 27.1074 38.0001C22.2777 40.1066 17.6259 40.1315 16.7196 38.058C15.8133 35.9805 18.9958 32.591 23.8296 30.4845C28.6635 28.3738 33.3152 28.349 34.2174 30.4265Z" fill="url(#paint9_radial_403_7470)"/>
<g opacity="0.2">
<path opacity="0.2" d="M5.64551 5.62931L25.8665 37.3266C26.4418 37.1155 27.0005 36.8796 27.5468 36.6189L6.99468 4.4043C6.52702 4.79332 6.07592 5.20304 5.64551 5.62931Z" fill="white"/>
<path opacity="0.2" d="M37.4501 25.5018L21.2476 0.103464C20.5896 0.0372471 19.9233 0 19.2487 0C17.2415 0 15.3129 0.306253 13.4961 0.873236L33.4812 32.2021C35.2277 30.286 36.5851 28.0098 37.4501 25.5018Z" fill="white"/>
</g>
<path opacity="0.9" d="M7.73517 6.05173C9.30782 4.47908 10.6032 2.93125 11.4433 1.68555C7.42064 3.46927 4.12634 6.59388 2.11914 10.4883C3.46003 9.85093 5.57484 8.20792 7.73517 6.05173Z" fill="url(#paint10_radial_403_7470)"/>
<path d="M13.5825 11.3125L12.1299 13.9322L17.7252 29.9071L19.5586 27.8254L13.5825 11.3125Z" fill="url(#paint11_linear_403_7470)"/>
<path d="M25.0138 11.3125L25.2166 12.6244L27.5424 11.3125V13.6301L21.1277 30.8134L20.9704 29.9071L19.5591 27.8254L19.4102 27.3536L25.0138 11.3125Z" fill="url(#paint12_linear_403_7470)"/>
<path d="M27.542 11.3125L20.97 29.9071H17.7212L11.1533 11.3125H13.1605L19.2856 27.8254H19.5587L25.361 11.3125H27.542ZM25.0134 11.3125L19.4098 27.3536L13.5827 11.3125H15.7637L19.3353 22.1969L22.8572 11.3125H25.0134Z" fill="#FFFA87"/>
<path d="M21.1275 30.8126L17.8084 30.7464L17.7256 29.9062H20.9702L21.1275 30.8126Z" fill="url(#paint13_linear_403_7470)"/>
<defs>
<linearGradient id="paint0_linear_403_7470" x1="1.50332" y1="20.75" x2="39.9966" y2="20.75" gradientUnits="userSpaceOnUse">
<stop stop-color="#CDA838"/>
<stop offset="0.2038" stop-color="#F5BB00"/>
<stop offset="0.3545" stop-color="#FBE36E"/>
<stop offset="0.5242" stop-color="#FFD71F"/>
<stop offset="0.8155" stop-color="#DF9808"/>
<stop offset="1" stop-color="#FCCF17"/>
</linearGradient>
<linearGradient id="paint1_linear_403_7470" x1="-5.36275" y1="36.8911" x2="47.7661" y2="-1.20122" gradientUnits="userSpaceOnUse">
<stop stop-color="#CDA838"/>
<stop offset="0.2038" stop-color="#F5BB00"/>
<stop offset="0.3545" stop-color="#FBE36E"/>
<stop offset="0.5242" stop-color="#FFD71F"/>
<stop offset="0.8155" stop-color="#DF9808"/>
<stop offset="1" stop-color="#FCCF17"/>
</linearGradient>
<linearGradient id="paint2_linear_403_7470" x1="-3.05966" y1="35.2396" x2="41.2144" y2="3.49592" gradientUnits="userSpaceOnUse">
<stop stop-color="#FCCF17"/>
<stop offset="0.1845" stop-color="#DF9808"/>
<stop offset="0.4758" stop-color="#FFD71F"/>
<stop offset="0.6455" stop-color="#FBE36E"/>
<stop offset="0.7962" stop-color="#F5BB00"/>
<stop offset="1" stop-color="#CDA838"/>
</linearGradient>
<linearGradient id="paint3_linear_403_7470" x1="-3.41616" y1="1.45863" x2="34.3254" y2="31.0805" gradientUnits="userSpaceOnUse">
<stop stop-color="#FBE36E" stop-opacity="0"/>
<stop offset="0.5" stop-color="#FAE16C" stop-opacity="0.5"/>
<stop offset="0.6801" stop-color="#F4DA66" stop-opacity="0.6801"/>
<stop offset="0.8085" stop-color="#EBCF5B" stop-opacity="0.8085"/>
<stop offset="0.9115" stop-color="#DEBE4C" stop-opacity="0.9115"/>
<stop offset="1" stop-color="#CDA838"/>
</linearGradient>
<linearGradient id="paint4_linear_403_7470" x1="-5.66956" y1="31.0658" x2="37.4001" y2="0.18565" gradientUnits="userSpaceOnUse">
<stop stop-color="#FCCF17"/>
<stop offset="0.1845" stop-color="#DF9808"/>
<stop offset="0.4758" stop-color="#FFD71F"/>
<stop offset="0.6455" stop-color="#FBE36E"/>
<stop offset="0.7962" stop-color="#F5BB00"/>
<stop offset="1" stop-color="#CDA838"/>
</linearGradient>
<linearGradient id="paint5_linear_403_7470" x1="35.0675" y1="6.72174" x2="34.3354" y2="40.2989" gradientUnits="userSpaceOnUse">
<stop stop-color="#FCCF17"/>
<stop offset="0.1845" stop-color="#DF9808"/>
<stop offset="0.4758" stop-color="#FFD71F"/>
<stop offset="0.6455" stop-color="#FBE36E"/>
<stop offset="0.7962" stop-color="#F5BB00"/>
<stop offset="1" stop-color="#CDA838"/>
</linearGradient>
<linearGradient id="paint6_linear_403_7470" x1="37.0884" y1="6.76602" x2="36.3563" y2="40.3434" gradientUnits="userSpaceOnUse">
<stop stop-color="#FCCF17"/>
<stop offset="0.1845" stop-color="#DF9808"/>
<stop offset="0.4758" stop-color="#FFD71F"/>
<stop offset="0.6455" stop-color="#FBE36E"/>
<stop offset="0.7962" stop-color="#F5BB00"/>
<stop offset="1" stop-color="#CDA838"/>
</linearGradient>
<linearGradient id="paint7_linear_403_7470" x1="18.3317" y1="6.35619" x2="17.5996" y2="39.9346" gradientUnits="userSpaceOnUse">
<stop stop-color="#FCCF17"/>
<stop offset="0.1845" stop-color="#DF9808"/>
<stop offset="0.4758" stop-color="#FFD71F"/>
<stop offset="0.6455" stop-color="#FBE36E"/>
<stop offset="0.7962" stop-color="#F5BB00"/>
<stop offset="1" stop-color="#CDA838"/>
</linearGradient>
<radialGradient id="paint8_radial_403_7470" cx="0" cy="0" r="1" gradientUnits="userSpaceOnUse" gradientTransform="translate(19.247 43.3566) scale(35.787)">
<stop stop-color="white"/>
<stop offset="1" stop-color="white" stop-opacity="0"/>
</radialGradient>
<radialGradient id="paint9_radial_403_7470" cx="0" cy="0" r="1" gradientUnits="userSpaceOnUse" gradientTransform="translate(25.4712 34.2404) rotate(-23.5643) scale(9.54071 4.10175)">
<stop stop-color="white"/>
<stop offset="0.8779" stop-color="white" stop-opacity="0"/>
</radialGradient>
<radialGradient id="paint10_radial_403_7470" cx="0" cy="0" r="1" gradientUnits="userSpaceOnUse" gradientTransform="translate(5.95388 5.26114) rotate(-42.4225) scale(6.76158 2.07184)">
<stop stop-color="white"/>
<stop offset="1" stop-color="white" stop-opacity="0"/>
</radialGradient>
<linearGradient id="paint11_linear_403_7470" x1="12.129" y1="20.6104" x2="19.5583" y2="20.6104" gradientUnits="userSpaceOnUse">
<stop stop-color="#FCCF17"/>
<stop offset="0.1845" stop-color="#DF9808"/>
<stop offset="0.4758" stop-color="#FFD71F"/>
<stop offset="0.6455" stop-color="#FBE36E"/>
<stop offset="0.7962" stop-color="#F5BB00"/>
<stop offset="1" stop-color="#CDA838"/>
</linearGradient>
<linearGradient id="paint12_linear_403_7470" x1="19.4099" y1="21.0622" x2="27.5431" y2="21.0622" gradientUnits="userSpaceOnUse">
<stop stop-color="#FCCF17"/>
<stop offset="0.1845" stop-color="#DF9808"/>
<stop offset="0.4758" stop-color="#FFD71F"/>
<stop offset="0.6455" stop-color="#FBE36E"/>
<stop offset="0.7962" stop-color="#F5BB00"/>
<stop offset="1" stop-color="#CDA838"/>
</linearGradient>
<linearGradient id="paint13_linear_403_7470" x1="17.7238" y1="30.3599" x2="21.1271" y2="30.3599" gradientUnits="userSpaceOnUse">
<stop stop-color="#FCCF17"/>
<stop offset="0.1845" stop-color="#DF9808"/>
<stop offset="0.4758" stop-color="#FFD71F"/>
<stop offset="0.6455" stop-color="#FBE36E"/>
<stop offset="0.7962" stop-color="#F5BB00"/>
<stop offset="1" stop-color="#CDA838"/>
</linearGradient>
</defs>
</svg>
