<svg width="30" height="30" viewBox="0 0 30 30" fill="none" xmlns="http://www.w3.org/2000/svg">
<path d="M18.1017 14.9345L25.8593 7.13115C26.242 6.71159 26.4488 6.15957 26.4365 5.59031C26.4242 5.02106 26.1939 4.47858 25.7935 4.07609C25.3931 3.67361 24.8536 3.44223 24.2877 3.43026C23.7218 3.41828 23.1731 3.62664 22.7563 4.01183L22.7583 4.00981L15.0007 11.8132L7.24303 4.00981C6.82592 3.62489 6.27714 3.41689 5.71122 3.42923C5.1453 3.44157 4.606 3.6733 4.20587 4.07605C3.80574 4.4788 3.57572 5.02143 3.56382 5.59069C3.55191 6.15995 3.75905 6.71184 4.14199 7.13115L4.13997 7.12913L11.8976 14.9325L4.13997 22.7358C3.92171 22.9373 3.74622 23.181 3.62407 23.4525C3.50193 23.7239 3.43565 24.0174 3.42923 24.3153C3.42281 24.6132 3.47638 24.9093 3.58671 25.1858C3.69705 25.4623 3.86187 25.7135 4.07125 25.9242C4.28063 26.135 4.53024 26.3009 4.80506 26.4121C5.07988 26.5233 5.37422 26.5773 5.67036 26.5711C5.9665 26.5648 6.25832 26.4983 6.52825 26.3756C6.79817 26.253 7.04063 26.0766 7.24102 25.8572L7.24303 25.8551L15.0007 18.0518L22.7583 25.8551C22.9585 26.0747 23.2009 26.2512 23.4707 26.3741C23.7406 26.497 24.0324 26.5636 24.3285 26.5701C24.6246 26.5765 24.919 26.5227 25.1939 26.4117C25.4688 26.3007 25.7185 26.1349 25.928 25.9243C26.1375 25.7137 26.3025 25.4626 26.413 25.1861C26.5235 24.9097 26.5773 24.6136 26.5711 24.3157C26.5649 24.0179 26.4988 23.7243 26.3768 23.4528C26.2548 23.1813 26.0795 22.9374 25.8614 22.7358L25.8593 22.7338L18.1017 14.9345Z" fill="white"/>
</svg>
