<svg width="90" height="90" viewBox="0 0 90 90" fill="none" xmlns="http://www.w3.org/2000/svg">
<circle cx="45" cy="45" r="45" fill="#F05A05"/>
<path d="M65.625 67.3828C65.625 68.4199 64.7871 69.2578 63.75 69.2578H46.9922V47.2266H65.625V67.3828ZM43.0078 69.2578H26.25C25.2129 69.2578 24.375 68.4199 24.375 67.3828V47.2266H43.0078V69.2578ZM23.4375 33.1641H32.0859C31.2891 31.9102 30.8203 30.4219 30.8203 28.8281C30.8203 24.3691 34.4473 20.7422 38.9062 20.7422C41.332 20.7422 43.5176 21.8203 45 23.5195C46.4824 21.8203 48.668 20.7422 51.0938 20.7422C55.5527 20.7422 59.1797 24.3691 59.1797 28.8281C59.1797 30.4219 58.7168 31.9102 57.9141 33.1641H66.5625C67.5996 33.1641 68.4375 34.002 68.4375 35.0391V43.2422H46.9922V33.1641H43.0078V43.2422H21.5625V35.0391C21.5625 34.002 22.4004 33.1641 23.4375 33.1641ZM46.9922 32.9297H51.0938C53.3555 32.9297 55.1953 31.0898 55.1953 28.8281C55.1953 26.5664 53.3555 24.7266 51.0938 24.7266C48.832 24.7266 46.9922 26.5664 46.9922 28.8281V32.9297ZM38.9062 32.9297H43.0078V28.8281C43.0078 26.5664 41.168 24.7266 38.9062 24.7266C36.6445 24.7266 34.8047 26.5664 34.8047 28.8281C34.8047 31.0898 36.6445 32.9297 38.9062 32.9297Z" fill="white"/>
</svg>
