<svg width="50" height="50" viewBox="0 0 50 50" fill="none" xmlns="http://www.w3.org/2000/svg">
<circle cx="25" cy="25" r="25" fill="#E0E0E0"/>
<path d="M26.25 13.75H31.25V16.25H26.25V13.75ZM13.75 20H18.75V22.5H13.75V20ZM13.75 30H18.75V32.5H13.75V30ZM12.5 25H17.4875V27.5H12.5V25ZM37.1338 18.3837L35.3662 16.6163L33.2325 18.75C31.8801 17.9327 30.3301 17.5005 28.75 17.5C23.9263 17.5 20 21.4263 20 26.25C20 31.0737 23.9263 35 28.75 35C33.5737 35 37.5 31.0737 37.5 26.25C37.4988 24.0576 36.6707 21.9463 35.1813 20.3375L37.1338 18.3837ZM30 27.5H27.5V21.1975H30V27.5Z" fill="#171717"/>
</svg>
