<svg width="50" height="50" viewBox="0 0 50 50" fill="none" xmlns="http://www.w3.org/2000/svg">
<circle cx="25" cy="25" r="25" fill="#E0E0E0"/>
<g clip-path="url(#clip0_361_5406)">
<path d="M39.8688 24.5312C39.7605 24.1721 39.5676 23.8441 39.3063 23.575C39.1068 23.3598 38.8508 23.2052 38.5675 23.1287C38.7063 23.3481 38.8319 23.6012 38.9257 23.8712C39.0307 24.1469 39.0982 24.4412 39.1188 24.7469C39.1504 25.0109 39.1504 25.2778 39.1188 25.5419C39.0603 25.3461 38.9704 25.1612 38.8525 24.9944C38.6203 24.6806 38.3101 24.433 37.9525 24.2762C37.5565 24.0979 37.1086 24.0724 36.6949 24.2047C36.2812 24.3369 35.9311 24.6175 35.7119 24.9925C35.6182 25.1462 35.5432 25.3131 35.4869 25.4913C33.2707 21.8012 29.2825 19.3581 24.7225 19.3581C24.49 19.3581 24.2594 19.3637 24.0307 19.3769C22.616 19.3795 21.2084 19.577 19.8475 19.9638C19.7313 19.15 18.6625 17.5 13.75 17.5L15.25 22.2063C14.3068 22.9687 13.5139 23.9002 12.9119 24.9531L10 25C10 25 9.6813 32.5 11.875 32.5H12.8875C13.5768 33.6684 14.4991 34.6825 15.5969 35.4794L15.625 40H17.65C20.1063 40 21.25 40 21.25 38.5938V37.8625C23.1413 38.2129 25.0813 38.2079 26.9707 37.8475L26.875 38.5938C26.875 40 28.0375 40 30.5125 40H32.5V35.5187C34.2582 34.2998 35.5235 32.4933 36.0682 30.4244C36.175 30.3737 36.2819 30.3794 36.3907 30.3794C36.4994 30.3794 36.6063 30.3738 36.7132 30.3606C37.1838 30.2744 37.6132 30.0906 37.9863 29.83C38.4906 29.4732 38.8765 28.9737 39.0944 28.3956C39.1469 28.2212 39.1863 28.0375 39.2125 27.8481L39.2144 27.8294C39.6288 27.3381 39.9119 26.7231 40 26.0462C40.0767 25.529 40.0304 25.001 39.865 24.505L39.8688 24.5312ZM16.5813 24.5312C16.9543 24.5312 17.3119 24.6794 17.5757 24.9431C17.8394 25.2069 17.9875 25.5645 17.9875 25.9375C17.9875 26.3105 17.8394 26.6681 17.5757 26.9319C17.3119 27.1956 16.9543 27.3438 16.5813 27.3438C16.2083 27.3438 15.8507 27.1956 15.5869 26.9319C15.3232 26.6681 15.175 26.3105 15.175 25.9375C15.175 25.5645 15.3232 25.2069 15.5869 24.9431C15.8507 24.6794 16.2083 24.5312 16.5813 24.5312ZM21.025 23.125C20.8133 23.1929 20.5843 23.1837 20.3788 23.0989C20.1732 23.0141 20.0043 22.8593 19.9019 22.6619C19.87 22.5635 19.8594 22.4595 19.8706 22.3567C19.8819 22.2539 19.9149 22.1546 19.9673 22.0655C20.0198 21.9764 20.0905 21.8994 20.1749 21.8396C20.2593 21.7798 20.3554 21.7386 20.4569 21.7188C21.6901 21.423 22.9558 21.2844 24.2238 21.3063L24.4132 21.3044C25.6732 21.3044 26.8957 21.4544 28.0675 21.7394C28.3038 21.7844 28.5588 22.0806 28.5588 22.4369C28.5587 22.5127 28.5467 22.588 28.5232 22.66C28.4575 22.7816 28.3649 22.8865 28.2525 22.9668C28.14 23.047 28.0107 23.1005 27.8744 23.1231H27.5875C26.5401 22.8709 25.4662 22.745 24.3888 22.7481H24.2219C23.0875 22.7481 21.985 22.885 20.9294 23.1438L21.025 23.125ZM37.3375 28.6188C37.0846 28.8028 36.7948 28.93 36.4882 28.9919L36.25 28.9938V28.75V28.1687C36.5594 28.4031 36.9513 28.5438 37.375 28.5438H37.4144L37.3375 28.6188ZM37.4875 27.3438C37.3133 27.3682 37.1357 27.3362 36.9809 27.2526C36.826 27.1689 36.702 27.0379 36.6269 26.8787C36.541 26.715 36.4963 26.5328 36.4966 26.3479C36.4969 26.163 36.5423 25.9809 36.6288 25.8175C36.7179 25.6941 36.8492 25.6077 36.9978 25.5745C37.1463 25.5413 37.3019 25.5637 37.435 25.6375C37.6049 25.7027 37.7511 25.8179 37.8542 25.9679C37.9573 26.1178 38.0125 26.2955 38.0125 26.4775V26.4794C38.0496 26.7394 38.049 27.0033 38.0107 27.2631C37.8365 27.2967 37.6592 27.3105 37.4819 27.3044L37.4875 27.3438Z" fill="#171717"/>
<path d="M25 15.6252H23.125V15.3064H23.5938V13.2627H23.125L24.1563 12.2314H24.5312V15.3064H25V15.6252Z" fill="#171717"/>
<path d="M24.0625 11.4062C24.432 11.4064 24.7978 11.4793 25.1391 11.6208C25.4804 11.7623 25.7905 11.9696 26.0516 12.2309C26.3128 12.4923 26.5199 12.8025 26.6612 13.1439C26.8025 13.4853 26.8751 13.8512 26.875 14.2206C26.8749 14.5901 26.802 14.9559 26.6605 15.2972C26.519 15.6385 26.3116 15.9486 26.0503 16.2098C25.789 16.4709 25.4787 16.678 25.1374 16.8193C24.796 16.9606 24.4301 17.0332 24.0606 17.0331C23.3145 17.0329 22.5989 16.7362 22.0715 16.2084C21.5441 15.6806 21.2479 14.9649 21.2481 14.2188C21.2484 13.4726 21.545 12.7571 22.0728 12.2296C22.6006 11.7022 23.3163 11.406 24.0625 11.4062ZM24.0625 10C22.9436 10 21.8706 10.4445 21.0794 11.2356C20.2882 12.0268 19.8438 13.0999 19.8438 14.2188C19.8438 15.3376 20.2882 16.4107 21.0794 17.2019C21.8706 17.993 22.9436 18.4375 24.0625 18.4375C25.1814 18.4375 26.2544 17.993 27.0456 17.2019C27.8368 16.4107 28.2812 15.3376 28.2812 14.2188C28.2812 13.0999 27.8368 12.0268 27.0456 11.2356C26.2544 10.4445 25.1814 10 24.0625 10V10Z" fill="#171717"/>
</g>
<defs>
<clipPath id="clip0_361_5406">
<rect width="30" height="30" fill="white" transform="translate(10 10)"/>
</clipPath>
</defs>
</svg>
