<svg width="50" height="50" viewBox="0 0 50 50" fill="none" xmlns="http://www.w3.org/2000/svg">
<circle cx="25" cy="25" r="25" fill="#E0E0E0"/>
<path d="M39.25 29.5H38.5V24.4328C38.5 23.8375 38.2609 23.2656 37.8391 22.8438L33.1562 18.1609C32.7344 17.7391 32.1625 17.5 31.5672 17.5H29.5V15.25C29.5 14.0078 28.4922 13 27.25 13H15.25C14.0078 13 13 14.0078 13 15.25V17.5H10.375C10.1687 17.5 10 17.6687 10 17.875V18.625C10 18.8313 10.1687 19 10.375 19H23.125C23.3313 19 23.5 19.1687 23.5 19.375V20.125C23.5 20.3313 23.3313 20.5 23.125 20.5H11.875C11.6688 20.5 11.5 20.6687 11.5 20.875V21.625C11.5 21.8313 11.6688 22 11.875 22H21.625C21.8313 22 22 22.1687 22 22.375V23.125C22 23.3313 21.8313 23.5 21.625 23.5H10.375C10.1687 23.5 10 23.6687 10 23.875V24.625C10 24.8313 10.1687 25 10.375 25H20.125C20.3313 25 20.5 25.1687 20.5 25.375V26.125C20.5 26.3313 20.3313 26.5 20.125 26.5H13V32.5C13 34.9844 15.0156 37 17.5 37C19.9844 37 22 34.9844 22 32.5H28C28 34.9844 30.0156 37 32.5 37C34.9844 37 37 34.9844 37 32.5H39.25C39.6625 32.5 40 32.1625 40 31.75V30.25C40 29.8375 39.6625 29.5 39.25 29.5ZM17.5 34.75C16.2578 34.75 15.25 33.7422 15.25 32.5C15.25 31.2578 16.2578 30.25 17.5 30.25C18.7422 30.25 19.75 31.2578 19.75 32.5C19.75 33.7422 18.7422 34.75 17.5 34.75ZM32.5 34.75C31.2578 34.75 30.25 33.7422 30.25 32.5C30.25 31.2578 31.2578 30.25 32.5 30.25C33.7422 30.25 34.75 31.2578 34.75 32.5C34.75 33.7422 33.7422 34.75 32.5 34.75ZM36.25 25H29.5V19.75H31.5672L36.25 24.4328V25Z" fill="#171717"/>
</svg>
