<svg width="54" height="54" viewBox="0 0 54 54" fill="none" xmlns="http://www.w3.org/2000/svg">
<circle cx="27" cy="27" r="27" fill="white"/>
<path fill-rule="evenodd" clip-rule="evenodd" d="M27 52C13.1922 52 2 40.8078 2 27C2 13.1922 13.1922 2 27 2C40.8078 2 52 13.1922 52 27C52 40.8078 40.8078 52 27 52ZM27.4375 38.4453C29.0438 39.5563 31.0813 40.2172 33.2875 40.2172C33.8359 40.2172 34.3781 40.1766 34.9109 40.0969C35.0938 40.1719 35.2703 40.2641 35.4875 40.3891C35.9562 40.6641 36.5828 41.0859 37.3625 41.6547C38.0016 42.1219 38.9062 41.6703 38.9062 40.8844V38.6016C39.2344 38.3891 39.5438 38.1594 39.8359 37.9109C41.6016 36.4141 42.625 34.3672 42.625 32.1719C42.625 30.7266 42.1875 29.375 41.4188 28.2078C41.1764 29.0367 40.848 29.8379 40.4391 30.5984C40.6016 31.1031 40.6875 31.6297 40.6875 32.1719C40.6875 33.7875 39.925 35.3125 38.575 36.4562C38.2267 36.7505 37.8516 37.0115 37.4547 37.2359C37.3076 37.319 37.1852 37.4395 37.0999 37.5853C37.0145 37.731 36.9693 37.8967 36.9688 38.0656V39.0406C36.0422 38.4469 35.4062 38.1672 34.9219 38.1672C34.8674 38.1674 34.8131 38.1721 34.7594 38.1813C33.4019 38.4083 32.0102 38.3173 30.6938 37.9156C29.6275 38.1925 28.538 38.3704 27.4391 38.4469L27.4375 38.4453ZM15.7719 33.8797C16.2871 34.3156 16.8322 34.7151 17.4031 35.075V38.9688C17.4031 39.9531 18.5359 40.5156 19.3344 39.9312C21.5375 38.3219 23.0688 37.4125 23.4516 37.3219C24.3359 37.4625 25.2391 37.5328 26.1516 37.5328C34.2766 37.5328 40.9297 31.8969 40.9297 24.8453C40.9297 17.7922 34.275 12.1562 26.1516 12.1562C18.0281 12.1562 11.375 17.7922 11.375 24.8438C11.375 28.2969 12.9844 31.5172 15.7719 33.8797ZM23.5047 34.9203C22.7188 34.9203 21.5703 35.475 19.8266 36.6453V34.4C19.8258 34.1886 19.769 33.9812 19.6619 33.799C19.5549 33.6167 19.4014 33.4661 19.2172 33.3625C18.5551 32.9878 17.9294 32.5521 17.3484 32.0609C15.0781 30.1406 13.7969 27.5719 13.7969 24.8438C13.7969 19.2031 19.2906 14.55 26.1516 14.55C33.0141 14.55 38.5063 19.2031 38.5063 24.8438C38.5063 30.4844 33.0141 35.1391 26.1516 35.1391C25.3234 35.1391 24.5062 35.0703 23.7078 34.9359C23.6407 34.9251 23.5727 34.9199 23.5047 34.9203ZM19.8531 27.2391C20.9234 27.2391 21.7906 26.3797 21.7906 25.3234C21.7906 24.2656 20.9234 23.4078 19.8531 23.4078C18.7828 23.4078 17.9156 24.2656 17.9156 25.3234C17.9156 26.3813 18.7828 27.2391 19.8531 27.2391ZM26.1516 27.2391C27.2219 27.2391 28.0891 26.3797 28.0891 25.3234C28.0891 24.2656 27.2219 23.4078 26.1516 23.4078C25.0812 23.4078 24.2141 24.2656 24.2141 25.3234C24.2141 26.3813 25.0812 27.2391 26.1516 27.2391ZM32.45 27.2391C33.5203 27.2391 34.3875 26.3797 34.3875 25.3234C34.3875 24.2656 33.5203 23.4078 32.45 23.4078C31.3797 23.4078 30.5125 24.2656 30.5125 25.3234C30.5125 26.3813 31.3797 27.2391 32.45 27.2391Z" fill="url(#paint0_linear_432_8014)"/>
<defs>
<linearGradient id="paint0_linear_432_8014" x1="27" y1="2" x2="27" y2="52" gradientUnits="userSpaceOnUse">
<stop stop-color="#FFAF66"/>
<stop offset="0.619792" stop-color="#FF7D04"/>
</linearGradient>
</defs>
</svg>
