<svg width="54" height="54" viewBox="0 0 54 54" fill="none" xmlns="http://www.w3.org/2000/svg">
<circle cx="27" cy="27" r="27" fill="white"/>
<circle cx="27" cy="27" r="25" fill="url(#paint0_linear_436_8024)"/>
<g clip-path="url(#clip0_436_8024)">
<path d="M32.4562 28.3908C32.4562 28.3908 36.5723 28.1332 37.1176 28.0909C37.6629 28.0485 39.9736 28.262 39.553 31.3445C39.1324 34.4269 38.2929 38.8362 38.2098 39.4785C38.1267 40.1207 37.2855 43.4591 32.2468 42.9456C27.2064 42.4322 23.4278 41.4052 22.1677 41.6188V31.5156C22.1677 31.5156 21.8735 30.7022 24.2673 30.1888C26.6196 27.7486 28.6776 25.9082 29.1398 24.7085C29.6019 23.5087 29.8962 21.0702 29.9377 20.6838C29.9793 20.2975 31.7431 18.9282 33.4653 22.0531C34.4295 24.539 32.6657 27.4503 32.4562 28.3908Z" fill="white"/>
<path d="M19.5218 42.5611H15.9942C15.4605 42.5611 15.0283 42.1205 15.0283 41.5765V30.36C15.0283 29.8161 15.4605 29.3755 15.9942 29.3755H19.5218C20.0554 29.3755 20.4876 29.8161 20.4876 30.36V41.5765C20.4876 42.1205 20.0554 42.5611 19.5218 42.5611Z" fill="white"/>
<path d="M32.9954 11.5011L31.4045 13.0432C31.3114 13.133 31.2682 13.2652 31.2881 13.394L31.6322 15.6037C31.6838 15.9308 31.3447 16.1748 31.0587 16.0172L29.1287 14.9513C29.0156 14.8886 28.8793 14.8869 28.7646 14.9462L26.808 15.963C26.5187 16.1138 26.1863 15.8596 26.2461 15.5359L26.6451 13.3347C26.6683 13.2059 26.6284 13.0737 26.537 12.9805L24.9843 11.3977C24.7549 11.1639 24.8879 10.764 25.2088 10.7199L27.3848 10.4267C27.5128 10.4098 27.6242 10.3302 27.6824 10.2132L28.6782 8.2187C28.8261 7.92384 29.2401 7.92892 29.3797 8.22717L30.3256 10.2471C30.3805 10.3657 30.4902 10.4488 30.6182 10.4691L32.7859 10.8182C33.1068 10.869 33.2298 11.2723 32.9954 11.5011Z" fill="white"/>
<path d="M18.8068 20.6619L16.762 21.477C16.6423 21.5245 16.5526 21.6296 16.5243 21.7583L16.0239 23.9376C15.9508 24.2596 15.5468 24.3544 15.3407 24.1003L13.9476 22.3701C13.8661 22.2684 13.7398 22.2142 13.6118 22.226L11.4258 22.4125C11.1033 22.4396 10.8888 22.0786 11.0634 21.8007L12.247 19.9163C12.3168 19.8062 12.3284 19.6672 12.2786 19.5469L11.4258 17.4846C11.2994 17.1796 11.572 16.861 11.8846 16.944L14.0091 17.51C14.1338 17.5439 14.2668 17.5117 14.3632 17.4253L16.0239 15.9612C16.27 15.7442 16.6507 15.9103 16.6706 16.2391L16.8003 18.4725C16.8086 18.603 16.8784 18.7216 16.9881 18.7894L18.8666 19.9468C19.1442 20.1197 19.1077 20.5416 18.8068 20.6619Z" fill="white"/>
<path d="M45.6109 21.3297L43.4166 21.35C43.2886 21.3517 43.1672 21.4178 43.0957 21.5263L41.8689 23.3819C41.6877 23.6564 41.2771 23.5988 41.174 23.2853L40.4758 21.1636C40.4342 21.0399 40.3362 20.9433 40.2131 20.9078L38.1036 20.2909C37.7927 20.1994 37.7179 19.7842 37.9789 19.5877L39.7427 18.2557C39.8457 18.1778 39.9056 18.0524 39.9006 17.9219L39.8241 15.685C39.8125 15.3546 40.1782 15.1546 40.4425 15.3461L42.2313 16.6442C42.336 16.7204 42.4707 16.7391 42.592 16.6933L44.655 15.9274C44.9593 15.8138 45.2585 16.107 45.1621 16.4222L44.5038 18.5574C44.4655 18.6828 44.4888 18.8183 44.5686 18.9217L45.9201 20.6841C46.1163 20.945 45.9351 21.3263 45.6109 21.3297Z" fill="white"/>
</g>
<defs>
<linearGradient id="paint0_linear_436_8024" x1="27" y1="2" x2="27" y2="52" gradientUnits="userSpaceOnUse">
<stop stop-color="#1CE1CA"/>
<stop offset="1" stop-color="#11B496"/>
</linearGradient>
<clipPath id="clip0_436_8024">
<rect width="35" height="35" fill="white" transform="translate(11 8)"/>
</clipPath>
</defs>
</svg>
