<svg width="54" height="54" viewBox="0 0 54 54" fill="none" xmlns="http://www.w3.org/2000/svg">
<circle cx="27" cy="27" r="27" fill="white"/>
<circle cx="27" cy="27" r="25" fill="url(#paint0_linear_537_21508)"/>
<path d="M37.0004 26.4985H40.0004C40.0004 18.8035 34.1909 13 26.4854 13V16C32.5784 16 37.0004 20.4145 37.0004 26.4985Z" fill="white"/>
<path d="M26.5004 21.9999C29.6549 21.9999 31.0004 23.3454 31.0004 26.4999H34.0004C34.0004 21.6624 31.3379 18.9999 26.5004 18.9999V21.9999ZM31.6334 30.1644C31.3452 29.9024 30.9664 29.7627 30.5771 29.7747C30.1878 29.7868 29.8184 29.9496 29.5469 30.2289L25.9574 33.9204C25.0934 33.7554 23.3564 33.2139 21.5684 31.4304C19.7804 29.6409 19.2389 27.8994 19.0784 27.0414L22.7669 23.4504C23.0465 23.1791 23.2096 22.8096 23.2217 22.4202C23.2337 22.0308 23.0938 21.6519 22.8314 21.3639L17.2889 15.2694C17.0265 14.9804 16.6617 14.8051 16.2722 14.7808C15.8826 14.7564 15.4988 14.8849 15.2024 15.1389L11.9474 17.9304C11.6881 18.1906 11.5333 18.537 11.5124 18.9039C11.4899 19.2789 11.0609 28.1619 17.9489 35.0529C23.9579 41.0604 31.4849 41.4999 33.5579 41.4999C33.8609 41.4999 34.0469 41.4909 34.0964 41.4879C34.4632 41.4673 34.8094 41.3119 35.0684 41.0514L37.8584 37.7949C38.1126 37.4987 38.2413 37.115 38.2173 36.7254C38.1932 36.3359 38.0182 35.971 37.7294 35.7084L31.6334 30.1644Z" fill="white"/>
<defs>
<linearGradient id="paint0_linear_537_21508" x1="27" y1="2" x2="27" y2="52" gradientUnits="userSpaceOnUse">
<stop stop-color="#F41515"/>
<stop offset="1" stop-color="#BA1208"/>
</linearGradient>
</defs>
</svg>
