<svg width="90" height="90" viewBox="0 0 90 90" fill="none" xmlns="http://www.w3.org/2000/svg">
<circle cx="45" cy="45" r="45" fill="#11B6EF"/>
<path d="M22.5 28.125C22.5 26.6332 23.0926 25.2024 24.1475 24.1475C25.2024 23.0926 26.6332 22.5 28.125 22.5H61.875C63.3668 22.5 64.7976 23.0926 65.8525 24.1475C66.9074 25.2024 67.5 26.6332 67.5 28.125V42.53C66.3061 42.4254 65.1037 42.5838 63.9777 42.9941C62.8516 43.4045 61.8292 44.0568 60.9825 44.905L53.3875 52.5H43.125C42.6277 52.5 42.1508 52.6975 41.7992 53.0492C41.4475 53.4008 41.25 53.8777 41.25 54.375C41.25 54.8723 41.4475 55.3492 41.7992 55.7008C42.1508 56.0525 42.6277 56.25 43.125 56.25H49.6375L46.225 59.6625C45.0437 60.843 44.2054 62.3224 43.8 63.9425L42.915 67.5H28.125C26.6332 67.5 25.2024 66.9074 24.1475 65.8525C23.0926 64.7976 22.5 63.3668 22.5 61.875V28.125ZM34.375 38.125C35.038 38.125 35.6739 37.8616 36.1428 37.3928C36.6116 36.9239 36.875 36.288 36.875 35.625C36.875 34.962 36.6116 34.3261 36.1428 33.8572C35.6739 33.3884 35.038 33.125 34.375 33.125C33.712 33.125 33.0761 33.3884 32.6072 33.8572C32.1384 34.3261 31.875 34.962 31.875 35.625C31.875 36.288 32.1384 36.9239 32.6072 37.3928C33.0761 37.8616 33.712 38.125 34.375 38.125ZM43.125 33.75C42.6277 33.75 42.1508 33.9475 41.7992 34.2992C41.4475 34.6508 41.25 35.1277 41.25 35.625C41.25 36.1223 41.4475 36.5992 41.7992 36.9508C42.1508 37.3025 42.6277 37.5 43.125 37.5H56.875C57.3723 37.5 57.8492 37.3025 58.2008 36.9508C58.5525 36.5992 58.75 36.1223 58.75 35.625C58.75 35.1277 58.5525 34.6508 58.2008 34.2992C57.8492 33.9475 57.3723 33.75 56.875 33.75H43.125ZM43.125 43.125C42.6277 43.125 42.1508 43.3225 41.7992 43.6742C41.4475 44.0258 41.25 44.5027 41.25 45C41.25 45.4973 41.4475 45.9742 41.7992 46.3258C42.1508 46.6775 42.6277 46.875 43.125 46.875H56.875C57.3723 46.875 57.8492 46.6775 58.2008 46.3258C58.5525 45.9742 58.75 45.4973 58.75 45C58.75 44.5027 58.5525 44.0258 58.2008 43.6742C57.8492 43.3225 57.3723 43.125 56.875 43.125H43.125ZM31.875 45C31.875 45.663 32.1384 46.2989 32.6072 46.7678C33.0761 47.2366 33.712 47.5 34.375 47.5C35.038 47.5 35.6739 47.2366 36.1428 46.7678C36.6116 46.2989 36.875 45.663 36.875 45C36.875 44.337 36.6116 43.7011 36.1428 43.2322C35.6739 42.7634 35.038 42.5 34.375 42.5C33.712 42.5 33.0761 42.7634 32.6072 43.2322C32.1384 43.7011 31.875 44.337 31.875 45ZM34.375 56.875C35.038 56.875 35.6739 56.6116 36.1428 56.1428C36.6116 55.6739 36.875 55.038 36.875 54.375C36.875 53.712 36.6116 53.0761 36.1428 52.6072C35.6739 52.1384 35.038 51.875 34.375 51.875C33.712 51.875 33.0761 52.1384 32.6072 52.6072C32.1384 53.0761 31.875 53.712 31.875 54.375C31.875 55.038 32.1384 55.6739 32.6072 56.1428C33.0761 56.6116 33.712 56.875 34.375 56.875ZM62.75 46.675L47.9925 61.43C47.1327 62.2902 46.5227 63.3677 46.2275 64.5475L45.0825 69.125C44.9686 69.5804 44.9747 70.0576 45.1001 70.51C45.2255 70.9624 45.4659 71.3746 45.798 71.7064C46.1301 72.0383 46.5425 72.2784 46.995 72.4035C47.4475 72.5285 47.9246 72.5342 48.38 72.42L52.955 71.2775C54.136 70.9822 55.2145 70.3712 56.075 69.51L70.83 54.755C71.8602 53.6752 72.4272 52.2352 72.4097 50.7428C72.3921 49.2504 71.7915 47.8241 70.7362 46.7688C69.6809 45.7135 68.2546 45.1129 66.7622 45.0953C65.2698 45.0778 63.8298 45.6448 62.75 46.675Z" fill="white"/>
</svg>
