<svg width="41" height="31" viewBox="0 0 41 31" fill="none" xmlns="http://www.w3.org/2000/svg">
<g clip-path="url(#clip0_424_8359)">
<path d="M2.63 5.54C2.09 5.6 1.6 5.85 1.27 6.23C0.92 6.62 0.7 7.12 0.7 7.69V27.67C0.7 28.27 0.95 28.81 1.34 29.2C1.72 29.59 2.26 29.83 2.86 29.83H37.84C38.43 29.83 38.97 29.58 39.36 29.2C39.75 28.81 39.99 28.27 39.99 27.67V7.69C39.99 7.12 39.78 6.62 39.43 6.23C39.08 5.85 38.59 5.6 38.07 5.55H28.82H28.53L28.47 5.27L27.84 2C27.76 1.62 27.56 1.3 27.28 1.07C27 0.83 26.65 0.71 26.28 0.71H20.32H14.43C14.05 0.71 13.69 0.84 13.43 1.07C13.15 1.31 12.94 1.63 12.87 2L12.23 5.27L12.17 5.55H11.89H2.63V5.54ZM0.75 5.77C1.21 5.25 1.87 4.92 2.59 4.85H2.63H11.59L12.18 1.87C12.28 1.33 12.57 0.85 12.97 0.53C13.36 0.19 13.87 0 14.42 0H20.31H26.27C26.81 0 27.31 0.19 27.72 0.53C28.11 0.85 28.4 1.32 28.51 1.87L29.08 4.85H38.05H38.08C38.8 4.92 39.46 5.25 39.93 5.77C40.39 6.27 40.67 6.94 40.67 7.69V27.67C40.67 28.46 40.35 29.17 39.83 29.69C39.31 30.2 38.6 30.52 37.82 30.52H2.85C2.06 30.52 1.35 30.2 0.83 29.69C0.32 29.17 0 28.46 0 27.66V7.69C0 6.94 0.29 6.27 0.75 5.77ZM20.34 8.25C20.96 8.25 21.58 8.32 22.18 8.43C22.79 8.55 23.38 8.74 23.95 8.97L24.25 9.1C24.71 9.32 25.16 9.56 25.58 9.84C26.09 10.19 26.57 10.58 27 11.02H27.02C27.45 11.45 27.84 11.94 28.19 12.45C28.47 12.87 28.72 13.31 28.93 13.77H28.94L29.07 14.06C29.31 14.63 29.49 15.23 29.6 15.83C29.73 16.43 29.78 17.04 29.78 17.67C29.78 18.3 29.72 18.91 29.6 19.51C29.49 20.12 29.31 20.72 29.07 21.28L28.93 21.6C28.72 22.06 28.47 22.49 28.19 22.91C27.84 23.43 27.45 23.9 27.02 24.34H27C26.57 24.77 26.09 25.18 25.58 25.51C25.16 25.79 24.71 26.04 24.25 26.25V26.27L23.95 26.39C23.38 26.63 22.8 26.81 22.18 26.92C21.58 27.05 20.97 27.1 20.34 27.1C19.71 27.1 19.1 27.04 18.5 26.92C17.9 26.81 17.3 26.63 16.73 26.39L16.41 26.25H16.42C15.96 26.04 15.52 25.79 15.1 25.51C14.6 25.18 14.11 24.77 13.68 24.34H13.67C13.24 23.89 12.85 23.42 12.5 22.91C12.22 22.49 11.99 22.06 11.78 21.6H11.76L11.63 21.28C11.39 20.72 11.21 20.12 11.09 19.51C10.98 18.91 10.91 18.3 10.91 17.67C10.91 17.04 10.98 16.43 11.09 15.83C11.22 15.23 11.4 14.63 11.63 14.06L11.76 13.75C11.98 13.29 12.22 12.86 12.5 12.44C12.85 11.93 13.24 11.44 13.67 11.01H13.68C14.11 10.56 14.6 10.17 15.1 9.83C15.52 9.55 15.96 9.32 16.42 9.11V9.1L16.73 8.97C17.3 8.73 17.9 8.55 18.5 8.43C19.1 8.32 19.71 8.25 20.34 8.25ZM22.04 9.11C21.5 9.01 20.93 8.94 20.34 8.94C19.75 8.94 19.18 9.01 18.64 9.11C18.14 9.21 17.66 9.35 17.2 9.53L16.99 9.61C16.46 9.83 15.96 10.1 15.49 10.42C15.02 10.74 14.57 11.1 14.17 11.51C13.77 11.91 13.4 12.36 13.08 12.83C12.76 13.3 12.49 13.81 12.27 14.35L12.2 14.53C12.02 14.99 11.87 15.48 11.77 15.98C11.66 16.54 11.6 17.11 11.6 17.68C11.6 18.26 11.66 18.84 11.77 19.39C11.87 19.88 12.01 20.37 12.19 20.82L12.27 21.01C12.49 21.54 12.75 22.06 13.08 22.51C13.4 22.98 13.76 23.43 14.17 23.83V23.84C14.57 24.24 15.02 24.61 15.49 24.93C15.97 25.24 16.47 25.51 16.99 25.72L17.2 25.8C17.66 25.98 18.13 26.12 18.64 26.22C19.18 26.33 19.75 26.39 20.34 26.39C20.93 26.39 21.49 26.33 22.04 26.22C22.55 26.12 23.03 25.98 23.5 25.8L23.68 25.72C24.21 25.51 24.71 25.23 25.18 24.93C25.66 24.61 26.1 24.25 26.51 23.84L26.52 23.83C26.92 23.43 27.29 22.98 27.61 22.51C27.91 22.05 28.19 21.53 28.4 21.01L28.48 20.8C28.66 20.34 28.8 19.87 28.9 19.38C29.01 18.82 29.07 18.25 29.07 17.67C29.07 17.1 29.01 16.53 28.9 15.97C28.8 15.47 28.66 14.98 28.48 14.52L28.4 14.34C28.19 13.8 27.91 13.29 27.61 12.82C27.29 12.35 26.93 11.9 26.52 11.5H26.51C26.11 11.1 25.66 10.73 25.18 10.41C24.71 10.09 24.21 9.82 23.68 9.6L23.47 9.52C23.01 9.35 22.54 9.21 22.04 9.11ZM5.92 6.87C6.49 6.87 6.99 7.11 7.37 7.48C7.75 7.84 7.97 8.36 7.97 8.93C7.97 9.5 7.75 10.02 7.37 10.38C7 10.76 6.49 10.99 5.92 10.99C5.35 10.99 4.83 10.75 4.46 10.38C4.1 10.02 3.86 9.5 3.86 8.93C3.86 8.36 4.1 7.84 4.46 7.48C4.83 7.1 5.35 6.87 5.92 6.87ZM6.88 7.97C6.63 7.72 6.3 7.57 5.92 7.57C5.54 7.57 5.2 7.72 4.96 7.97C4.71 8.22 4.56 8.55 4.56 8.93C4.56 9.31 4.71 9.64 4.96 9.89C5.2 10.14 5.54 10.28 5.92 10.28C6.3 10.28 6.63 10.14 6.88 9.89C7.12 9.64 7.27 9.3 7.27 8.93C7.27 8.55 7.12 8.22 6.88 7.97ZM24.42 13.59C24.16 13.33 23.86 13.07 23.54 12.87C23.23 12.66 22.9 12.48 22.55 12.34C22.22 12.2 21.86 12.09 21.48 12C21.12 11.93 20.73 11.9 20.34 11.9C19.95 11.9 19.57 11.93 19.21 12.01C18.83 12.08 18.47 12.19 18.12 12.33C17.77 12.47 17.45 12.65 17.13 12.86C16.82 13.07 16.53 13.32 16.25 13.58C15.97 13.86 15.74 14.15 15.53 14.46C15.32 14.78 15.14 15.12 15 15.45C14.86 15.8 14.75 16.16 14.67 16.54C14.6 16.9 14.57 17.28 14.57 17.67C14.57 18.06 14.6 18.45 14.67 18.81C14.75 19.19 14.86 19.55 15 19.88C15.14 20.23 15.32 20.56 15.53 20.87C15.74 21.19 15.98 21.48 16.25 21.76C16.53 22.02 16.82 22.28 17.13 22.49C17.45 22.7 17.77 22.88 18.12 23.02C18.47 23.16 18.81 23.27 19.21 23.34C19.57 23.41 19.95 23.45 20.34 23.45C20.73 23.45 21.12 23.41 21.48 23.34C21.86 23.27 22.22 23.16 22.55 23.02C22.9 22.88 23.23 22.7 23.54 22.49C23.86 22.28 24.15 22.03 24.42 21.76C24.7 21.48 24.95 21.19 25.16 20.87C25.37 20.56 25.54 20.23 25.69 19.88C25.83 19.55 25.94 19.18 26.01 18.81C26.08 18.45 26.12 18.06 26.12 17.67C26.12 17.28 26.08 16.9 26.01 16.54C25.94 16.16 25.83 15.8 25.69 15.45C25.54 15.12 25.37 14.78 25.16 14.46C24.95 14.17 24.7 13.87 24.42 13.59ZM23.93 12.29C24.29 12.54 24.62 12.8 24.92 13.11C25.21 13.4 25.49 13.74 25.73 14.1C25.97 14.45 26.16 14.81 26.33 15.2C26.49 15.59 26.61 15.99 26.69 16.41C26.77 16.83 26.82 17.25 26.82 17.68C26.82 18.13 26.78 18.54 26.69 18.95C26.61 19.38 26.48 19.79 26.33 20.16C26.16 20.55 25.97 20.93 25.73 21.27C25.49 21.63 25.21 21.95 24.92 22.26C24.62 22.57 24.29 22.83 23.93 23.07C23.58 23.31 23.21 23.52 22.82 23.67C22.43 23.84 22.02 23.95 21.61 24.03C21.21 24.11 20.77 24.16 20.34 24.16C19.91 24.16 19.48 24.12 19.07 24.03C18.65 23.95 18.25 23.84 17.86 23.67C17.47 23.52 17.09 23.31 16.74 23.07C16.39 22.83 16.06 22.57 15.76 22.26C15.45 21.95 15.18 21.63 14.94 21.27C14.7 20.92 14.51 20.55 14.34 20.16C14.19 19.78 14.06 19.38 13.98 18.95C13.9 18.55 13.85 18.13 13.85 17.68C13.85 17.25 13.89 16.83 13.98 16.41C14.06 15.99 14.19 15.59 14.34 15.2C14.51 14.81 14.7 14.45 14.94 14.1C15.18 13.74 15.45 13.4 15.76 13.11C16.05 12.8 16.39 12.54 16.74 12.29C17.09 12.07 17.47 11.86 17.86 11.7C18.25 11.53 18.65 11.41 19.07 11.32C19.47 11.25 19.91 11.21 20.34 11.21C20.77 11.21 21.2 11.25 21.61 11.32C22.03 11.4 22.43 11.53 22.82 11.7C23.21 11.85 23.58 12.06 23.93 12.29Z" fill="#F05A05"/>
</g>
<defs>
<clipPath id="clip0_424_8359">
<rect width="40.68" height="30.52" fill="white"/>
</clipPath>
</defs>
</svg>
