<svg width="21" height="18" viewBox="0 0 21 18" fill="none" xmlns="http://www.w3.org/2000/svg">
<g clip-path="url(#clip0_409_7537)">
<path d="M10.3562 4.98521C9.16952 4.98521 8.19863 4.01515 8.19863 2.82952C8.19863 1.61694 9.16952 0.673828 10.3562 0.673828C11.5428 0.673828 12.5137 1.61694 12.5137 2.82952C12.5137 4.01515 11.5428 4.98521 10.3562 4.98521ZM1.753 4.09598C2.69692 4.09598 3.45205 4.87742 3.45205 5.82054C3.45205 6.7906 2.69692 7.54509 1.753 7.54509C0.782106 7.54509 0 6.7906 0 5.82054C0 4.87742 0.782106 4.09598 1.753 4.09598ZM19.0133 4.09598C19.9572 4.09598 20.7123 4.87742 20.7123 5.82054C20.7123 6.7906 19.9572 7.54509 19.0133 7.54509C18.0424 7.54509 17.2603 6.7906 17.2603 5.82054C17.2603 4.87742 18.0424 4.09598 19.0133 4.09598ZM3.64084 16.0062L2.21147 8.19179C2.64298 8.11096 3.04752 7.86844 3.37115 7.59898C4.26113 8.40736 5.39384 9.1888 6.4726 9.1888C7.76712 9.1888 8.81892 7.19479 9.54709 5.52413C9.78981 5.60497 10.0865 5.68581 10.3562 5.68581C10.6259 5.68581 10.9225 5.60497 11.1652 5.52413C11.8934 7.19479 12.9452 9.1888 14.2397 9.1888C15.3185 9.1888 16.4512 8.40736 17.3412 7.59898C17.6648 7.86844 18.0694 8.11096 18.5009 8.19179L17.0715 16.0062H3.64084ZM3.34418 16.6798H17.3682V18.0002H3.34418V16.6798Z" fill="white"/>
</g>
<defs>
<clipPath id="clip0_409_7537">
<rect width="20.7123" height="18" fill="white"/>
</clipPath>
</defs>
</svg>
