<svg width="35" height="34" viewBox="0 0 35 34" fill="none" xmlns="http://www.w3.org/2000/svg">
<path d="M0 34L35 0H0V34Z" fill="#093C6A"/>
<path d="M12.2845 7.65872C12.4166 7.53299 12.5923 7.46348 12.7746 7.46486C12.957 7.46624 13.1316 7.5384 13.2618 7.66612C13.3919 7.79383 13.4674 7.96711 13.4722 8.14938C13.477 8.33166 13.4108 8.50868 13.2876 8.6431L9.54699 13.3212C9.48267 13.3905 9.40504 13.4461 9.31874 13.4847C9.23244 13.5233 9.13925 13.5441 9.04473 13.5458C8.95021 13.5476 8.85631 13.5302 8.76864 13.4949C8.68097 13.4595 8.60133 13.4068 8.53449 13.34L6.05387 10.8593C5.98479 10.795 5.92938 10.7174 5.89095 10.6311C5.85252 10.5449 5.83185 10.4517 5.83019 10.3573C5.82852 10.2629 5.84589 10.1692 5.88125 10.0816C5.91662 9.99405 5.96925 9.91452 6.03602 9.84775C6.10279 9.78098 6.18232 9.72835 6.26987 9.69298C6.35742 9.65762 6.4512 9.64025 6.54561 9.64192C6.64002 9.64358 6.73312 9.66425 6.81937 9.70268C6.90562 9.74111 6.98325 9.79652 7.04762 9.8656L9.01074 11.8278L12.2667 7.67935C12.2725 7.67213 12.2788 7.66524 12.2854 7.65872H12.2845Z" fill="white"/>
</svg>
