<svg width="40" height="41" viewBox="0 0 40 41" fill="none" xmlns="http://www.w3.org/2000/svg">
<circle cx="20" cy="20.5" r="20" fill="#11B6EF"/>
<path d="M11.75 11.5C11.5511 11.5 11.3603 11.579 11.2197 11.7197C11.079 11.8603 11 12.0511 11 12.25C11 12.4489 11.079 12.6397 11.2197 12.7803C11.3603 12.921 11.5511 13 11.75 13H12.119C12.2819 13.0003 12.4402 13.0536 12.5701 13.1518C12.7 13.25 12.7944 13.3879 12.839 13.5445L15.218 21.8695C15.3526 22.3393 15.6364 22.7525 16.0267 23.0467C16.4169 23.3409 16.8923 23.5 17.381 23.5H24.2345C24.6843 23.5001 25.1237 23.3654 25.4962 23.1132C25.8686 22.8611 26.157 22.5031 26.324 22.0855L28.535 16.5565C28.6259 16.329 28.6597 16.0827 28.6334 15.8391C28.6071 15.5955 28.5216 15.3621 28.3842 15.1592C28.2469 14.9563 28.062 14.7901 27.8456 14.6752C27.6292 14.5603 27.388 14.5002 27.143 14.5H14.672L14.2805 13.132C14.1463 12.6622 13.8628 12.2488 13.4728 11.9543C13.0828 11.6599 12.6076 11.5004 12.119 11.5H11.75ZM16.661 21.4555L15.101 16H27.1415L24.9305 21.529C24.8748 21.668 24.7787 21.7872 24.6547 21.8711C24.5306 21.9551 24.3843 22 24.2345 22H17.381C17.2181 21.9997 17.0598 21.9464 16.9299 21.8482C16.8 21.75 16.7056 21.6121 16.661 21.4555Z" fill="white"/>
<path d="M17.75 29.5C18.0455 29.5 18.3381 29.4418 18.611 29.3287C18.884 29.2157 19.1321 29.0499 19.341 28.841C19.5499 28.6321 19.7157 28.384 19.8287 28.111C19.9418 27.8381 20 27.5455 20 27.25C20 26.9545 19.9418 26.6619 19.8287 26.389C19.7157 26.116 19.5499 25.8679 19.341 25.659C19.1321 25.4501 18.884 25.2843 18.611 25.1713C18.3381 25.0582 18.0455 25 17.75 25C17.1533 25 16.581 25.2371 16.159 25.659C15.7371 26.081 15.5 26.6533 15.5 27.25C15.5 27.8467 15.7371 28.419 16.159 28.841C16.581 29.2629 17.1533 29.5 17.75 29.5ZM17.75 28C17.5511 28 17.3603 27.921 17.2197 27.7803C17.079 27.6397 17 27.4489 17 27.25C17 27.0511 17.079 26.8603 17.2197 26.7197C17.3603 26.579 17.5511 26.5 17.75 26.5C17.9489 26.5 18.1397 26.579 18.2803 26.7197C18.421 26.8603 18.5 27.0511 18.5 27.25C18.5 27.4489 18.421 27.6397 18.2803 27.7803C18.1397 27.921 17.9489 28 17.75 28Z" fill="white"/>
<path d="M23.75 29.5C24.0455 29.5 24.3381 29.4418 24.611 29.3287C24.884 29.2157 25.1321 29.0499 25.341 28.841C25.5499 28.6321 25.7157 28.384 25.8287 28.111C25.9418 27.8381 26 27.5455 26 27.25C26 26.9545 25.9418 26.6619 25.8287 26.389C25.7157 26.116 25.5499 25.8679 25.341 25.659C25.1321 25.4501 24.884 25.2843 24.611 25.1713C24.3381 25.0582 24.0455 25 23.75 25C23.1533 25 22.581 25.2371 22.159 25.659C21.7371 26.081 21.5 26.6533 21.5 27.25C21.5 27.8467 21.7371 28.419 22.159 28.841C22.581 29.2629 23.1533 29.5 23.75 29.5ZM23.75 28C23.5511 28 23.3603 27.921 23.2197 27.7803C23.079 27.6397 23 27.4489 23 27.25C23 27.0511 23.079 26.8603 23.2197 26.7197C23.3603 26.579 23.5511 26.5 23.75 26.5C23.9489 26.5 24.1397 26.579 24.2803 26.7197C24.421 26.8603 24.5 27.0511 24.5 27.25C24.5 27.4489 24.421 27.6397 24.2803 27.7803C24.1397 27.921 23.9489 28 23.75 28Z" fill="white"/>
</svg>
