<svg width="40" height="40" viewBox="0 0 40 40" fill="none" xmlns="http://www.w3.org/2000/svg">
<path d="M20 2.5C22.3319 2.49928 24.6402 2.96743 26.7876 3.87663C28.9349 4.78583 30.8776 6.11751 32.5 7.7925V2.5H35V12.5H25V10H31.1525C28.8106 7.39931 25.6319 5.70083 22.1683 5.19943C18.7047 4.69804 15.1748 5.42539 12.1916 7.25521C9.20832 9.08503 6.96003 11.9018 5.83704 15.2164C4.71405 18.5311 4.78726 22.1344 6.04397 25.4007C7.30068 28.667 9.66154 31.3901 12.7167 33.0972C15.7718 34.8043 19.3283 35.3877 22.7687 34.746C26.2091 34.1043 29.3161 32.2781 31.5504 29.5845C33.7848 26.8908 35.0052 23.4997 35 20H37.5C37.5 23.4612 36.4737 26.8446 34.5507 29.7225C32.6278 32.6003 29.8947 34.8434 26.697 36.1679C23.4993 37.4924 19.9806 37.839 16.5859 37.1637C13.1913 36.4885 10.0731 34.8218 7.62564 32.3744C5.17822 29.9269 3.51151 26.8087 2.83627 23.4141C2.16102 20.0194 2.50758 16.5007 3.83212 13.303C5.15665 10.1053 7.39967 7.37221 10.2775 5.44928C13.1554 3.52636 16.5388 2.5 20 2.5Z" fill="#093C6A"/>
<path d="M15.2087 26H13.2207V19.644H10.7567V18.146C11.522 18.1647 12.166 18.02 12.6887 17.712C13.2114 17.404 13.524 16.9 13.6267 16.2H15.2087V26ZM21.868 18.692H21.826L19.292 22.094H21.868V18.692ZM21.868 23.732H17.724V21.912L21.98 16.2H23.758V22.094H25.06V23.732H23.758V26H21.868V23.732Z" fill="white"/>
</svg>
