<svg width="18" height="18" viewBox="0 0 18 18" fill="none" xmlns="http://www.w3.org/2000/svg">
<path d="M9 16.5C13.1422 16.5 16.5 13.1422 16.5 9C16.5 4.85775 13.1422 1.5 9 1.5C4.85775 1.5 1.5 4.85775 1.5 9C1.5 13.1422 4.85775 16.5 9 16.5Z" stroke="#4F4F4F" stroke-width="1.5" stroke-linecap="round" stroke-linejoin="round"/>
<path d="M9 12.2933V13.875M11.25 6.375C10.7362 5.86125 9.83175 5.50425 9 5.48175L11.25 6.375ZM6.75 11.25C7.233 11.895 8.13225 12.2625 9 12.2933L6.75 11.25ZM9 5.48175C8.01 5.45475 7.125 5.9025 7.125 7.125C7.125 9.375 11.25 8.25 11.25 10.5C11.25 11.7832 10.152 12.3345 9 12.2933V5.48175ZM9 5.48175V4.125V5.48175Z" stroke="#4F4F4F" stroke-width="1.5" stroke-linecap="round" stroke-linejoin="round"/>
</svg>
