<svg width="12" height="13" viewBox="0 0 12 13" fill="none" xmlns="http://www.w3.org/2000/svg">
<g clip-path="url(#clip0_519_8730)">
<path d="M8.51597 5.4359C8.58639 5.36548 8.62595 5.26998 8.62595 5.1704C8.62595 5.07081 8.58639 4.97531 8.51597 4.9049C8.44556 4.83448 8.35006 4.79492 8.25047 4.79492C8.15089 4.79492 8.05539 4.83448 7.98497 4.9049L6.00047 6.89015L5.14097 6.0299C5.10611 5.99503 5.06472 5.96737 5.01916 5.9485C4.97361 5.92963 4.92478 5.91992 4.87547 5.91992C4.82617 5.91992 4.77734 5.92963 4.73179 5.9485C4.68623 5.96737 4.64484 5.99503 4.60997 6.0299C4.57511 6.06476 4.54745 6.10615 4.52858 6.15171C4.50971 6.19726 4.5 6.24609 4.5 6.2954C4.5 6.3447 4.50971 6.39353 4.52858 6.43908C4.54745 6.48464 4.57511 6.52603 4.60997 6.5609L5.73497 7.6859C5.76981 7.72082 5.81119 7.74853 5.85675 7.76743C5.90231 7.78633 5.95115 7.79607 6.00047 7.79607C6.0498 7.79607 6.09864 7.78633 6.1442 7.76743C6.18976 7.74853 6.23114 7.72082 6.26597 7.6859L8.51597 5.4359Z" fill="#4F4F4F"/>
<path d="M0.375 1.42041C0.275544 1.42041 0.180161 1.45992 0.109835 1.53025C0.0395088 1.60057 0 1.69595 0 1.79541C0 1.89487 0.0395088 1.99025 0.109835 2.06058C0.180161 2.1309 0.275544 2.17041 0.375 2.17041H1.2075L1.50825 3.37566L2.63175 9.36441C2.64784 9.45034 2.69344 9.52796 2.76068 9.58383C2.82792 9.6397 2.91257 9.67033 3 9.67041H3.75C3.35218 9.67041 2.97064 9.82845 2.68934 10.1098C2.40804 10.3911 2.25 10.7726 2.25 11.1704C2.25 11.5682 2.40804 11.9498 2.68934 12.2311C2.97064 12.5124 3.35218 12.6704 3.75 12.6704C4.14783 12.6704 4.52936 12.5124 4.81066 12.2311C5.09197 11.9498 5.25 11.5682 5.25 11.1704C5.25 10.7726 5.09197 10.3911 4.81066 10.1098C4.52936 9.82845 4.14783 9.67041 3.75 9.67041H9C8.60218 9.67041 8.22064 9.82845 7.93934 10.1098C7.65804 10.3911 7.5 10.7726 7.5 11.1704C7.5 11.5682 7.65804 11.9498 7.93934 12.2311C8.22064 12.5124 8.60218 12.6704 9 12.6704C9.39783 12.6704 9.77936 12.5124 10.0607 12.2311C10.342 11.9498 10.5 11.5682 10.5 11.1704C10.5 10.7726 10.342 10.3911 10.0607 10.1098C9.77936 9.82845 9.39783 9.67041 9 9.67041H9.75C9.83743 9.67033 9.92208 9.6397 9.98932 9.58383C10.0566 9.52796 10.1022 9.45034 10.1183 9.36441L11.2433 3.36441C11.2534 3.31029 11.2515 3.2546 11.2377 3.2013C11.2238 3.148 11.1984 3.0984 11.1633 3.05601C11.1281 3.01363 11.0841 2.97951 11.0343 2.95607C10.9844 2.93264 10.9301 2.92046 10.875 2.92041H2.1675L1.86375 1.70466C1.84351 1.6235 1.79671 1.55143 1.7308 1.49993C1.66489 1.44842 1.58365 1.42043 1.5 1.42041H0.375ZM3.31125 8.92041L2.3265 3.67041H10.4235L9.43875 8.92041H3.31125ZM4.5 11.1704C4.5 11.3693 4.42098 11.5601 4.28033 11.7007C4.13968 11.8414 3.94891 11.9204 3.75 11.9204C3.55109 11.9204 3.36032 11.8414 3.21967 11.7007C3.07902 11.5601 3 11.3693 3 11.1704C3 10.9715 3.07902 10.7807 3.21967 10.6401C3.36032 10.4994 3.55109 10.4204 3.75 10.4204C3.94891 10.4204 4.13968 10.4994 4.28033 10.6401C4.42098 10.7807 4.5 10.9715 4.5 11.1704ZM9.75 11.1704C9.75 11.3693 9.67098 11.5601 9.53033 11.7007C9.38968 11.8414 9.19891 11.9204 9 11.9204C8.80109 11.9204 8.61032 11.8414 8.46967 11.7007C8.32902 11.5601 8.25 11.3693 8.25 11.1704C8.25 10.9715 8.32902 10.7807 8.46967 10.6401C8.61032 10.4994 8.80109 10.4204 9 10.4204C9.19891 10.4204 9.38968 10.4994 9.53033 10.6401C9.67098 10.7807 9.75 10.9715 9.75 11.1704Z" fill="#4F4F4F"/>
</g>
<defs>
<clipPath id="clip0_519_8730">
<rect width="12" height="12" fill="white" transform="translate(0 0.67041)"/>
</clipPath>
</defs>
</svg>
