<svg width="30" height="30" viewBox="0 0 30 30" fill="none" xmlns="http://www.w3.org/2000/svg">
<path d="M16.7961 14.9395L25.7062 6.02944C25.9064 5.79563 26.011 5.49487 25.9991 5.18726C25.9873 4.87966 25.8597 4.58787 25.642 4.3702C25.4244 4.15252 25.1326 4.025 24.8251 4.01312C24.5174 4.00124 24.2166 4.10588 23.9828 4.30612L15.0728 13.2161L6.16279 4.29389C5.92898 4.09366 5.6282 3.98903 5.3206 4.00091C5.013 4.01279 4.72121 4.1403 4.50353 4.35797C4.28586 4.57565 4.15835 4.86745 4.14647 5.17504C4.13459 5.48265 4.23922 5.7834 4.43945 6.01721L13.3495 14.9395L4.42722 23.8495C4.29928 23.9591 4.19536 24.0939 4.122 24.2455C4.04865 24.3972 4.00741 24.5623 4.00091 24.7306C3.99442 24.8989 4.02277 25.0668 4.08423 25.2236C4.14567 25.3804 4.23887 25.523 4.35799 25.6421C4.4771 25.7612 4.61955 25.8544 4.77638 25.9158C4.93322 25.9773 5.10108 26.0055 5.2694 25.9991C5.43773 25.9927 5.60289 25.9513 5.75452 25.8781C5.90616 25.8047 6.04099 25.7007 6.15056 25.5728L15.0728 16.6628L23.9828 25.5728C24.2166 25.773 24.5174 25.8776 24.8251 25.8658C25.1326 25.8539 25.4244 25.7265 25.642 25.5087C25.8597 25.291 25.9873 24.9992 25.9991 24.6917C26.011 24.384 25.9064 24.0832 25.7062 23.8495L16.7961 14.9395Z" fill="#222B3B"/>
</svg>
