<svg width="20" height="20" viewBox="0 0 20 20" fill="none" xmlns="http://www.w3.org/2000/svg">
<path d="M17.9166 5C17.9166 5.20411 17.8416 5.40111 17.706 5.55364C17.5704 5.70617 17.3835 5.80362 17.1808 5.8275L17.0833 5.83333H16.3791L15.3533 16.2667C15.2974 16.8328 15.033 17.3579 14.6114 17.7399C14.1899 18.1219 13.6413 18.3334 13.0724 18.3333H6.92742C6.35854 18.3334 5.80998 18.1219 5.38842 17.7399C4.96686 17.3579 4.70244 16.8328 4.64659 16.2667L3.62075 5.83333H2.91659C2.69557 5.83333 2.48361 5.74554 2.32733 5.58926C2.17105 5.43298 2.08325 5.22101 2.08325 5C2.08325 4.77899 2.17105 4.56702 2.32733 4.41074C2.48361 4.25446 2.69557 4.16667 2.91659 4.16667H7.08325C7.08325 3.78364 7.15869 3.40437 7.30527 3.05051C7.45185 2.69664 7.66669 2.37511 7.93752 2.10427C8.20836 1.83343 8.52989 1.61859 8.88376 1.47202C9.23763 1.32544 9.6169 1.25 9.99992 1.25C10.3829 1.25 10.7622 1.32544 11.1161 1.47202C11.4699 1.61859 11.7915 1.83343 12.0623 2.10427C12.3332 2.37511 12.548 2.69664 12.6946 3.05051C12.8411 3.40437 12.9166 3.78364 12.9166 4.16667H17.0833C17.3043 4.16667 17.5162 4.25446 17.6725 4.41074C17.8288 4.56702 17.9166 4.77899 17.9166 5ZM11.8749 7.70833C11.7239 7.70834 11.578 7.76304 11.4641 7.86231C11.3503 7.96158 11.2763 8.09871 11.2558 8.24833L11.2499 8.33333V14.1667L11.2558 14.2517C11.2763 14.4013 11.3504 14.5383 11.4642 14.6376C11.578 14.7368 11.7239 14.7915 11.8749 14.7915C12.0259 14.7915 12.1718 14.7368 12.2856 14.6376C12.3995 14.5383 12.4735 14.4013 12.4941 14.2517L12.4999 14.1667V8.33333L12.4941 8.24833C12.4735 8.09871 12.3995 7.96158 12.2857 7.86231C12.1719 7.76304 12.0259 7.70834 11.8749 7.70833ZM8.12492 7.70833C7.97389 7.70834 7.82797 7.76304 7.71414 7.86231C7.60032 7.96158 7.52629 8.09871 7.50575 8.24833L7.49992 8.33333V14.1667L7.50575 14.2517C7.52633 14.4013 7.60038 14.5383 7.7142 14.6376C7.82802 14.7368 7.97392 14.7915 8.12492 14.7915C8.27592 14.7915 8.42182 14.7368 8.53564 14.6376C8.64946 14.5383 8.7235 14.4013 8.74409 14.2517L8.74992 14.1667V8.33333L8.74409 8.24833C8.72355 8.09871 8.64952 7.96158 8.53569 7.86231C8.42187 7.76304 8.27595 7.70834 8.12492 7.70833ZM9.99992 2.91667C9.6684 2.91667 9.35046 3.04836 9.11603 3.28278C8.88161 3.5172 8.74992 3.83515 8.74992 4.16667H11.2499C11.2499 3.83515 11.1182 3.5172 10.8838 3.28278C10.6494 3.04836 10.3314 2.91667 9.99992 2.91667Z" fill="#4F4F4F"/>
</svg>
