<svg width="16" height="16" viewBox="0 0 16 16" fill="none" xmlns="http://www.w3.org/2000/svg">
<path d="M14.4788 3.88236L12.0812 1.47618C11.7683 1.1812 11.3583 1.01194 10.9292 1.00061C10.5 0.989274 10.0817 1.13665 9.75374 1.41471L1.87868 9.31822C1.59585 9.60448 1.41975 9.97968 1.37993 10.3808L1.00368 14.0427C0.99189 14.1714 1.00852 14.301 1.05238 14.4225C1.09624 14.5439 1.16626 14.6541 1.25743 14.7453C1.33919 14.8267 1.43616 14.8911 1.54276 14.9348C1.64937 14.9785 1.76353 15.0006 1.87868 15H1.95744L5.60622 14.6663C6.00592 14.6263 6.37976 14.4495 6.66498 14.1657L14.5401 6.2622C14.8457 5.93813 15.0109 5.50566 14.9994 5.05958C14.9879 4.61349 14.8007 4.19017 14.4788 3.88236ZM5.44872 12.91L2.8237 13.1558L3.05995 10.5213L8.00374 5.62113L10.3662 7.99219L5.44872 12.91ZM11.5037 6.81545L9.15875 4.46195L10.865 2.70562L13.2538 5.10301L11.5037 6.81545Z" fill="#828282"/>
</svg>
