<svg width="40" height="33" viewBox="0 0 40 33" fill="none" xmlns="http://www.w3.org/2000/svg">
<g clip-path="url(#clip0_421_8540)">
<path d="M39 22.5598H38V15.6316C38 14.8177 37.6813 14.0358 37.1188 13.459L30.875 7.05634C30.3125 6.47953 29.55 6.15267 28.7563 6.15267H26V3.07634C26 1.37794 24.6562 0 23 0H7C5.34375 0 4 1.37794 4 3.07634V6.15267H0.5C0.225 6.15267 0 6.3834 0 6.66539V7.69084C0 7.97284 0.225 8.20356 0.5 8.20356H17.5C17.775 8.20356 18 8.43429 18 8.71628V9.74173C18 10.0237 17.775 10.2545 17.5 10.2545H2.5C2.225 10.2545 2 10.4852 2 10.7672V11.7926C2 12.0746 2.225 12.3053 2.5 12.3053H15.5C15.775 12.3053 16 12.5361 16 12.8181V13.8435C16 14.1255 15.775 14.3562 15.5 14.3562H0.5C0.225 14.3562 0 14.587 0 14.869V15.8944C0 16.1764 0.225 16.4071 0.5 16.4071H13.5C13.775 16.4071 14 16.6378 14 16.9198V17.9453C14 18.2273 13.775 18.458 13.5 18.458H4V26.6616C4 30.0584 6.6875 32.8142 10 32.8142C13.3125 32.8142 16 30.0584 16 26.6616H24C24 30.0584 26.6875 32.8142 30 32.8142C33.3125 32.8142 36 30.0584 36 26.6616H39C39.55 26.6616 40 26.2001 40 25.6361V23.5852C40 23.0212 39.55 22.5598 39 22.5598ZM10 29.7379C8.34375 29.7379 7 28.36 7 26.6616C7 24.9632 8.34375 23.5852 10 23.5852C11.6562 23.5852 13 24.9632 13 26.6616C13 28.36 11.6562 29.7379 10 29.7379ZM30 29.7379C28.3438 29.7379 27 28.36 27 26.6616C27 24.9632 28.3438 23.5852 30 23.5852C31.6562 23.5852 33 24.9632 33 26.6616C33 28.36 31.6562 29.7379 30 29.7379ZM35 16.4071H26V9.22901H28.7563L35 15.6316V16.4071Z" fill="#093C6A"/>
</g>
<defs>
<clipPath id="clip0_421_8540">
<rect width="40" height="32.8142" fill="white"/>
</clipPath>
</defs>
</svg>
