<svg width="40" height="40" viewBox="0 0 40 40" fill="none" xmlns="http://www.w3.org/2000/svg">
<path d="M39.4792 20C39.4792 30.7698 30.7531 39.5 19.9896 39.5C9.22603 39.5 0.5 30.7698 0.5 20C0.5 9.2302 9.22603 0.5 19.9896 0.5C30.7531 0.5 39.4792 9.2302 39.4792 20Z" stroke="#11B6EF"/>
<g clip-path="url(#clip0_624_39)">
<path d="M17.4723 30V20.6154H14.9922V17.2365H17.4723V14.3505C17.4723 12.0826 18.9374 10 22.3132 10C23.68 10 24.6906 10.1311 24.6906 10.1311L24.611 13.2864C24.611 13.2864 23.5803 13.2764 22.4555 13.2764C21.2381 13.2764 21.0431 13.8377 21.0431 14.7693V17.2365H24.7078L24.5483 20.6154H21.0431V30H17.4723Z" fill="#11B6EF"/>
</g>
<defs>
<clipPath id="clip0_624_39">
<rect width="9.71558" height="20" fill="white" transform="translate(14.9922 10)"/>
</clipPath>
</defs>
</svg>
