<svg width="24" height="25" viewBox="0 0 24 25" fill="none" xmlns="http://www.w3.org/2000/svg">
<path d="M23.5 12.0062C23.5 18.3612 18.351 23.5125 12 23.5125C5.64897 23.5125 0.5 18.3612 0.5 12.0062C0.5 5.65128 5.64897 0.5 12 0.5C18.351 0.5 23.5 5.65128 23.5 12.0062Z" stroke="#093C6A"/>
<g clip-path="url(#clip0_421_8566)">
<path d="M10.4888 18.0102V12.3765H8.99988V10.3481H10.4888V8.61557C10.4888 7.25414 11.3682 6.00391 13.3947 6.00391C14.2153 6.00391 14.822 6.08261 14.822 6.08261L14.7742 7.97679C14.7742 7.97679 14.1554 7.97076 13.4802 7.97076C12.7494 7.97076 12.6323 8.30771 12.6323 8.86698V10.3481H14.8323L14.7365 12.3765H12.6323V18.0102H10.4888Z" fill="#093C6A"/>
</g>
<defs>
<clipPath id="clip0_421_8566">
<rect width="5.83238" height="12.0062" fill="white" transform="translate(8.99988 6.00391)"/>
</clipPath>
</defs>
</svg>
