<svg width="30" height="30" viewBox="0 0 30 30" fill="none" xmlns="http://www.w3.org/2000/svg">
<path d="M29.7083 12.0623H28.5V12H15V18H23.4773C22.2405 21.4928 18.9172 24 15 24C10.0297 24 6 19.9702 6 15C6 10.0297 10.0297 6 15 6C17.2943 6 19.3815 6.8655 20.9708 8.27925L25.2135 4.0365C22.5345 1.53975 18.951 0 15 0C6.71625 0 0 6.71625 0 15C0 23.2838 6.71625 30 15 30C23.2838 30 30 23.2838 30 15C30 13.9943 29.8965 13.0125 29.7083 12.0623Z" fill="#FFC107"/>
<path d="M2 8.27157L6.82668 12C8.1327 8.5942 11.2956 6.18956 14.997 6.18956C17.244 6.18956 19.2882 7.0824 20.8447 8.54081L25 4.16402C22.3762 1.58839 18.8666 0 14.997 0C9.35424 0 4.46072 3.35551 2 8.27157Z" fill="#FF3D00"/>
<path d="M15.1196 30C18.9262 30 22.3849 28.5122 25 26.0928L20.4389 22.151C18.9096 23.3388 17.0409 23.9812 15.1196 23.9797C11.2865 23.9797 8.03184 21.4835 6.80573 18L2 21.7815C4.43897 26.6557 9.39207 30 15.1196 30Z" fill="#4CAF50"/>
<path d="M29.7083 12.0617H28.5V12H15V17.9485H23.4773C22.8857 19.5966 21.82 21.0367 20.412 22.0909L20.4142 22.0894L25.0568 25.9842C24.7283 26.2801 30 22.4099 30 14.9743C30 13.9771 29.8965 13.0038 29.7083 12.0617Z" fill="#1976D2"/>
</svg>
