<svg width="16" height="17" viewBox="0 0 16 17" fill="none" xmlns="http://www.w3.org/2000/svg">
<path d="M2.5 14.6392C2.5 14.9157 2.72344 15.1392 3 15.1392H7.46875V9.26416H2.5V14.6392ZM8.53125 15.1392H13C13.2766 15.1392 13.5 14.9157 13.5 14.6392V9.26416H8.53125V15.1392ZM13.75 5.51416H11.4438C11.6562 5.17979 11.7812 4.78291 11.7812 4.35791C11.7812 3.16885 10.8141 2.20166 9.625 2.20166C8.97813 2.20166 8.39531 2.48916 8 2.94229C7.60469 2.48916 7.02187 2.20166 6.375 2.20166C5.18594 2.20166 4.21875 3.16885 4.21875 4.35791C4.21875 4.78291 4.34219 5.17979 4.55625 5.51416H2.25C1.97344 5.51416 1.75 5.7376 1.75 6.01416V8.20166H7.46875V5.51416H8.53125V8.20166H14.25V6.01416C14.25 5.7376 14.0266 5.51416 13.75 5.51416ZM7.46875 5.45166H6.375C5.77187 5.45166 5.28125 4.96104 5.28125 4.35791C5.28125 3.75479 5.77187 3.26416 6.375 3.26416C6.97813 3.26416 7.46875 3.75479 7.46875 4.35791V5.45166ZM9.625 5.45166H8.53125V4.35791C8.53125 3.75479 9.02187 3.26416 9.625 3.26416C10.2281 3.26416 10.7188 3.75479 10.7188 4.35791C10.7188 4.96104 10.2281 5.45166 9.625 5.45166Z" fill="white"/>
</svg>
