<svg width="28" height="29" viewBox="0 0 28 29" fill="none" xmlns="http://www.w3.org/2000/svg">
<path d="M24.9823 8.27783H3.01789C2.63008 8.27783 2.25816 8.43189 1.98394 8.70611C1.70972 8.98033 1.55566 9.35225 1.55566 9.74005V23.9267C1.55566 24.3145 1.70972 24.6864 1.98394 24.9607C2.25816 25.2349 2.63008 25.3889 3.01789 25.3889H24.9823C25.3701 25.3889 25.7421 25.2349 26.0163 24.9607C26.2905 24.6864 26.4446 24.3145 26.4446 23.9267V9.74005C26.4446 9.35225 26.2905 8.98033 26.0163 8.70611C25.7421 8.43189 25.3701 8.27783 24.9823 8.27783ZM24.889 23.8334H3.11122V9.83339H24.889V23.8334Z" fill="#11B6EF"/>
<path d="M6.6578 15.6276C7.11929 15.6276 7.57041 15.4908 7.95413 15.2344C8.33784 14.978 8.63691 14.6136 8.81352 14.1872C8.99012 13.7608 9.03633 13.2917 8.9463 12.8391C8.85626 12.3864 8.63403 11.9707 8.30771 11.6444C7.98139 11.318 7.56563 11.0958 7.11301 11.0058C6.66038 10.9157 6.19123 10.9619 5.76487 11.1386C5.33851 11.3152 4.97409 11.6142 4.7177 11.9979C4.46131 12.3817 4.32446 12.8328 4.32446 13.2943C4.32446 13.9131 4.5703 14.5066 5.00788 14.9442C5.44547 15.3818 6.03896 15.6276 6.6578 15.6276ZM6.6578 12.0498C6.90516 12.0436 7.14874 12.1113 7.35744 12.2443C7.56614 12.3772 7.73048 12.5693 7.82945 12.7961C7.92843 13.0229 7.95756 13.274 7.91311 13.5174C7.86866 13.7608 7.75266 13.9855 7.57993 14.1626C7.40719 14.3398 7.18557 14.4614 6.94336 14.512C6.70115 14.5626 6.44936 14.5399 6.22014 14.4467C5.99093 14.3535 5.79471 14.194 5.65655 13.9888C5.51838 13.7835 5.44454 13.5417 5.44446 13.2943C5.44436 12.9695 5.57119 12.6576 5.79788 12.4251C6.02458 12.1926 6.33317 12.0579 6.6578 12.0498Z" fill="#11B6EF"/>
<path d="M6.14449 22.2778L10.8112 17.6112L13.2845 20.0845L11.0912 22.2778H12.6467L18.4489 16.4756L23.3334 21.3212V19.7656L18.8223 15.2778C18.7188 15.1752 18.5791 15.1177 18.4334 15.1177C18.2877 15.1177 18.1479 15.1752 18.0445 15.2778L14.0312 19.2912L11.1767 16.4445C11.0733 16.3419 10.9335 16.2843 10.7878 16.2843C10.6421 16.2843 10.5024 16.3419 10.3989 16.4445L4.60449 22.2778H6.14449Z" fill="#11B6EF"/>
<path d="M23.4423 2.83344C23.4423 2.62716 23.3604 2.42933 23.2145 2.28347C23.0686 2.13761 22.8708 2.05566 22.6645 2.05566H5.55341C5.34713 2.05566 5.1493 2.13761 5.00344 2.28347C4.85758 2.42933 4.77563 2.62716 4.77563 2.83344V3.61122H23.4423V2.83344Z" fill="#11B6EF"/>
<path d="M24.9821 5.94428C24.9821 5.738 24.9002 5.54017 24.7543 5.39431C24.6085 5.24845 24.4106 5.1665 24.2043 5.1665H3.98212C3.77584 5.1665 3.57801 5.24845 3.43215 5.39431C3.28629 5.54017 3.20435 5.738 3.20435 5.94428V6.72206H24.9821V5.94428Z" fill="#11B6EF"/>
</svg>
