<svg width="54" height="54" viewBox="0 0 54 54" fill="none" xmlns="http://www.w3.org/2000/svg">
<circle cx="27" cy="27" r="27" fill="white"/>
<circle cx="27" cy="27" r="25" fill="#08C5A3"/>
<path d="M15.8363 48V42.288H16.8363V44.56H19.4363V42.288H20.4363V48H19.4363V45.424H16.8363V48H15.8363ZM25.0898 47.512C24.7164 47.912 24.2071 48.112 23.5618 48.112C22.9164 48.112 22.4071 47.912 22.0338 47.512C21.6604 47.1067 21.4738 46.5787 21.4738 45.928C21.4738 45.288 21.6604 44.7653 22.0338 44.36C22.4071 43.9547 22.9164 43.752 23.5618 43.752C24.2071 43.752 24.7164 43.9547 25.0898 44.36C25.4631 44.7653 25.6498 45.288 25.6498 45.928C25.6498 46.5787 25.4631 47.1067 25.0898 47.512ZM22.6818 46.96C22.8844 47.248 23.1778 47.392 23.5618 47.392C23.9458 47.392 24.2364 47.248 24.4338 46.96C24.6364 46.672 24.7378 46.328 24.7378 45.928C24.7378 45.5333 24.6364 45.192 24.4338 44.904C24.2364 44.616 23.9458 44.472 23.5618 44.472C23.1778 44.472 22.8844 44.616 22.6818 44.904C22.4844 45.192 22.3858 45.5333 22.3858 45.928C22.3858 46.328 22.4844 46.672 22.6818 46.96ZM23.5538 42.624L22.9938 43.344H22.2578L23.1138 42.2H24.0018L24.8658 43.344H24.1218L23.5538 42.624ZM24.5298 40.856H24.9778C24.9298 41.1493 24.8418 41.3653 24.7138 41.504C24.5644 41.6853 24.3564 41.776 24.0898 41.776C23.9244 41.776 23.7271 41.7253 23.4978 41.624C23.2684 41.528 23.0871 41.48 22.9538 41.48C22.7671 41.48 22.6524 41.5893 22.6098 41.808H22.1538C22.1911 41.5733 22.2818 41.3653 22.4258 41.184C22.5751 40.9973 22.7618 40.904 22.9858 40.904C23.1618 40.904 23.3778 40.9573 23.6338 41.064C23.8578 41.16 24.0231 41.208 24.1298 41.208C24.3378 41.208 24.4711 41.0907 24.5298 40.856ZM28.5385 44.544V43.864H29.2265V42.624H30.1385V43.864H30.9625V44.544H30.1385V46.752C30.1385 46.9653 30.1625 47.1147 30.2105 47.2C30.2639 47.28 30.3865 47.32 30.5785 47.32C30.7492 47.32 30.8772 47.3093 30.9625 47.288V47.992C30.6959 48.024 30.4985 48.04 30.3705 48.04C29.9225 48.04 29.6212 47.96 29.4665 47.8C29.3172 47.6347 29.2372 47.3627 29.2265 46.984V44.544H28.5385ZM31.7786 48V43.864H32.6346V44.664H32.6506C32.7039 44.4347 32.8506 44.2267 33.0906 44.04C33.3359 43.848 33.5919 43.752 33.8586 43.752C33.9119 43.752 34.0266 43.76 34.2026 43.776V44.656C34.0586 44.6293 33.9279 44.616 33.8106 44.616C33.4906 44.616 33.2239 44.7413 33.0106 44.992C32.7973 45.2427 32.6906 45.5893 32.6906 46.032V48H31.7786ZM38.7751 43.936L39.4631 43.544L39.9831 44.448L39.3671 44.8C39.0791 44.9707 38.8204 45.056 38.5911 45.056C38.6871 45.3227 38.7351 45.6133 38.7351 45.928C38.7351 46.5787 38.5484 47.1067 38.1751 47.512C37.8018 47.912 37.2924 48.112 36.6471 48.112C36.0018 48.112 35.4924 47.912 35.1191 47.512C34.7458 47.1067 34.5591 46.5787 34.5591 45.928C34.5591 45.288 34.7458 44.7653 35.1191 44.36C35.4924 43.9547 36.0018 43.752 36.6471 43.752C37.4258 43.752 37.9964 44.0347 38.3591 44.6C38.5458 44.6 38.7724 44.528 39.0391 44.384L38.7751 43.936ZM35.7671 46.96C35.9698 47.248 36.2631 47.392 36.6471 47.392C37.0311 47.392 37.3218 47.248 37.5191 46.96C37.7218 46.672 37.8231 46.328 37.8231 45.928C37.8231 45.5333 37.7218 45.192 37.5191 44.904C37.3218 44.616 37.0311 44.472 36.6471 44.472C36.2631 44.472 35.9698 44.616 35.7671 44.904C35.5698 45.192 35.4711 45.5333 35.4711 45.928C35.4711 46.328 35.5698 46.672 35.7671 46.96ZM37.1111 49.584H36.1991V48.72H37.1111V49.584Z" fill="white"/>
<path d="M38.8337 20.8904C38.8877 18.0327 37.8042 15.2706 35.8217 13.2118C33.8392 11.1529 31.1199 9.96594 28.2622 9.91197C25.4046 9.85801 22.6425 10.9415 20.5836 12.924C18.5248 14.9065 17.3378 17.6257 17.2838 20.4834" stroke="white" stroke-width="1.5" stroke-linecap="round" stroke-linejoin="round"/>
<path d="M38.6558 30.3185L38.6431 30.992C38.6296 31.7064 38.3328 32.3862 37.8181 32.8818C37.3034 33.3774 36.6129 33.6483 35.8985 33.6348L31.1844 33.5458M14.4773 26.41L14.5251 23.8833C14.5365 23.2826 14.7484 22.703 15.127 22.2365C15.5057 21.7701 16.0294 21.4436 16.6149 21.3089L18.9695 20.7659C19.0892 20.7385 19.2135 20.7387 19.3331 20.7665C19.4526 20.7943 19.5643 20.849 19.6596 20.9263C19.7548 21.0037 19.8312 21.1018 19.883 21.2131C19.9347 21.3244 19.9604 21.446 19.9582 21.5687L19.8192 28.9267C19.8171 29.0497 19.7869 29.1706 19.731 29.2801C19.6751 29.3897 19.595 29.4851 19.4966 29.559C19.3983 29.6329 19.2844 29.6833 19.1636 29.7066C19.0428 29.7298 18.9183 29.7251 18.7996 29.6929L16.4671 29.0628C15.8874 28.9059 15.3767 28.5597 15.0162 28.0793C14.6556 27.599 14.466 27.0119 14.4773 26.4114L14.4773 26.41ZM41.4147 26.9187L41.4624 24.392C41.4737 23.7913 41.2838 23.2041 40.923 22.7237C40.5623 22.2432 40.0513 21.8972 39.4713 21.7405L37.1388 21.109C37.0203 21.0771 36.896 21.0726 36.7755 21.0959C36.655 21.1192 36.5414 21.1696 36.4432 21.2433C36.3451 21.317 36.265 21.4121 36.2091 21.5214C36.1532 21.6307 36.1229 21.7512 36.1206 21.874L35.9816 29.2319C35.9791 29.3547 36.0047 29.4765 36.0563 29.588C36.108 29.6995 36.1844 29.7977 36.2797 29.8752C36.375 29.9528 36.4867 30.0075 36.6064 30.0354C36.726 30.0633 36.8505 30.0635 36.9702 30.0361L39.3248 29.4945C39.9103 29.3598 40.434 29.0333 40.8127 28.5668C41.1914 28.1004 41.4032 27.5207 41.4147 26.9201L41.4147 26.9187Z" stroke="white" stroke-width="1.5"/>
<path d="M29.8 35.5408L25.7594 35.4645C25.2236 35.4544 24.7138 35.2318 24.342 34.8458C23.9703 34.4598 23.7672 33.9419 23.7773 33.406C23.7874 32.8702 24.01 32.3604 24.396 31.9887C24.782 31.6169 25.2999 31.4138 25.8357 31.4239L29.8763 31.5002C30.4122 31.5103 30.922 31.7329 31.2937 32.1189C31.6655 32.5049 31.8686 33.0228 31.8585 33.5587C31.8484 34.0945 31.6258 34.6043 31.2398 34.976C30.8537 35.3478 30.3358 35.5509 29.8 35.5408Z" stroke="white" stroke-width="1.5"/>
<g clip-path="url(#clip0_1329_5800)">
<path d="M25.448 27.0226L22.1855 27.51L23.126 24.3482C22.7179 23.4356 22.5419 22.4362 22.6137 21.4391C22.8503 18.0861 25.7599 15.5599 29.1129 15.7964C32.4659 16.033 34.9921 18.9426 34.7556 22.2956C34.519 25.6486 31.6094 28.1748 28.2564 27.9383C27.259 27.8694 26.2942 27.5549 25.448 27.0226V27.0226Z" fill="white"/>
<rect x="26.0889" y="20.0884" width="6" height="1" rx="0.5" fill="#08C5A3"/>
<rect x="26.0889" y="22.0884" width="4" height="1" rx="0.5" fill="#08C5A3"/>
</g>
<defs>
<clipPath id="clip0_1329_5800">
<rect width="15.3195" height="15.3195" fill="white" transform="translate(23.3779 13) rotate(16.6042)"/>
</clipPath>
</defs>
</svg>
