<svg width="36" height="47" viewBox="0 0 36 47" fill="none" xmlns="http://www.w3.org/2000/svg">
<g clip-path="url(#clip0_230_469)">
<path d="M7.22363 12.3716C7.22363 12.3716 10.4526 13.9099 12.0861 17.0206C13.7481 20.1904 11.9595 22.2974 13.7481 24.6841C13.7481 24.6841 10.8547 21.6852 10.6014 19.0468C10.345 16.4084 9.14203 14.5065 7.22363 12.3716Z" fill="url(#paint0_linear_230_469)"/>
<path d="M25.7622 39.8555C25.7622 39.8555 31.223 35.6757 31.9036 26.4616C32.5874 17.2505 26.4428 18.4221 24.3978 11.8898C22.3496 5.36068 25.5944 0 25.5944 0C25.5944 0 15.0148 5.5285 17.2339 16.918C19.453 28.3075 14.676 29.8147 9.89588 27.1359C5.11889 24.4572 5.97045 14.407 5.97045 14.407C5.97045 14.407 -1.87724 26.3 7.67675 34.3395C7.67675 34.3395 3.75132 36.5179 0 29.4822C0 29.4822 2.47239 44.7967 15.6447 47.0031C10.2219 44.632 7.76222 37.6025 7.76222 37.6025C7.76222 37.6025 11.2919 42.2702 13.7485 42.3012C16.2082 42.3323 11.6782 38.5659 11.7035 35.2997C11.7035 35.2997 14.9293 40.0327 18 37.6025C21.0707 35.1754 22.8625 31.1541 21.2005 26.0048C21.2005 26.0048 24.9107 33.373 23.2487 37.6025C21.5867 41.832 22.9923 43.8426 26.1928 42.584C26.1928 42.584 25.4298 45.6357 21.7798 47C33.3567 44.9086 36.0032 30.9024 36.0032 30.9024C36.0032 30.9024 33.2712 38.0065 25.7622 39.8555Z" fill="url(#paint1_linear_230_469)"/>
<path opacity="0.1" d="M15.6447 46.9999C14.1854 46.3628 12.9413 45.387 11.9029 44.3025C5.54942 41.2445 0 29.479 0 29.479C0 29.479 2.47239 44.7935 15.6447 46.9999Z" fill="black"/>
<g opacity="0.1">
<path opacity="0.1" d="M25.8323 43.479C25.3227 44.489 24.1704 46.108 21.7803 46.9999C33.3571 44.9085 36.0036 30.9023 36.0036 30.9023C36.0036 30.9023 34.8545 33.8857 32.0054 36.4868C32.0054 36.4868 29.438 41.4839 25.8323 43.479Z" fill="black"/>
</g>
<path opacity="0.1" d="M9.89258 16.2593C10.2598 17.117 10.5036 18.0244 10.6017 19.0437C10.8581 21.6821 13.7484 24.681 13.7484 24.681C12.8556 23.6741 12.0801 21.3838 11.792 19.9729C11.5071 18.5589 9.89258 16.2593 9.89258 16.2593Z" fill="black"/>
</g>
<defs>
<linearGradient id="paint0_linear_230_469" x1="10.4866" y1="12.3724" x2="10.4866" y2="24.683" gradientUnits="userSpaceOnUse">
<stop stop-color="#FBB040"/>
<stop offset="0.1681" stop-color="#FBAD3C"/>
<stop offset="0.3283" stop-color="#FAA431"/>
<stop offset="0.4849" stop-color="#F89620"/>
<stop offset="0.51" stop-color="#F7941D"/>
<stop offset="0.83" stop-color="#F15A29"/>
<stop offset="0.9225" stop-color="#EF3C25"/>
<stop offset="1" stop-color="#ED1C24"/>
</linearGradient>
<linearGradient id="paint1_linear_230_469" x1="18.0004" y1="0" x2="18.0004" y2="47.0007" gradientUnits="userSpaceOnUse">
<stop stop-color="#FB7840"/>
<stop offset="0.1681" stop-color="#FB753C"/>
<stop offset="0.3283" stop-color="#FA6131"/>
<stop offset="0.4849" stop-color="#FE4F37"/>
<stop offset="0.83" stop-color="#F12929"/>
<stop offset="0.9225" stop-color="#EE2323"/>
<stop offset="1" stop-color="#F91010"/>
</linearGradient>
<clipPath id="clip0_230_469">
<rect width="36" height="47" fill="white"/>
</clipPath>
</defs>
</svg>
