<svg width="54" height="54" viewBox="0 0 54 54" fill="none" xmlns="http://www.w3.org/2000/svg">
<g clip-path="url(#clip0_300_2572)">
<path d="M53.7638 26.1562C53.5689 25.5097 53.2217 24.9195 52.7513 24.435C52.3923 24.0477 51.9314 23.7693 51.4215 23.6317C51.6713 24.0266 51.8974 24.4822 52.0662 24.9682C52.2552 25.4644 52.3767 25.9942 52.4138 26.5444C52.4707 27.0197 52.4707 27.5001 52.4138 27.9754C52.3085 27.6231 52.1466 27.2902 51.9345 26.9899C51.5166 26.425 50.9581 25.9794 50.3145 25.6972C49.6017 25.3763 48.7953 25.3304 48.0507 25.5684C47.3061 25.8064 46.6759 26.3116 46.2814 26.9865C46.1127 27.2632 45.9777 27.5636 45.8764 27.8843C41.8872 21.2422 34.7085 16.8446 26.5005 16.8446C26.082 16.8446 25.6669 16.8547 25.2552 16.8784C22.7087 16.8831 20.175 17.2386 17.7255 17.9348C17.5163 16.47 15.5925 13.5 6.75004 13.5L9.45004 21.9713C7.75222 23.3437 6.32499 25.0204 5.24141 26.9156L3.61037e-05 27C3.61037e-05 27 -0.573714 40.5 3.37504 40.5H5.19754C6.43826 42.6031 8.09827 44.4285 10.0744 45.8629L10.125 54H13.77C18.1913 54 20.25 54 20.25 51.4688V50.1525C23.6543 50.7833 27.1463 50.7741 30.5472 50.1255L30.375 51.4688C30.375 54 32.4675 54 36.9225 54H40.5V45.9338C43.6647 43.7396 45.9423 40.4879 46.9227 36.7639C47.115 36.6727 47.3074 36.6829 47.5032 36.6829C47.6989 36.6829 47.8913 36.6728 48.0837 36.6491C48.9308 36.4939 49.7037 36.1631 50.3753 35.694C51.283 35.0518 51.9777 34.1526 52.3699 33.1121C52.4644 32.7983 52.5353 32.4675 52.5825 32.1266L52.5859 32.0929C53.3318 31.2086 53.8414 30.1016 54 28.8832C54.138 27.9522 54.0547 27.0018 53.757 26.109L53.7638 26.1562ZM11.8463 26.1562C12.5176 26.1562 13.1614 26.4229 13.6361 26.8976C14.1108 27.3723 14.3775 28.0162 14.3775 28.6875C14.3775 29.3588 14.1108 30.0027 13.6361 30.4774C13.1614 30.9521 12.5176 31.2188 11.8463 31.2188C11.175 31.2188 10.5311 30.9521 10.0564 30.4774C9.58172 30.0027 9.31503 29.3588 9.31503 28.6875C9.31503 28.0162 9.58172 27.3723 10.0564 26.8976C10.5311 26.4229 11.175 26.1562 11.8463 26.1562ZM19.845 23.625C19.4639 23.7472 19.0518 23.7306 18.6817 23.578C18.3117 23.4254 18.0076 23.1467 17.8234 22.7914C17.766 22.6143 17.7468 22.427 17.7671 22.242C17.7874 22.057 17.8467 21.8783 17.9411 21.7179C18.0355 21.5574 18.1629 21.4189 18.3148 21.3113C18.4667 21.2037 18.6397 21.1295 18.8224 21.0938C21.0422 20.5615 23.3204 20.312 25.6028 20.3513L25.9437 20.3479C28.2117 20.3479 30.4122 20.6179 32.5215 21.1309C32.9468 21.2119 33.4058 21.7451 33.4058 22.3864C33.4056 22.5228 33.384 22.6583 33.3417 22.788C33.2235 23.0068 33.0568 23.1957 32.8544 23.3402C32.652 23.4847 32.4192 23.581 32.1739 23.6216H31.6575C29.7721 23.1676 27.8391 22.941 25.8998 22.9466H25.5994C23.5575 22.9466 21.573 23.193 19.6729 23.6588L19.845 23.625ZM49.2075 33.5138C48.7521 33.845 48.2307 34.0741 47.6787 34.1854L47.25 34.1888V33.75V32.7037C47.8069 33.1256 48.5123 33.3788 49.275 33.3788H49.3459L49.2075 33.5138ZM49.4775 31.2188C49.1638 31.2627 48.8442 31.2052 48.5655 31.0546C48.2868 30.904 48.0636 30.6683 47.9284 30.3818C47.7738 30.087 47.6932 29.759 47.6938 29.4262C47.6944 29.0934 47.7761 28.7657 47.9318 28.4715C48.0922 28.2494 48.3285 28.0938 48.5959 28.0341C48.8633 27.9744 49.1434 28.0147 49.383 28.1475C49.6889 28.2649 49.9519 28.4722 50.1375 28.7421C50.3231 29.0121 50.4224 29.3319 50.4225 29.6595V29.6629C50.4892 30.1308 50.4881 30.606 50.4192 31.0736C50.1057 31.134 49.7864 31.1589 49.4674 31.1479L49.4775 31.2188Z" fill="#093C6A"/>
<path d="M27 10.1254H23.625V9.5516H24.4688V5.87285H23.625L25.4813 4.0166H26.1562V9.5516H27V10.1254Z" fill="#093C6A"/>
<path d="M25.3125 2.53125C25.9775 2.53147 26.636 2.66268 27.2504 2.91738C27.8647 3.17209 28.4228 3.5453 28.8929 4.01571C29.363 4.48612 29.7359 5.04452 29.9902 5.65902C30.2445 6.27352 30.3752 6.93209 30.375 7.59712C30.3748 8.26216 30.2436 8.92065 29.9889 9.53498C29.7342 10.1493 29.361 10.7075 28.8905 11.1776C28.4201 11.6476 27.8617 12.0205 27.2472 12.2748C26.6327 12.5291 25.9742 12.6598 25.3091 12.6596C23.966 12.6592 22.6781 12.1252 21.7287 11.1752C20.7793 10.2251 20.2462 8.93686 20.2466 7.59375C20.2471 6.25064 20.781 4.96273 21.7311 4.01332C22.6811 3.06392 23.9694 2.5308 25.3125 2.53125ZM25.3125 0C23.2985 0 21.367 0.800054 19.9429 2.22416C18.5188 3.64826 17.7188 5.57976 17.7188 7.59375C17.7188 9.60774 18.5188 11.5392 19.9429 12.9633C21.367 14.3874 23.2985 15.1875 25.3125 15.1875C27.3265 15.1875 29.258 14.3874 30.6821 12.9633C32.1062 11.5392 32.9062 9.60774 32.9062 7.59375C32.9062 5.57976 32.1062 3.64826 30.6821 2.22416C29.258 0.800054 27.3265 0 25.3125 0V0Z" fill="#093C6A"/>
</g>
<defs>
<clipPath id="clip0_300_2572">
<rect width="54" height="54" fill="white"/>
</clipPath>
</defs>
</svg>
