<svg width="144" height="174" viewBox="0 0 144 174" fill="none" xmlns="http://www.w3.org/2000/svg">
<g filter="url(#filter0_d_436_8024)">
<circle cx="87" cy="83" r="27" fill="white"/>
</g>
<circle cx="87" cy="83" r="25" fill="url(#paint0_linear_436_8024)"/>
<g clip-path="url(#clip0_436_8024)">
<path d="M92.4562 84.3908C92.4562 84.3908 96.5723 84.1332 97.1176 84.0909C97.6629 84.0485 99.9736 84.262 99.553 87.3445C99.1324 90.4269 98.2929 94.8362 98.2098 95.4785C98.1267 96.1207 97.2855 99.4591 92.2468 98.9456C87.2064 98.4322 83.4278 97.4052 82.1677 97.6188V87.5156C82.1677 87.5156 81.8735 86.7022 84.2673 86.1888C86.6196 83.7486 88.6776 81.9082 89.1398 80.7085C89.6019 79.5087 89.8962 77.0702 89.9377 76.6838C89.9793 76.2975 91.7431 74.9282 93.4653 78.0531C94.4295 80.539 92.6657 83.4503 92.4562 84.3908Z" fill="white"/>
<path d="M79.5218 98.5611H75.9942C75.4605 98.5611 75.0283 98.1205 75.0283 97.5765V86.36C75.0283 85.8161 75.4605 85.3755 75.9942 85.3755H79.5218C80.0554 85.3755 80.4876 85.8161 80.4876 86.36V97.5765C80.4876 98.1205 80.0554 98.5611 79.5218 98.5611Z" fill="white"/>
<path d="M92.9954 67.5011L91.4045 69.0432C91.3114 69.133 91.2682 69.2652 91.2881 69.394L91.6322 71.6037C91.6838 71.9308 91.3447 72.1748 91.0587 72.0172L89.1287 70.9513C89.0156 70.8886 88.8793 70.8869 88.7646 70.9462L86.808 71.963C86.5187 72.1138 86.1863 71.8596 86.2461 71.5359L86.6451 69.3347C86.6683 69.2059 86.6284 69.0737 86.537 68.9805L84.9843 67.3977C84.7549 67.1639 84.8879 66.764 85.2088 66.7199L87.3848 66.4267C87.5128 66.4098 87.6242 66.3302 87.6824 66.2132L88.6782 64.2187C88.8261 63.9238 89.2401 63.9289 89.3797 64.2272L90.3256 66.2471C90.3805 66.3657 90.4902 66.4488 90.6182 66.4691L92.7859 66.8182C93.1068 66.869 93.2298 67.2723 92.9954 67.5011Z" fill="white"/>
<path d="M78.8068 76.6619L76.762 77.477C76.6423 77.5245 76.5526 77.6296 76.5243 77.7583L76.0239 79.9376C75.9508 80.2596 75.5468 80.3544 75.3407 80.1003L73.9476 78.3701C73.8661 78.2684 73.7398 78.2142 73.6118 78.226L71.4258 78.4125C71.1033 78.4396 70.8888 78.0786 71.0634 77.8007L72.247 75.9163C72.3168 75.8062 72.3284 75.6672 72.2786 75.5469L71.4258 73.4846C71.2994 73.1796 71.572 72.861 71.8846 72.944L74.0091 73.51C74.1338 73.5439 74.2668 73.5117 74.3632 73.4253L76.0239 71.9612C76.27 71.7442 76.6507 71.9103 76.6706 72.2391L76.8003 74.4725C76.8086 74.603 76.8784 74.7216 76.9881 74.7894L78.8666 75.9468C79.1442 76.1197 79.1077 76.5416 78.8068 76.6619Z" fill="white"/>
<path d="M105.611 77.3297L103.417 77.35C103.289 77.3517 103.167 77.4178 103.096 77.5263L101.869 79.3819C101.688 79.6564 101.277 79.5988 101.174 79.2853L100.476 77.1636C100.434 77.0399 100.336 76.9433 100.213 76.9078L98.1036 76.2909C97.7927 76.1994 97.7179 75.7842 97.9789 75.5877L99.7427 74.2557C99.8457 74.1778 99.9056 74.0524 99.9006 73.9219L99.8241 71.685C99.8125 71.3546 100.178 71.1546 100.443 71.3461L102.231 72.6442C102.336 72.7204 102.471 72.7391 102.592 72.6933L104.655 71.9274C104.959 71.8138 105.258 72.107 105.162 72.4222L104.504 74.5574C104.466 74.6828 104.489 74.8183 104.569 74.9217L105.92 76.6841C106.116 76.945 105.935 77.3263 105.611 77.3297Z" fill="white"/>
</g>
<defs>
<filter id="filter0_d_436_8024" x="0" y="0" width="174" height="174" filterUnits="userSpaceOnUse" color-interpolation-filters="sRGB">
<feFlood flood-opacity="0" result="BackgroundImageFix"/>
<feColorMatrix in="SourceAlpha" type="matrix" values="0 0 0 0 0 0 0 0 0 0 0 0 0 0 0 0 0 0 127 0" result="hardAlpha"/>
<feOffset dy="4"/>
<feGaussianBlur stdDeviation="30"/>
<feComposite in2="hardAlpha" operator="out"/>
<feColorMatrix type="matrix" values="0 0 0 0 0 0 0 0 0 0 0 0 0 0 0 0 0 0 0.1 0"/>
<feBlend mode="normal" in2="BackgroundImageFix" result="effect1_dropShadow_436_8024"/>
<feBlend mode="normal" in="SourceGraphic" in2="effect1_dropShadow_436_8024" result="shape"/>
</filter>
<linearGradient id="paint0_linear_436_8024" x1="87" y1="58" x2="87" y2="108" gradientUnits="userSpaceOnUse">
<stop stop-color="#1CE1CA"/>
<stop offset="1" stop-color="#11B496"/>
</linearGradient>
<clipPath id="clip0_436_8024">
<rect width="35" height="35" fill="white" transform="translate(71 64)"/>
</clipPath>
</defs>
</svg>
