<svg width="68" height="55" viewBox="0 0 68 55" fill="none" xmlns="http://www.w3.org/2000/svg">
<g clip-path="url(#clip0_300_2564)">
<path d="M66.0899 37.8752H64.4199V26.3051C64.4199 24.9458 63.8876 23.64 62.9482 22.6768L52.5211 11.9843C51.5817 11.0211 50.3083 10.4752 48.9828 10.4752H44.3798V5.3377C44.3798 2.50137 42.1357 0.200195 39.3698 0.200195H12.6497C9.88375 0.200195 7.63968 2.50137 7.63968 5.3377V10.4752H1.79466C1.33541 10.4752 0.959656 10.8605 0.959656 11.3314V13.0439C0.959656 13.5149 1.33541 13.9002 1.79466 13.9002H30.1848C30.644 13.9002 31.0198 14.2855 31.0198 14.7564V16.4689C31.0198 16.9399 30.644 17.3252 30.1848 17.3252H5.13467C4.67542 17.3252 4.29967 17.7105 4.29967 18.1814V19.8939C4.29967 20.3649 4.67542 20.7502 5.13467 20.7502H26.8448C27.304 20.7502 27.6798 21.1355 27.6798 21.6064V23.3189C27.6798 23.7899 27.304 24.1752 26.8448 24.1752H1.79466C1.33541 24.1752 0.959656 24.5605 0.959656 25.0314V26.7439C0.959656 27.2149 1.33541 27.6002 1.79466 27.6002H23.5047C23.964 27.6002 24.3397 27.9855 24.3397 28.4564V30.1689C24.3397 30.6399 23.964 31.0252 23.5047 31.0252H7.63968V44.7252C7.63968 50.3979 12.1278 55.0002 17.6597 55.0002C23.1916 55.0002 27.6798 50.3979 27.6798 44.7252H41.0398C41.0398 50.3979 45.528 55.0002 51.0598 55.0002C56.5917 55.0002 61.0799 50.3979 61.0799 44.7252H66.0899C67.0084 44.7252 67.7599 43.9546 67.7599 43.0127V39.5877C67.7599 38.6458 67.0084 37.8752 66.0899 37.8752ZM17.6597 49.8627C14.8938 49.8627 12.6497 47.5615 12.6497 44.7252C12.6497 41.8889 14.8938 39.5877 17.6597 39.5877C20.4257 39.5877 22.6697 41.8889 22.6697 44.7252C22.6697 47.5615 20.4257 49.8627 17.6597 49.8627ZM51.0598 49.8627C48.2939 49.8627 46.0498 47.5615 46.0498 44.7252C46.0498 41.8889 48.2939 39.5877 51.0598 39.5877C53.8258 39.5877 56.0699 41.8889 56.0699 44.7252C56.0699 47.5615 53.8258 49.8627 51.0598 49.8627ZM59.4099 27.6002H44.3798V15.6127H48.9828L59.4099 26.3051V27.6002Z" fill="#093C6A"/>
</g>
<defs>
<clipPath id="clip0_300_2564">
<rect width="66.8003" height="54.8" fill="white" transform="translate(0.959656 0.200195)"/>
</clipPath>
</defs>
</svg>
