<svg width="144" height="174" viewBox="0 0 144 174" fill="none" xmlns="http://www.w3.org/2000/svg">
<g filter="url(#filter0_d_432_8014)">
<circle cx="87" cy="83" r="27" fill="white"/>
</g>
<path fill-rule="evenodd" clip-rule="evenodd" d="M87 108C73.1922 108 62 96.8078 62 83C62 69.1922 73.1922 58 87 58C100.808 58 112 69.1922 112 83C112 96.8078 100.808 108 87 108ZM87.4375 94.4453C89.0438 95.5563 91.0813 96.2172 93.2875 96.2172C93.8359 96.2172 94.3781 96.1766 94.9109 96.0969C95.0938 96.1719 95.2703 96.2641 95.4875 96.3891C95.9562 96.6641 96.5828 97.0859 97.3625 97.6547C98.0016 98.1219 98.9062 97.6703 98.9062 96.8844V94.6016C99.2344 94.3891 99.5438 94.1594 99.8359 93.9109C101.602 92.4141 102.625 90.3672 102.625 88.1719C102.625 86.7266 102.188 85.375 101.419 84.2078C101.176 85.0367 100.848 85.8379 100.439 86.5984C100.602 87.1031 100.688 87.6297 100.688 88.1719C100.688 89.7875 99.925 91.3125 98.575 92.4562C98.2267 92.7505 97.8516 93.0115 97.4547 93.2359C97.3076 93.319 97.1852 93.4395 97.0999 93.5853C97.0145 93.731 96.9693 93.8967 96.9688 94.0656V95.0406C96.0422 94.4469 95.4062 94.1672 94.9219 94.1672C94.8674 94.1674 94.8131 94.1721 94.7594 94.1813C93.4019 94.4083 92.0102 94.3173 90.6938 93.9156C89.6275 94.1925 88.538 94.3704 87.4391 94.4469L87.4375 94.4453ZM75.7719 89.8797C76.2871 90.3156 76.8322 90.7151 77.4031 91.075V94.9688C77.4031 95.9531 78.5359 96.5156 79.3344 95.9312C81.5375 94.3219 83.0688 93.4125 83.4516 93.3219C84.3359 93.4625 85.2391 93.5328 86.1516 93.5328C94.2766 93.5328 100.93 87.8969 100.93 80.8453C100.93 73.7922 94.275 68.1562 86.1516 68.1562C78.0281 68.1562 71.375 73.7922 71.375 80.8438C71.375 84.2969 72.9844 87.5172 75.7719 89.8797ZM83.5047 90.9203C82.7188 90.9203 81.5703 91.475 79.8266 92.6453V90.4C79.8258 90.1886 79.769 89.9812 79.6619 89.799C79.5549 89.6167 79.4014 89.4661 79.2172 89.3625C78.5551 88.9878 77.9294 88.5521 77.3484 88.0609C75.0781 86.1406 73.7969 83.5719 73.7969 80.8438C73.7969 75.2031 79.2906 70.55 86.1516 70.55C93.0141 70.55 98.5063 75.2031 98.5063 80.8438C98.5063 86.4844 93.0141 91.1391 86.1516 91.1391C85.3234 91.1391 84.5062 91.0703 83.7078 90.9359C83.6407 90.9251 83.5727 90.9199 83.5047 90.9203ZM79.8531 83.2391C80.9234 83.2391 81.7906 82.3797 81.7906 81.3234C81.7906 80.2656 80.9234 79.4078 79.8531 79.4078C78.7828 79.4078 77.9156 80.2656 77.9156 81.3234C77.9156 82.3813 78.7828 83.2391 79.8531 83.2391ZM86.1516 83.2391C87.2219 83.2391 88.0891 82.3797 88.0891 81.3234C88.0891 80.2656 87.2219 79.4078 86.1516 79.4078C85.0812 79.4078 84.2141 80.2656 84.2141 81.3234C84.2141 82.3813 85.0812 83.2391 86.1516 83.2391ZM92.45 83.2391C93.5203 83.2391 94.3875 82.3797 94.3875 81.3234C94.3875 80.2656 93.5203 79.4078 92.45 79.4078C91.3797 79.4078 90.5125 80.2656 90.5125 81.3234C90.5125 82.3813 91.3797 83.2391 92.45 83.2391Z" fill="url(#paint0_linear_432_8014)"/>
<defs>
<filter id="filter0_d_432_8014" x="0" y="0" width="174" height="174" filterUnits="userSpaceOnUse" color-interpolation-filters="sRGB">
<feFlood flood-opacity="0" result="BackgroundImageFix"/>
<feColorMatrix in="SourceAlpha" type="matrix" values="0 0 0 0 0 0 0 0 0 0 0 0 0 0 0 0 0 0 127 0" result="hardAlpha"/>
<feOffset dy="4"/>
<feGaussianBlur stdDeviation="30"/>
<feComposite in2="hardAlpha" operator="out"/>
<feColorMatrix type="matrix" values="0 0 0 0 0 0 0 0 0 0 0 0 0 0 0 0 0 0 0.1 0"/>
<feBlend mode="normal" in2="BackgroundImageFix" result="effect1_dropShadow_432_8014"/>
<feBlend mode="normal" in="SourceGraphic" in2="effect1_dropShadow_432_8014" result="shape"/>
</filter>
<linearGradient id="paint0_linear_432_8014" x1="87" y1="58" x2="87" y2="108" gradientUnits="userSpaceOnUse">
<stop stop-color="#FFAF66"/>
<stop offset="0.619792" stop-color="#FF7D04"/>
</linearGradient>
</defs>
</svg>
