<svg width="41" height="40" viewBox="0 0 41 40" fill="none" xmlns="http://www.w3.org/2000/svg">
<path d="M40.4147 20C40.4147 30.7698 31.6887 39.5 20.9251 39.5C10.1616 39.5 1.43555 30.7698 1.43555 20C1.43555 9.2302 10.1616 0.5 20.9251 0.5C31.6887 0.5 40.4147 9.2302 40.4147 20Z" stroke="#11B6EF"/>
<path d="M20.9249 16.8753C19.2055 16.8753 17.8023 18.2792 17.8023 19.9995C17.8023 21.7198 19.2055 23.1237 20.9249 23.1237C22.6443 23.1237 24.0475 21.7198 24.0475 19.9995C24.0475 18.2792 22.6443 16.8753 20.9249 16.8753ZM30.2904 19.9995C30.2904 18.7058 30.3021 17.4237 30.2295 16.1323C30.1568 14.6323 29.8148 13.3011 28.7185 12.2042C27.6199 11.105 26.2917 10.7652 24.7924 10.6925C23.4994 10.6198 22.218 10.6316 20.9273 10.6316C19.6342 10.6316 18.3528 10.6198 17.0621 10.6925C15.5629 10.7652 14.2323 11.1073 13.136 12.2042C12.0374 13.3034 11.6977 14.6323 11.6251 16.1323C11.5525 17.4261 11.5642 18.7081 11.5642 19.9995C11.5642 21.2909 11.5525 22.5753 11.6251 23.8667C11.6977 25.3667 12.0397 26.698 13.136 27.7948C14.2347 28.8941 15.5629 29.2339 17.0621 29.3066C18.3552 29.3792 19.6365 29.3675 20.9273 29.3675C22.2203 29.3675 23.5017 29.3792 24.7924 29.3066C26.2917 29.2339 27.6222 28.8917 28.7185 27.7948C29.8172 26.6956 30.1568 25.3667 30.2295 23.8667C30.3044 22.5753 30.2904 21.2933 30.2904 19.9995ZM20.9249 24.8066C18.2662 24.8066 16.1204 22.6597 16.1204 19.9995C16.1204 17.3394 18.2662 15.1925 20.9249 15.1925C23.5837 15.1925 25.7295 17.3394 25.7295 19.9995C25.7295 22.6597 23.5837 24.8066 20.9249 24.8066ZM25.9262 16.1183C25.3055 16.1183 24.8042 15.6167 24.8042 14.9956C24.8042 14.3745 25.3055 13.873 25.9262 13.873C26.547 13.873 27.0483 14.3745 27.0483 14.9956C27.0485 15.1431 27.0196 15.2892 26.9633 15.4255C26.9069 15.5617 26.8243 15.6856 26.7201 15.7899C26.6158 15.8942 26.4921 15.9768 26.3559 16.0332C26.2196 16.0895 26.0736 16.1185 25.9262 16.1183Z" fill="#11B6EF"/>
</svg>
