<svg width="18" height="18" viewBox="0 0 18 18" fill="none" xmlns="http://www.w3.org/2000/svg">
<path d="M5.25 4.5C5.44891 4.5 5.63968 4.42098 5.78033 4.28033C5.92098 4.13968 6 3.94891 6 3.75C6 3.55109 5.92098 3.36032 5.78033 3.21967C5.63968 3.07902 5.44891 3 5.25 3H3.75C3.55109 3 3.36032 3.07902 3.21967 3.21967C3.07902 3.36032 3 3.55109 3 3.75V14.25C3 14.4489 3.07902 14.6397 3.21967 14.7803C3.36032 14.921 3.55109 15 3.75 15H5.25C5.44891 15 5.63968 14.921 5.78033 14.7803C5.92098 14.6397 6 14.4489 6 14.25C6 14.0511 5.92098 13.8603 5.78033 13.7197C5.63968 13.579 5.44891 13.5 5.25 13.5H4.5V4.5H5.25ZM15.615 8.565L13.5 5.565C13.3853 5.40331 13.2112 5.29361 13.0159 5.25988C12.8205 5.22615 12.6198 5.27113 12.4575 5.385C12.3764 5.44184 12.3073 5.51418 12.2543 5.59785C12.2013 5.68152 12.1654 5.77487 12.1487 5.87249C12.1319 5.97011 12.1347 6.07008 12.1568 6.16663C12.1789 6.26318 12.2199 6.35439 12.2775 6.435L13.5675 8.25H7.5C7.30109 8.25 7.11032 8.32902 6.96967 8.46967C6.82902 8.61032 6.75 8.80109 6.75 9C6.75 9.19891 6.82902 9.38968 6.96967 9.53033C7.11032 9.67098 7.30109 9.75 7.5 9.75H13.5L12.15 11.55C12.0909 11.6288 12.0479 11.7185 12.0235 11.8139C11.999 11.9093 11.9936 12.0086 12.0075 12.1061C12.0215 12.2036 12.0545 12.2974 12.1046 12.3821C12.1548 12.4669 12.2212 12.5409 12.3 12.6C12.4298 12.6974 12.5877 12.75 12.75 12.75C12.8664 12.75 12.9813 12.7229 13.0854 12.6708C13.1896 12.6187 13.2801 12.5431 13.35 12.45L15.6 9.45C15.6961 9.32315 15.7493 9.16904 15.752 9.00995C15.7547 8.85086 15.7067 8.69503 15.615 8.565V8.565Z" fill="#4F4F4F"/>
</svg>
