<svg width="20" height="20" viewBox="0 0 20 20" fill="none" xmlns="http://www.w3.org/2000/svg">
<path d="M16 9.2802C16 8.4402 15.32 8.0002 14.4 8.0002H11.72C11.92 7.2802 12 6.6002 12 6.0002C12 3.6802 11.36 3.2002 10.8 3.2002C10.44 3.2002 10.16 3.2402 9.79999 3.4402C9.67999 3.5202 9.63999 3.6002 9.59999 3.7202L9.19999 5.8802C8.75999 7.0002 7.67999 8.0002 6.79999 8.6802V14.4002C7.11999 14.4002 7.43999 14.5602 7.83999 14.7602C8.27999 14.9602 8.71999 15.2002 9.19999 15.2002H13C13.8 15.2002 14.4 14.5602 14.4 14.0002C14.4 13.8802 14.4 13.8002 14.36 13.7202C14.84 13.5202 15.2 13.1202 15.2 12.6002C15.2 12.3602 15.16 12.1602 15.08 11.9602C15.4 11.7602 15.68 11.4002 15.68 11.0002C15.68 10.7602 15.56 10.5202 15.44 10.3202C15.76 10.0802 16 9.6802 16 9.2802ZM15.16 9.2802C15.16 9.8002 14.64 9.8402 14.56 10.0802C14.48 10.3602 14.88 10.4402 14.88 10.9202C14.88 11.4002 14.28 11.4002 14.2 11.6802C14.12 12.0002 14.4 12.0802 14.4 12.5602V12.6402C14.32 13.0402 13.72 13.0802 13.6 13.2402C13.48 13.4402 13.6 13.5202 13.6 13.9602C13.6 14.2002 13.32 14.3602 13 14.3602H9.19999C8.87999 14.3602 8.55999 14.2002 8.15999 14.0002C7.83999 13.8402 7.51999 13.6802 7.19999 13.6002V9.4002C8.19999 8.6402 9.47999 7.5202 9.95999 6.1202V6.0402L10.32 4.0402C10.48 4.0002 10.6 4.0002 10.8 4.0002C10.88 4.0002 11.2 4.4802 11.2 6.0002C11.2 6.6002 11.08 7.2402 10.88 8.0002H10.8C10.56 8.0002 10.4 8.1602 10.4 8.4002C10.4 8.6402 10.56 8.8002 10.8 8.8002H14.4C14.8 8.8002 15.16 9.0002 15.16 9.2802Z" fill="#11B6EF"/>
<path d="M6.40001 15.2H4.00001C3.56001 15.2 3.20001 14.84 3.20001 14.4V8.8C3.20001 8.36 3.56001 8 4.00001 8H6.40001C6.84001 8 7.20001 8.36 7.20001 8.8V14.4C7.20001 14.84 6.84001 15.2 6.40001 15.2ZM4.00001 8.8V14.4H6.40001V8.8H4.00001Z" fill="#11B6EF"/>
</svg>
