<svg width="18" height="18" viewBox="0 0 18 18" fill="none" xmlns="http://www.w3.org/2000/svg">
<path d="M12.96 6.54C13.0653 6.64547 13.1245 6.78844 13.1245 6.9375C13.1245 7.08656 13.0653 7.22953 12.96 7.335L11.46 8.835C11.3545 8.94034 11.2116 8.99951 11.0625 8.99951C10.9134 8.99951 10.7705 8.94034 10.665 8.835L9.915 8.085C9.85974 8.0335 9.81541 7.9714 9.78466 7.9024C9.75392 7.8334 9.73739 7.75892 9.73606 7.68339C9.73472 7.60786 9.74862 7.53284 9.77691 7.4628C9.8052 7.39276 9.84731 7.32914 9.90072 7.27572C9.95414 7.22231 10.0178 7.1802 10.0878 7.15191C10.1578 7.12362 10.2329 7.10972 10.3084 7.11106C10.3839 7.11239 10.4584 7.12892 10.5274 7.15966C10.5964 7.19041 10.6585 7.23474 10.71 7.29L11.0625 7.6425L12.165 6.54C12.2705 6.43466 12.4134 6.37549 12.5625 6.37549C12.7116 6.37549 12.8545 6.43466 12.96 6.54ZM12.96 11.46C13.0153 11.4085 13.0596 11.3464 13.0903 11.2774C13.1211 11.2084 13.1376 11.1339 13.1389 11.0584C13.1403 10.9829 13.1264 10.9078 13.0981 10.8378C13.0698 10.7678 13.0277 10.7041 12.9743 10.6507C12.9209 10.5973 12.8572 10.5552 12.7872 10.5269C12.7172 10.4986 12.6421 10.4847 12.5666 10.4861C12.4911 10.4874 12.4166 10.5039 12.3476 10.5347C12.2786 10.5654 12.2165 10.6097 12.165 10.665L11.0625 11.7675L10.71 11.415C10.6585 11.3597 10.5964 11.3154 10.5274 11.2847C10.4584 11.2539 10.3839 11.2374 10.3084 11.2361C10.2329 11.2347 10.1578 11.2486 10.0878 11.2769C10.0178 11.3052 9.95414 11.3473 9.90072 11.4007C9.84731 11.4541 9.8052 11.5178 9.77691 11.5878C9.74862 11.6578 9.73472 11.7329 9.73606 11.8084C9.73739 11.8839 9.75392 11.9584 9.78466 12.0274C9.81541 12.0964 9.85974 12.1585 9.915 12.21L10.665 12.96C10.7705 13.0653 10.9134 13.1245 11.0625 13.1245C11.2116 13.1245 11.3545 13.0653 11.46 12.96L12.96 11.46ZM5.25 7.6875C5.25 7.53832 5.30926 7.39524 5.41475 7.28975C5.52024 7.18426 5.66332 7.125 5.8125 7.125H8.4375C8.58668 7.125 8.72976 7.18426 8.83525 7.28975C8.94074 7.39524 9 7.53832 9 7.6875C9 7.83668 8.94074 7.97976 8.83525 8.08525C8.72976 8.19074 8.58668 8.25 8.4375 8.25H5.8125C5.66332 8.25 5.52024 8.19074 5.41475 8.08525C5.30926 7.97976 5.25 7.83668 5.25 7.6875ZM5.8125 11.25C5.66332 11.25 5.52024 11.3093 5.41475 11.4148C5.30926 11.5202 5.25 11.6633 5.25 11.8125C5.25 11.9617 5.30926 12.1048 5.41475 12.2102C5.52024 12.3157 5.66332 12.375 5.8125 12.375H8.4375C8.58668 12.375 8.72976 12.3157 8.83525 12.2102C8.94074 12.1048 9 11.9617 9 11.8125C9 11.6633 8.94074 11.5202 8.83525 11.4148C8.72976 11.3093 8.58668 11.25 8.4375 11.25H5.8125ZM11.9895 3C11.9434 2.58749 11.7468 2.20645 11.4375 1.92973C11.1281 1.65301 10.7276 1.50001 10.3125 1.5H7.6875C7.27242 1.50001 6.87191 1.65301 6.56253 1.92973C6.25316 2.20645 6.05662 2.58749 6.0105 3H4.6875C4.23995 3 3.81073 3.17779 3.49426 3.49426C3.17779 3.81072 3 4.23995 3 4.6875V14.8125C3 15.2601 3.17779 15.6893 3.49426 16.0057C3.81073 16.3222 4.23995 16.5 4.6875 16.5H13.3125C13.5341 16.5 13.7535 16.4564 13.9583 16.3715C14.163 16.2867 14.349 16.1624 14.5057 16.0057C14.6624 15.849 14.7867 15.663 14.8715 15.4583C14.9564 15.2535 15 15.0341 15 14.8125V4.6875C15 4.46589 14.9564 4.24646 14.8715 4.04172C14.7867 3.83698 14.6624 3.65096 14.5057 3.49426C14.349 3.33756 14.163 3.21326 13.9583 3.12845C13.7535 3.04365 13.5341 3 13.3125 3H11.9895ZM7.6875 4.875H10.3125C10.8975 4.875 11.4128 4.57725 11.7157 4.125H13.3125C13.4617 4.125 13.6048 4.18426 13.7102 4.28975C13.8157 4.39524 13.875 4.53832 13.875 4.6875V14.8125C13.875 14.9617 13.8157 15.1048 13.7102 15.2102C13.6048 15.3157 13.4617 15.375 13.3125 15.375H4.6875C4.53832 15.375 4.39524 15.3157 4.28975 15.2102C4.18426 15.1048 4.125 14.9617 4.125 14.8125V4.6875C4.125 4.53832 4.18426 4.39524 4.28975 4.28975C4.39524 4.18426 4.53832 4.125 4.6875 4.125H6.28425C6.58725 4.57725 7.1025 4.875 7.6875 4.875ZM7.6875 2.625H10.3125C10.4617 2.625 10.6048 2.68426 10.7102 2.78975C10.8157 2.89524 10.875 3.03832 10.875 3.1875C10.875 3.33668 10.8157 3.47976 10.7102 3.58525C10.6048 3.69074 10.4617 3.75 10.3125 3.75H7.6875C7.53832 3.75 7.39524 3.69074 7.28975 3.58525C7.18426 3.47976 7.125 3.33668 7.125 3.1875C7.125 3.03832 7.18426 2.89524 7.28975 2.78975C7.39524 2.68426 7.53832 2.625 7.6875 2.625Z" fill="#4F4F4F"/>
</svg>
