<svg width="24" height="25" viewBox="0 0 24 25" fill="none" xmlns="http://www.w3.org/2000/svg">
<path d="M23.5 12.0062C23.5 18.3612 18.351 23.5125 12 23.5125C5.64897 23.5125 0.5 18.3612 0.5 12.0062C0.5 5.65128 5.64897 0.5 12 0.5C18.351 0.5 23.5 5.65128 23.5 12.0062Z" stroke="#093C6A"/>
<g clip-path="url(#clip0_421_8585)">
<path d="M13.1254 9.87401C13.576 9.98521 13.964 10.2709 14.204 10.6681C14.444 11.0654 14.5163 11.5417 14.4051 11.9923C14.3681 12.1425 14.3922 12.3013 14.4722 12.4337C14.5522 12.5661 14.6815 12.6614 14.8317 12.6984C14.9819 12.7355 15.1407 12.7114 15.2731 12.6314C15.4055 12.5514 15.5008 12.422 15.5378 12.2718C15.7232 11.5208 15.6026 10.7269 15.2026 10.0648C14.8026 9.40273 14.1559 8.92665 13.4049 8.74132C13.2547 8.70425 13.0959 8.72838 12.9635 8.80838C12.8311 8.88838 12.7359 9.0177 12.6988 9.16791C12.6617 9.31811 12.6859 9.47689 12.7659 9.60931C12.8459 9.74173 12.9752 9.83694 13.1254 9.87401Z" fill="#093C6A"/>
<path d="M13.6844 7.60949C14.7358 7.86895 15.6411 8.53546 16.2011 9.4624C16.7611 10.3893 16.93 11.5008 16.6705 12.5522C16.6334 12.7024 16.6575 12.8612 16.7375 12.9936C16.8175 13.126 16.9469 13.2212 17.0971 13.2583C17.2473 13.2954 17.4061 13.2713 17.5385 13.1913C17.6709 13.1113 17.7661 12.9819 17.8032 12.8317C18.1368 11.4799 17.9197 10.0509 17.1997 8.85912C16.4797 7.66734 15.3157 6.8104 13.9639 6.4768C13.8137 6.43973 13.6549 6.46385 13.5225 6.54385C13.3901 6.62385 13.2949 6.75318 13.2578 6.90338C13.2207 7.05359 13.2449 7.21236 13.3249 7.34478C13.4049 7.4772 13.5342 7.57242 13.6844 7.60949ZM16.9754 15.5775C16.9667 15.4789 16.933 15.3842 16.8776 15.3022C16.8221 15.2202 16.7467 15.1536 16.6585 15.1088L13.4519 13.4943C13.3648 13.4507 13.2682 13.4295 13.1708 13.4328C13.0734 13.436 12.9784 13.4636 12.8945 13.513C12.797 13.5671 12.79 13.5713 12.2485 14.1828C11.166 13.3185 10.4297 12.0942 10.1739 10.7327C10.9826 10.5477 10.9882 10.5491 11.0828 10.4824C11.1656 10.431 11.2342 10.3598 11.2824 10.2751C11.3306 10.1904 11.3568 10.0951 11.3587 9.99766L11.4115 6.44777C11.4129 6.34879 11.3891 6.25109 11.3423 6.16386C11.2955 6.07663 11.2273 6.00275 11.144 5.94916C11.0234 5.86928 10.8953 5.80143 10.7614 5.74659C10.6265 5.67808 10.4851 5.62306 10.3393 5.58234C9.64838 5.41184 8.918 5.52279 8.30887 5.89079C7.69974 6.25879 7.26175 6.8537 7.09124 7.54463C6.52364 9.85759 6.89648 12.3012 8.128 14.3397C9.35951 16.3782 11.3492 17.845 13.6607 18.4186C14.0028 18.503 14.3582 18.5193 14.7065 18.4663C15.0549 18.4134 15.3895 18.2924 15.6911 18.1102C15.9927 17.9279 16.2555 17.6881 16.4644 17.4043C16.6733 17.1206 16.8243 16.7984 16.9087 16.4563C16.9445 16.3122 16.9686 16.1655 16.981 16.0175C16.9919 15.871 16.99 15.7238 16.9754 15.5775Z" fill="#093C6A"/>
</g>
<defs>
<clipPath id="clip0_421_8585">
<rect width="14" height="14" fill="white" transform="translate(6.88098 3.52734) rotate(13.8621)"/>
</clipPath>
</defs>
</svg>
