<svg width="13" height="13" viewBox="0 0 13 13" fill="none" xmlns="http://www.w3.org/2000/svg">
<path d="M12.3024 4.34278L8.58319 3.80225L6.92059 0.431646C6.87518 0.339361 6.80047 0.264654 6.70819 0.219244C6.47674 0.104986 6.19549 0.200201 6.07977 0.431646L4.41717 3.80225L0.697927 4.34278C0.595388 4.35743 0.501638 4.40577 0.42986 4.47901C0.343085 4.5682 0.295268 4.68819 0.296916 4.81262C0.298564 4.93705 0.349542 5.05573 0.438649 5.14259L3.12957 7.76612L2.49383 11.4707C2.47892 11.5569 2.48846 11.6455 2.52135 11.7266C2.55425 11.8076 2.6092 11.8778 2.67996 11.9292C2.75073 11.9806 2.83447 12.0111 2.92171 12.0173C3.00894 12.0236 3.09618 12.0052 3.17352 11.9644L6.50018 10.2153L9.82684 11.9644C9.91766 12.0127 10.0231 12.0288 10.1242 12.0112C10.3791 11.9673 10.5505 11.7256 10.5065 11.4707L9.87079 7.76612L12.5617 5.14259C12.635 5.07081 12.6833 4.97706 12.6979 4.87452C12.7375 4.61817 12.5588 4.38087 12.3024 4.34278Z" fill="#F05A05"/>
</svg>
