<svg width="28" height="28" viewBox="0 0 28 28" fill="none" xmlns="http://www.w3.org/2000/svg">
<path d="M3.78838 2.77221L24.8474 12.8502C25.06 12.952 25.2395 13.1119 25.3651 13.3114C25.4907 13.5109 25.5574 13.7419 25.5574 13.9777C25.5574 14.2135 25.4907 14.4445 25.3651 14.644C25.2395 14.8435 25.06 15.0034 24.8474 15.1052L3.78838 25.1832C3.57241 25.2868 3.33123 25.3261 3.09357 25.2964C2.85592 25.2667 2.6318 25.1693 2.44791 25.0157C2.26402 24.8622 2.12812 24.659 2.05638 24.4304C1.98465 24.2018 1.9801 23.9573 2.04329 23.7262L4.15019 15.9982C4.17598 15.9035 4.22907 15.8185 4.30283 15.7538C4.37659 15.689 4.46776 15.6474 4.56498 15.6342L14.7697 14.2472C14.8122 14.2412 14.8525 14.2244 14.8866 14.1983C14.9208 14.1722 14.9476 14.1377 14.9646 14.0982L14.9826 14.0352C14.9904 13.9794 14.9792 13.9225 14.9507 13.8739C14.9223 13.8252 14.8782 13.7876 14.8256 13.7672L14.7707 13.7522L4.57597 12.3662C4.47894 12.3528 4.38798 12.3111 4.31441 12.2464C4.24085 12.1817 4.18791 12.0968 4.16219 12.0022L2.04329 4.22921C1.9801 3.99808 1.98465 3.75364 2.05638 3.52501C2.12812 3.29639 2.26402 3.09321 2.44791 2.93968C2.6318 2.78615 2.85592 2.68874 3.09357 2.65905C3.33123 2.62936 3.57241 2.66864 3.78838 2.77221Z" fill="#11B6EF"/>
</svg>
