<svg width="50" height="50" viewBox="0 0 50 50" fill="none" xmlns="http://www.w3.org/2000/svg">
<circle cx="25" cy="25" r="25" fill="#E0E0E0"/>
<path d="M22.25 13.75H27.25V16.25H22.25V13.75ZM9.75 20H14.75V22.5H9.75V20ZM9.75 30H14.75V32.5H9.75V30ZM8.5 25H13.4875V27.5H8.5V25ZM33.1338 18.3837L31.3662 16.6163L29.2325 18.75C27.8801 17.9327 26.3302 17.5005 24.75 17.5C19.9263 17.5 16 21.4262 16 26.25C16 31.0737 19.9263 35 24.75 35C29.5737 35 33.5 31.0737 33.5 26.25C33.4988 24.0576 32.6707 21.9463 31.1813 20.3375L33.1338 18.3837ZM26 27.5H23.5V21.1975H26V27.5Z" fill="#171717"/>
</svg>
