<svg width="60" height="60" viewBox="0 0 60 60" fill="none" xmlns="http://www.w3.org/2000/svg">
<circle cx="29.5" cy="23.5" r="21.5" fill="#11B6EF"/>
<path d="M25.3006 27.2598H28.0714V40.6826C28.0714 40.8572 28.2064 41 28.3714 41H30.6211C30.7861 41 30.9211 40.8572 30.9211 40.6826V27.2598H33.6994C33.9507 27.2598 34.0894 26.9543 33.9357 26.748L29.7362 21.1218C29.7082 21.0839 29.6723 21.0532 29.6314 21.0321C29.5905 21.011 29.5455 21 29.5 21C29.4545 21 29.4095 21.011 29.3686 21.0321C29.3277 21.0532 29.2918 21.0839 29.2638 21.1218L25.0643 26.744C24.9106 26.9543 25.0493 27.2598 25.3006 27.2598Z" fill="white"/>
<path d="M22.2491 17.8873H23.3889V12.0188H25.6328V11.1127H20V12.0188H22.2491V17.8873Z" fill="white"/>
<path d="M29.3016 18C31.4234 18 32.7413 16.6526 32.7413 14.5023V14.493C32.7413 12.3474 31.4183 11 29.3016 11C27.1899 11 25.8618 12.3427 25.8618 14.493V14.5023C25.8618 16.6573 27.1848 18 29.3016 18ZM29.3016 17.0704C27.9073 17.0704 27.022 16.0798 27.022 14.5023V14.493C27.022 12.9155 27.9124 11.9296 29.3016 11.9296C30.6958 11.9296 31.5761 12.9202 31.5761 14.493V14.5023C31.5761 16.0657 30.711 17.0704 29.3016 17.0704Z" fill="white"/>
<path d="M33.8302 17.8873H34.97V15.5728H36.5627C38.0027 15.5728 39 14.6667 39 13.3427V13.3333C39 12.0047 38.0027 11.1127 36.5627 11.1127H33.8302V17.8873ZM36.2777 12C37.27 12 37.8399 12.493 37.8399 13.338V13.3474C37.8399 14.1972 37.27 14.6901 36.2777 14.6901H34.97V12H36.2777Z" fill="white"/>
</svg>
