<svg width="18" height="18" viewBox="0 0 18 18" fill="none" xmlns="http://www.w3.org/2000/svg">
<path d="M9 1.5C7.01873 1.52527 5.12572 2.32356 3.72464 3.72464C2.32356 5.12572 1.52527 7.01873 1.5 9C1.50926 10.1542 1.78479 11.2907 2.30513 12.3209C2.82548 13.3512 3.57659 14.2475 4.5 14.94V15H4.575C5.84489 15.9731 7.40014 16.5005 9 16.5005C10.5999 16.5005 12.1551 15.9731 13.425 15H13.5V14.94C14.4234 14.2475 15.1745 13.3512 15.6949 12.3209C16.2152 11.2907 16.4907 10.1542 16.5 9C16.4747 7.01873 15.6764 5.12572 14.2754 3.72464C12.8743 2.32356 10.9813 1.52527 9 1.5ZM6.0525 14.1975C6.16199 13.6961 6.43961 13.2472 6.83931 12.9252C7.23901 12.6033 7.73677 12.4277 8.25 12.4275H9.75C10.2632 12.4277 10.761 12.6033 11.1607 12.9252C11.5604 13.2472 11.838 13.6961 11.9475 14.1975C11.0542 14.7231 10.0365 15.0003 9 15.0003C7.9635 15.0003 6.94585 14.7231 6.0525 14.1975ZM13.2075 13.23C12.9222 12.5482 12.4418 11.9659 11.8267 11.5563C11.2115 11.1466 10.4891 10.9279 9.75 10.9275H8.25C7.51093 10.9279 6.78845 11.1466 6.17331 11.5563C5.55816 11.9659 5.07778 12.5482 4.7925 13.23C4.2305 12.6772 3.78293 12.0192 3.47536 11.2934C3.16779 10.5676 3.00626 9.78826 3 9C3.01945 7.41474 3.65784 5.8999 4.77887 4.77887C5.8999 3.65784 7.41474 3.01945 9 3C10.5853 3.01945 12.1001 3.65784 13.2211 4.77887C14.3422 5.8999 14.9805 7.41474 15 9C14.9937 9.78826 14.8322 10.5676 14.5246 11.2934C14.2171 12.0192 13.7695 12.6772 13.2075 13.23Z" fill="#4F4F4F"/>
<path d="M9.00006 4.5008C8.60357 4.49156 8.20933 4.56284 7.84117 4.71034C7.47302 4.85783 7.13861 5.07847 6.85818 5.35891C6.57774 5.63935 6.3571 5.97376 6.20961 6.34191C6.06211 6.71006 5.99083 7.1043 6.00006 7.5008C5.99083 7.89729 6.06211 8.29153 6.20961 8.65968C6.3571 9.02784 6.57774 9.36224 6.85818 9.64268C7.13861 9.92312 7.47302 10.1438 7.84117 10.2913C8.20933 10.4387 8.60357 10.51 9.00006 10.5008C9.39655 10.51 9.7908 10.4387 10.159 10.2913C10.5271 10.1438 10.8615 9.92312 11.1419 9.64268C11.4224 9.36224 11.643 9.02784 11.7905 8.65968C11.938 8.29153 12.0093 7.89729 12.0001 7.5008C12.0093 7.1043 11.938 6.71006 11.7905 6.34191C11.643 5.97376 11.4224 5.63935 11.1419 5.35891C10.8615 5.07847 10.5271 4.85783 10.159 4.71034C9.7908 4.56284 9.39655 4.49156 9.00006 4.5008ZM9.00006 9.0008C8.80053 9.01044 8.60118 8.97825 8.41482 8.90628C8.22846 8.83431 8.05922 8.72416 7.91796 8.5829C7.7767 8.44164 7.66655 8.27239 7.59458 8.08604C7.52261 7.89968 7.49042 7.70033 7.50006 7.5008C7.49042 7.30126 7.52261 7.10191 7.59458 6.91555C7.66655 6.7292 7.7767 6.55995 7.91796 6.41869C8.05922 6.27743 8.22846 6.16728 8.41482 6.09531C8.60118 6.02334 8.80053 5.99115 9.00006 6.0008C9.1996 5.99115 9.39895 6.02334 9.58531 6.09531C9.77166 6.16728 9.94091 6.27743 10.0822 6.41869C10.2234 6.55995 10.3336 6.7292 10.4055 6.91555C10.4775 7.10191 10.5097 7.30126 10.5001 7.5008C10.5097 7.70033 10.4775 7.89968 10.4055 8.08604C10.3336 8.27239 10.2234 8.44164 10.0822 8.5829C9.94091 8.72416 9.77166 8.83431 9.58531 8.90628C9.39895 8.97825 9.1996 9.01044 9.00006 9.0008Z" fill="#4F4F4F"/>
</svg>
