<svg width="40" height="40" viewBox="0 0 40 40" fill="none" xmlns="http://www.w3.org/2000/svg">
<g clip-path="url(#clip0_421_8545)">
<path d="M39.8249 19.375C39.6806 18.8961 39.4234 18.4589 39.0749 18.1C38.809 17.8131 38.4676 17.6069 38.0899 17.505C38.2749 17.7975 38.4424 18.135 38.5674 18.495C38.7074 18.8625 38.7974 19.255 38.8249 19.6625C38.8671 20.0146 38.8671 20.3704 38.8249 20.7225C38.747 20.4615 38.6271 20.215 38.4699 19.9925C38.1603 19.5741 37.7466 19.244 37.2699 19.035C36.7419 18.7972 36.1446 18.7632 35.593 18.9395C35.0415 19.1159 34.5746 19.49 34.2824 19.99C34.1574 20.195 34.0574 20.4175 33.9824 20.655C31.0274 15.735 25.7099 12.4775 19.6299 12.4775C19.3199 12.4775 19.0124 12.485 18.7074 12.5025C16.8212 12.506 14.9444 12.7693 13.1299 13.285C12.9749 12.2 11.5499 10 4.99994 10L6.99994 16.275C5.7423 17.2916 4.68509 18.5336 3.88244 19.9375L-5.91595e-05 20C-5.91595e-05 20 -0.425059 30 2.49994 30H3.84994C4.769 31.5579 5.99864 32.91 7.46244 33.9725L7.49994 40H10.1999C13.4749 40 14.9999 40 14.9999 38.125V37.15C17.5216 37.6173 20.1083 37.6105 22.6274 37.13L22.4999 38.125C22.4999 40 24.0499 40 27.3499 40H29.9999V34.025C32.3442 32.3997 34.0312 29.991 34.7574 27.2325C34.8999 27.165 35.0424 27.1725 35.1874 27.1725C35.3324 27.1725 35.4749 27.165 35.6174 27.1475C36.2449 27.0325 36.8174 26.7875 37.3149 26.44C37.9873 25.9643 38.5019 25.2982 38.7924 24.5275C38.8624 24.295 38.9149 24.05 38.9499 23.7975L38.9524 23.7725C39.5049 23.1175 39.8824 22.2975 39.9999 21.395C40.1021 20.7054 40.0404 20.0014 39.8199 19.34L39.8249 19.375ZM8.77494 19.375C9.27222 19.375 9.74913 19.5725 10.1008 19.9242C10.4524 20.2758 10.6499 20.7527 10.6499 21.25C10.6499 21.7473 10.4524 22.2242 10.1008 22.5758C9.74913 22.9275 9.27222 23.125 8.77494 23.125C8.27766 23.125 7.80075 22.9275 7.44911 22.5758C7.09748 22.2242 6.89994 21.7473 6.89994 21.25C6.89994 20.7527 7.09748 20.2758 7.44911 19.9242C7.80075 19.5725 8.27766 19.375 8.77494 19.375ZM14.6999 17.5C14.4176 17.5906 14.1123 17.5782 13.8382 17.4652C13.5641 17.3522 13.3389 17.1457 13.2024 16.8825C13.1599 16.7513 13.1457 16.6126 13.1607 16.4756C13.1757 16.3385 13.2197 16.2062 13.2896 16.0873C13.3595 15.9685 13.4539 15.8658 13.5664 15.7861C13.679 15.7064 13.8071 15.6515 13.9424 15.625C15.5867 15.2307 17.2743 15.0459 18.9649 15.075L19.2174 15.0725C20.8974 15.0725 22.5274 15.2725 24.0899 15.6525C24.4049 15.7125 24.7449 16.1075 24.7449 16.5825C24.7448 16.6835 24.7288 16.7839 24.6974 16.88C24.6099 17.0421 24.4865 17.182 24.3365 17.289C24.1866 17.3961 24.0142 17.4674 23.8324 17.4975H23.4499C22.0533 17.1612 20.6215 16.9933 19.1849 16.9975H18.9624C17.4499 16.9975 15.9799 17.18 14.5724 17.525L14.6999 17.5ZM36.4499 24.825C36.1126 25.0703 35.7263 25.24 35.3174 25.3225L34.9999 25.325V25V24.225C35.4124 24.5375 35.9349 24.725 36.4999 24.725H36.5524L36.4499 24.825ZM36.6499 23.125C36.4175 23.1576 36.1808 23.115 35.9744 23.0034C35.7679 22.8919 35.6026 22.7172 35.5024 22.505C35.3879 22.2867 35.3282 22.0437 35.3287 21.7972C35.3291 21.5506 35.3896 21.3079 35.5049 21.09C35.6238 20.9255 35.7988 20.8102 35.9969 20.766C36.195 20.7218 36.4024 20.7517 36.5799 20.85C36.8065 20.9369 37.0013 21.0905 37.1388 21.2905C37.2763 21.4904 37.3499 21.7274 37.3499 21.97V21.9725C37.3993 22.3191 37.3985 22.6711 37.3474 23.0175C37.1152 23.0622 36.8788 23.0807 36.6424 23.0725L36.6499 23.125Z" fill="#093C6A"/>
<path d="M20 7.49961H17.5V7.07461H18.125V4.34961H17.5L18.875 2.97461H19.375V7.07461H20V7.49961Z" fill="#093C6A"/>
<path d="M18.75 1.875C19.2426 1.87516 19.7304 1.97236 20.1854 2.16103C20.6405 2.34969 21.0539 2.62615 21.4022 2.9746C21.7504 3.32305 22.0266 3.73668 22.2149 4.19186C22.4033 4.64705 22.5002 5.13488 22.5 5.6275C22.4998 6.12012 22.4026 6.60789 22.214 7.06295C22.0253 7.51801 21.7489 7.93145 21.4004 8.27967C21.0519 8.62789 20.6383 8.90407 20.1831 9.09243C19.728 9.2808 19.2401 9.37766 18.7475 9.3775C17.7526 9.37717 16.7986 8.98163 16.0953 8.2779C15.3921 7.57417 14.9972 6.61989 14.9975 5.625C14.9978 4.63011 15.3934 3.67609 16.0971 2.97283C16.8008 2.26957 17.7551 1.87467 18.75 1.875ZM18.75 0C17.2582 0 15.8274 0.592632 14.7725 1.64752C13.7176 2.70242 13.125 4.13316 13.125 5.625C13.125 7.11684 13.7176 8.54758 14.7725 9.60248C15.8274 10.6574 17.2582 11.25 18.75 11.25C20.2418 11.25 21.6726 10.6574 22.7275 9.60248C23.7824 8.54758 24.375 7.11684 24.375 5.625C24.375 4.13316 23.7824 2.70242 22.7275 1.64752C21.6726 0.592632 20.2418 0 18.75 0V0Z" fill="#093C6A"/>
</g>
<defs>
<clipPath id="clip0_421_8545">
<rect width="40" height="40" fill="white"/>
</clipPath>
</defs>
</svg>
