<svg width="41" height="40" viewBox="0 0 41 40" fill="none" xmlns="http://www.w3.org/2000/svg">
<path d="M40.447 20C40.447 30.7698 31.7209 39.5 20.9574 39.5C10.1938 39.5 1.46777 30.7698 1.46777 20C1.46777 9.2302 10.1938 0.5 20.9574 0.5C31.7209 0.5 40.447 9.2302 40.447 20Z" stroke="#11B6EF"/>
<path fill-rule="evenodd" clip-rule="evenodd" d="M18.8938 22.628V17.008L24.2939 19.828L18.8938 22.628ZM30.7526 16.035C30.7526 16.035 30.5577 14.656 29.958 14.049C29.1984 13.253 28.3458 13.249 27.955 13.202C25.1585 13 20.9617 13 20.9617 13H20.9537C20.9537 13 16.7579 13 13.9603 13.202C13.5695 13.249 12.718 13.252 11.9574 14.049C11.3577 14.656 11.1628 16.035 11.1628 16.035C11.1628 16.035 10.9629 17.653 10.9629 19.272V20.789C10.9629 22.407 11.1628 24.026 11.1628 24.026C11.1628 24.026 11.3577 25.404 11.9574 26.011C12.717 26.808 13.7165 26.782 14.1612 26.866C15.7604 27.019 20.9577 27.066 20.9577 27.066C20.9577 27.066 25.1585 27.06 27.955 26.858C28.3458 26.811 29.1984 26.808 29.958 26.011C30.5577 25.404 30.7526 24.026 30.7526 24.026C30.7526 24.026 30.9525 22.407 30.9525 20.789V19.272C30.9525 17.653 30.7526 16.035 30.7526 16.035Z" fill="#11B6EF"/>
</svg>
