<svg width="30" height="30" viewBox="0 0 30 30" fill="none" xmlns="http://www.w3.org/2000/svg">
<rect width="30" height="30" rx="15" fill="#2F85EB"/>
<path d="M15.4492 13.3576V12.9302H16.6839V18.9354H15.9781C15.8384 18.9357 15.7042 18.8785 15.6051 18.7765C15.506 18.6745 15.4499 18.5359 15.4492 18.3911V18.3921C14.9338 18.783 14.3114 18.9934 13.6727 18.9924C12.8746 18.9924 12.1092 18.664 11.5447 18.0794C10.9802 17.4948 10.6628 16.7019 10.6623 15.8749C10.6628 15.0479 10.9802 14.2549 11.5447 13.6703C12.1092 13.0857 12.8746 12.7573 13.6727 12.7573C14.3111 12.7566 14.9331 12.9669 15.4483 13.3576H15.4492ZM10.3424 11V11.1947C10.3424 11.5576 10.2957 11.854 10.0674 12.2016L10.0399 12.2339C9.96387 12.3223 9.88991 12.4125 9.81808 12.5046L5.85533 17.6588H10.3424V18.3883C10.3424 18.4602 10.3287 18.5314 10.3021 18.5979C10.2755 18.6643 10.2366 18.7247 10.1874 18.7755C10.1383 18.8263 10.08 18.8666 10.0158 18.894C9.95167 18.9215 9.88292 18.9355 9.8135 18.9354H4V18.5915C4 18.1707 4.10083 17.9827 4.22917 17.787L8.45225 12.3678H4.176V11H10.3433H10.3424ZM18.1808 18.9354C18.0641 18.9354 17.9522 18.8874 17.8697 18.8019C17.7872 18.7164 17.7408 18.6004 17.7408 18.4795V11H19.0618V18.9354H18.1808ZM22.9686 12.7193C23.3666 12.7192 23.7607 12.8003 24.1284 12.958C24.4961 13.1157 24.8302 13.3469 25.1117 13.6384C25.3932 13.9299 25.6166 14.2761 25.769 14.657C25.9214 15.038 25.9999 15.4463 26 15.8587C26.0001 16.2711 25.9219 16.6795 25.7697 17.0605C25.6175 17.4416 25.3944 17.7878 25.113 18.0795C24.8317 18.3712 24.4977 18.6027 24.1301 18.7606C23.7624 18.9185 23.3684 18.9999 22.9704 19C22.1667 19.0003 21.3958 18.6696 20.8273 18.0809C20.2588 17.4921 19.9392 16.6935 19.939 15.8606C19.9388 15.0277 20.2578 14.2289 20.826 13.6398C21.3941 13.0507 22.1648 12.7196 22.9686 12.7193ZM13.6736 17.7091C13.9095 17.7147 14.1441 17.6713 14.3636 17.5816C14.5831 17.4919 14.7831 17.3577 14.9518 17.1867C15.1206 17.0158 15.2546 16.8117 15.3462 16.5863C15.4377 16.3609 15.4849 16.1189 15.4849 15.8744C15.4849 15.6299 15.4377 15.3878 15.3462 15.1624C15.2546 14.9371 15.1206 14.7329 14.9518 14.562C14.7831 14.3911 14.5831 14.2568 14.3636 14.1671C14.1441 14.0774 13.9095 14.0341 13.6736 14.0397C13.211 14.0506 12.7709 14.2487 12.4474 14.5915C12.124 14.9344 11.9429 15.3949 11.9429 15.8744C11.9429 16.3539 12.124 16.8143 12.4474 17.1572C12.7709 17.5001 13.211 17.6982 13.6736 17.7091ZM22.9686 17.7062C23.4414 17.7062 23.8949 17.5116 24.2293 17.1651C24.5637 16.8186 24.7515 16.3487 24.7515 15.8587C24.7515 15.3687 24.5637 14.8988 24.2293 14.5523C23.8949 14.2058 23.4414 14.0112 22.9686 14.0112C22.4957 14.0112 22.0422 14.2058 21.7079 14.5523C21.3735 14.8988 21.1857 15.3687 21.1857 15.8587C21.1857 16.3487 21.3735 16.8186 21.7079 17.1651C22.0422 17.5116 22.4957 17.7062 22.9686 17.7062Z" fill="white"/>
</svg>
