<svg width="24" height="25" viewBox="0 0 24 25" fill="none" xmlns="http://www.w3.org/2000/svg">
<path d="M23.5 12.0062C23.5 18.3612 18.351 23.5125 12 23.5125C5.64897 23.5125 0.5 18.3612 0.5 12.0062C0.5 5.65128 5.64897 0.5 12 0.5C18.351 0.5 23.5 5.65128 23.5 12.0062Z" stroke="#093C6A"/>
<g clip-path="url(#clip0_421_8570)">
<path d="M12.3004 10.9685V10.6984H13.109V14.4935H12.6468C12.5553 14.4937 12.4674 14.4576 12.4025 14.3931C12.3376 14.3286 12.3009 14.241 12.3004 14.1495V14.1501C11.9629 14.3972 11.5553 14.5301 11.137 14.5295C10.6143 14.5295 10.1131 14.322 9.7434 13.9526C9.37372 13.5831 9.16588 13.082 9.16556 12.5593C9.16588 12.0367 9.37372 11.5355 9.7434 11.1661C10.1131 10.7966 10.6143 10.5891 11.137 10.5891C11.5551 10.5886 11.9624 10.7215 12.2998 10.9685H12.3004ZM8.95605 9.47852V9.60158C8.95605 9.8309 8.92544 10.0182 8.77596 10.2379L8.75795 10.2583C8.70815 10.3142 8.65971 10.3712 8.61267 10.4294L6.01752 13.6867H8.95605V14.1477C8.95605 14.1932 8.94709 14.2382 8.92967 14.2802C8.91226 14.3222 8.88674 14.3603 8.85456 14.3925C8.82239 14.4246 8.7842 14.45 8.74218 14.4674C8.70016 14.4847 8.65513 14.4936 8.60967 14.4935H4.80249V14.2762C4.80249 14.0103 4.86852 13.8914 4.95257 13.7677L7.71821 10.343H4.91775V9.47852H8.95665H8.95605ZM14.0893 14.4935C14.0129 14.4935 13.9396 14.4632 13.8856 14.4091C13.8315 14.3551 13.8012 14.2818 13.8012 14.2054V9.47852H14.6662V14.4935H14.0893ZM17.2248 10.5651C17.4854 10.565 17.7435 10.6163 17.9843 10.7159C18.2251 10.8156 18.4439 10.9617 18.6283 11.1459C18.8126 11.3302 18.9589 11.5489 19.0587 11.7897C19.1585 12.0304 19.2099 12.2885 19.21 12.5491C19.2101 12.8097 19.1588 13.0678 19.0591 13.3086C18.9595 13.5495 18.8134 13.7683 18.6291 13.9526C18.4449 14.137 18.2262 14.2832 17.9854 14.383C17.7446 14.4829 17.4866 14.5343 17.226 14.5343C16.6996 14.5345 16.1947 14.3256 15.8224 13.9535C15.4501 13.5814 15.2409 13.0767 15.2407 12.5503C15.2406 12.024 15.4495 11.5191 15.8216 11.1468C16.1937 10.7745 16.6984 10.5652 17.2248 10.5651ZM11.1376 13.7185C11.2921 13.722 11.4457 13.6946 11.5895 13.638C11.7332 13.5813 11.8642 13.4964 11.9747 13.3884C12.0852 13.2804 12.173 13.1514 12.2329 13.0089C12.2929 12.8665 12.3238 12.7135 12.3238 12.559C12.3238 12.4045 12.2929 12.2515 12.2329 12.1091C12.173 11.9667 12.0852 11.8377 11.9747 11.7296C11.8642 11.6216 11.7332 11.5368 11.5895 11.4801C11.4457 11.4234 11.2921 11.396 11.1376 11.3995C10.8346 11.4064 10.5464 11.5316 10.3346 11.7483C10.1228 11.965 10.0042 12.256 10.0042 12.559C10.0042 12.862 10.1228 13.153 10.3346 13.3697C10.5464 13.5864 10.8346 13.7116 11.1376 13.7185ZM17.2248 13.7167C17.5344 13.7167 17.8314 13.5937 18.0504 13.3747C18.2693 13.1558 18.3924 12.8588 18.3924 12.5491C18.3924 12.2394 18.2693 11.9425 18.0504 11.7235C17.8314 11.5045 17.5344 11.3815 17.2248 11.3815C16.9151 11.3815 16.6181 11.5045 16.3991 11.7235C16.1802 11.9425 16.0571 12.2394 16.0571 12.5491C16.0571 12.8588 16.1802 13.1558 16.3991 13.3747C16.6181 13.5937 16.9151 13.7167 17.2248 13.7167Z" fill="#093C6A"/>
</g>
<defs>
<clipPath id="clip0_421_8570">
<rect width="14.4075" height="14.4075" fill="white" transform="translate(4.80249 4.80273)"/>
</clipPath>
</defs>
</svg>
