<svg width="42" height="27" viewBox="0 0 42 27" fill="none" xmlns="http://www.w3.org/2000/svg">
<g clip-path="url(#clip0_678_5370)">
<path d="M39.76 0.299316H2.24C1.00288 0.299316 0 1.2879 0 2.50738V24.0912C0 25.3107 1.00288 26.2993 2.24 26.2993H39.76C40.9971 26.2993 42 25.3107 42 24.0912V2.50738C42 1.2879 40.9971 0.299316 39.76 0.299316Z" fill="#0E4595"/>
<path fill-rule="evenodd" clip-rule="evenodd" d="M15.5791 18.7493L17.4473 7.94287H20.4354L18.5659 18.7493H15.5791Z" fill="white"/>
<path fill-rule="evenodd" clip-rule="evenodd" d="M29.3617 8.17604C28.7696 7.95711 27.842 7.72217 26.6836 7.72217C23.731 7.72217 21.6512 9.18783 21.6335 11.2884C21.6169 12.8412 23.1183 13.7074 24.2517 14.2243C25.4148 14.754 25.8058 15.0918 25.8003 15.5648C25.7929 16.2891 24.8715 16.6201 24.0126 16.6201C22.8166 16.6201 22.1812 16.4563 21.1999 16.0528L20.8149 15.881L20.3955 18.3002C21.0934 18.6018 22.384 18.8632 23.724 18.8767C26.865 18.8767 28.9041 17.4278 28.9273 15.1847C28.9385 13.9554 28.1424 13.0199 26.4185 12.2487C25.3741 11.7487 24.7344 11.4152 24.7412 10.909C24.7412 10.4598 25.2826 9.97948 26.4524 9.97948C27.4296 9.96452 28.1373 10.1746 28.6888 10.3935L28.9566 10.5182L29.3617 8.17604Z" fill="white"/>
<path fill-rule="evenodd" clip-rule="evenodd" d="M37.0506 7.94287H34.7417C34.0264 7.94287 33.4911 8.1353 33.177 8.83901L28.7393 18.7424H31.877C31.877 18.7424 32.3901 17.4108 32.5061 17.1184C32.849 17.1184 35.8971 17.1231 36.3329 17.1231C36.4223 17.5014 36.6965 18.7424 36.6965 18.7424H39.4691L37.0506 7.94287ZM33.3873 14.9208C33.6344 14.2981 34.5778 11.8999 34.5778 11.8999C34.5601 11.9287 34.823 11.2743 34.974 10.8686L35.176 11.8003C35.176 11.8003 35.7481 14.3798 35.8677 14.9207H33.3873V14.9208Z" fill="white"/>
<path fill-rule="evenodd" clip-rule="evenodd" d="M13.0425 7.94287L10.117 15.312L9.80533 13.8145C9.26074 12.0881 7.56394 10.2177 5.66699 9.28135L8.34194 18.732L11.5034 18.7285L16.2076 7.94287H13.0425Z" fill="white"/>
<path fill-rule="evenodd" clip-rule="evenodd" d="M7.38768 7.94287H2.56939L2.53125 8.16771C6.27983 9.0622 8.76024 11.2238 9.78986 13.8211L8.74216 8.85519C8.56128 8.17091 8.03667 7.96672 7.38768 7.94287Z" fill="#F2AE14"/>
</g>
<defs>
<clipPath id="clip0_678_5370">
<rect width="42" height="26" fill="white" transform="translate(0 0.299316)"/>
</clipPath>
</defs>
</svg>
