<svg width="43" height="27" viewBox="0 0 43 27" fill="none" xmlns="http://www.w3.org/2000/svg">
<path d="M39.9492 0H2.56767C1.33512 0 0.335938 0.999181 0.335938 2.23173V24.0469C0.335938 25.2795 1.33512 26.2787 2.56767 26.2787H39.9492C41.1818 26.2787 42.181 25.2795 42.181 24.0469V2.23173C42.181 0.999181 41.1818 0 39.9492 0Z" fill="black"/>
<path fill-rule="evenodd" clip-rule="evenodd" d="M24.5508 13.1392C24.5508 18.6706 20.0666 23.1543 14.5354 23.1543C9.0042 23.1543 4.52051 18.6706 4.52051 13.1392C4.52051 7.60818 9.0042 3.12402 14.5354 3.12402C20.0666 3.12402 24.5508 7.60818 24.5508 13.1392Z" fill="#D9222A"/>
<path fill-rule="evenodd" clip-rule="evenodd" d="M27.9803 3.12402C25.3927 3.12402 23.0347 4.10575 21.2572 5.71656C20.8952 6.04481 20.5572 6.39933 20.246 6.7764H22.2694C22.546 7.11279 22.8008 7.46661 23.0328 7.83717H19.4825C19.2698 8.17774 19.0766 8.53156 18.9055 8.89771H23.6096C23.7702 9.2413 23.912 9.59489 24.0336 9.95802H18.4815C18.3657 10.3035 18.2683 10.6571 18.1904 11.0186H24.3244C24.4716 11.702 24.5499 12.4115 24.5499 13.1392C24.5499 14.2513 24.3684 15.3214 24.0336 16.3206H18.4815C18.6028 16.6839 18.7446 17.0377 18.9053 17.3811H23.6096C23.438 17.7472 23.2453 18.1011 23.0324 18.4419H19.4825C19.7143 18.8117 19.9695 19.166 20.246 19.5017H22.2689C21.9581 19.8795 21.6199 20.2345 21.2574 20.5625C23.0349 22.173 25.3927 23.1543 27.9803 23.1543C33.5115 23.1543 37.9957 18.6706 37.9957 13.1392C37.9957 7.60842 33.5115 3.12402 27.9803 3.12402Z" fill="#EE9F2D"/>
<path fill-rule="evenodd" clip-rule="evenodd" d="M36.6611 18.722C36.6611 18.5435 36.8057 18.3984 36.9845 18.3984C37.1633 18.3984 37.3079 18.5435 37.3079 18.722C37.3079 18.9006 37.1633 19.0456 36.9845 19.0456C36.8057 19.0456 36.6611 18.9006 36.6611 18.722ZM36.9845 18.968C37.1203 18.968 37.2305 18.8578 37.2305 18.722C37.2305 18.586 37.1203 18.4763 36.9845 18.4763C36.8485 18.4763 36.7388 18.586 36.7388 18.722C36.7388 18.8578 36.8485 18.968 36.9845 18.968ZM36.9408 18.8643H36.8745V18.58H36.9945C37.0196 18.58 37.0452 18.58 37.0673 18.5942C37.0903 18.6098 37.1033 18.6372 37.1033 18.6655C37.1033 18.6974 37.0845 18.7272 37.054 18.7388L37.1063 18.8643H37.0329L36.9894 18.7518H36.9408V18.8643ZM36.9408 18.703H36.9775C36.9912 18.703 37.0057 18.7041 37.018 18.6974C37.0289 18.6904 37.0345 18.6774 37.0345 18.6649C37.0345 18.6539 37.0277 18.6414 37.0184 18.636C37.0068 18.6288 36.9885 18.6304 36.9761 18.6304H36.9408V18.703Z" fill="black"/>
<path fill-rule="evenodd" clip-rule="evenodd" d="M12.197 14.2359C12.0829 14.2226 12.0327 14.2191 11.9543 14.2191C11.3381 14.2191 11.0261 14.4304 11.0261 14.8477C11.0261 15.1051 11.1784 15.2687 11.4159 15.2687C11.8588 15.2687 12.178 14.847 12.197 14.2359ZM12.9877 16.0768H12.0869L12.1075 15.6486C11.8328 15.9871 11.4662 16.148 10.968 16.148C10.3786 16.148 9.97461 15.6877 9.97461 15.0193C9.97461 14.0136 10.6774 13.4269 11.8837 13.4269C12.0069 13.4269 12.165 13.438 12.3268 13.4587C12.3605 13.3225 12.3693 13.2641 12.3693 13.1909C12.3693 12.9171 12.1798 12.815 11.6719 12.815C11.14 12.809 10.7013 12.9417 10.5212 13.001C10.5325 12.9324 10.6718 12.0716 10.6718 12.0716C11.2137 11.9128 11.571 11.853 11.9732 11.853C12.9068 11.853 13.4013 12.2722 13.4003 13.0644C13.4022 13.2767 13.3671 13.5387 13.3122 13.883C13.2178 14.4816 13.0154 15.7641 12.9877 16.0768Z" fill="black"/>
<path fill-rule="evenodd" clip-rule="evenodd" d="M9.5192 16.0768H8.43193L9.05472 12.1715L7.66407 16.0768H6.92318L6.83159 12.1938L6.17694 16.0768H5.15918L6.00933 10.9966H7.57271L7.66756 13.8402L8.62116 10.9966H10.3601L9.5192 16.0768Z" fill="black"/>
<path fill-rule="evenodd" clip-rule="evenodd" d="M29.325 14.2359C29.2114 14.2226 29.1609 14.2191 29.0828 14.2191C28.4667 14.2191 28.1548 14.4304 28.1548 14.8477C28.1548 15.1051 28.3068 15.2687 28.5444 15.2687C28.9873 15.2687 29.3067 14.847 29.325 14.2359ZM30.1164 16.0768H29.2155L29.236 15.6486C28.9612 15.9871 28.5944 16.148 28.0966 16.148C27.5071 16.148 27.1035 15.6877 27.1035 15.0193C27.1035 14.0136 27.8058 13.4269 29.0124 13.4269C29.1356 13.4269 29.2934 13.438 29.455 13.4587C29.4887 13.3225 29.4975 13.2641 29.4975 13.1909C29.4975 12.9171 29.3083 12.815 28.8003 12.815C28.2684 12.809 27.8302 12.9417 27.6494 13.001C27.6608 12.9324 27.8005 12.0716 27.8005 12.0716C28.3424 11.9128 28.6995 11.853 29.1012 11.853C30.0353 11.853 30.5297 12.2722 30.5288 13.0644C30.5307 13.2767 30.4956 13.5387 30.4407 13.883C30.3468 14.4816 30.1438 15.7641 30.1164 16.0768Z" fill="black"/>
<path fill-rule="evenodd" clip-rule="evenodd" d="M17.8195 16.0144C17.522 16.1081 17.29 16.1483 17.0384 16.1483C16.4826 16.1483 16.1792 15.8289 16.1792 15.2407C16.1713 15.0582 16.2592 14.5779 16.3282 14.1395C16.391 13.7536 16.7997 11.3203 16.7997 11.3203H17.8804L17.7542 11.9457H18.407L18.2596 12.9386H17.6045C17.479 13.7243 17.3002 14.703 17.2981 14.8327C17.2981 15.0457 17.4118 15.1387 17.6703 15.1387C17.7942 15.1387 17.8902 15.1261 17.9634 15.0996L17.8195 16.0144Z" fill="black"/>
<path fill-rule="evenodd" clip-rule="evenodd" d="M21.1342 15.9806C20.7629 16.094 20.4047 16.1489 20.0251 16.1479C18.8153 16.1468 18.1846 15.5149 18.1846 14.3049C18.1846 12.8926 18.9868 11.853 20.076 11.853C20.967 11.853 21.5361 12.4351 21.5361 13.3481C21.5361 13.651 21.4971 13.9467 21.4029 14.3642H19.2507C19.1779 14.9635 19.5615 15.2132 20.1901 15.2132C20.5769 15.2132 20.9259 15.1334 21.3139 14.953L21.1342 15.9806ZM20.5267 13.5312C20.5328 13.4452 20.6413 12.7938 20.0239 12.7938C19.6796 12.7938 19.4334 13.0563 19.3332 13.5312H20.5267Z" fill="black"/>
<path fill-rule="evenodd" clip-rule="evenodd" d="M13.639 13.2513C13.639 13.7739 13.8924 14.1343 14.4671 14.4049C14.9074 14.6118 14.9755 14.6731 14.9755 14.8608C14.9755 15.1183 14.7814 15.2346 14.3511 15.2346C14.0268 15.2346 13.725 15.1839 13.377 15.0716C13.377 15.0716 13.234 15.9822 13.2275 16.0257C13.4747 16.0796 13.695 16.1296 14.359 16.148C15.5062 16.148 16.036 15.7111 16.036 14.7671C16.036 14.1994 15.8143 13.8662 15.2696 13.6159C14.8137 13.4066 14.7614 13.3599 14.7614 13.167C14.7614 12.9436 14.942 12.8296 15.2935 12.8296C15.5069 12.8296 15.7985 12.8524 16.0746 12.8917L16.2295 11.9335C15.9479 11.8888 15.5211 11.853 15.2726 11.853C14.0563 11.853 13.6353 12.4884 13.639 13.2513Z" fill="black"/>
<path fill-rule="evenodd" clip-rule="evenodd" d="M26.4212 11.9618C26.7231 11.9618 27.0047 12.041 27.3927 12.2363L27.5705 11.1337C27.4113 11.0712 26.8505 10.7041 26.3756 10.7041C25.648 10.7041 25.0328 11.0651 24.6002 11.661C23.9693 11.452 23.7098 11.8744 23.3918 12.2951L23.1094 12.3609C23.1308 12.2224 23.15 12.0848 23.1435 11.9455H22.1451C22.0086 13.2241 21.7668 14.5192 21.5776 15.7994L21.5283 16.077H22.6161C22.7976 14.8974 22.8971 14.1421 22.9576 13.6309L23.3672 13.4031C23.4283 13.1755 23.6199 13.0986 24.0042 13.1079C23.9539 13.3775 23.927 13.6612 23.927 13.955C23.927 15.3066 24.6562 16.1481 25.8267 16.1481C26.1283 16.1481 26.387 16.1084 26.7875 15.9998L26.9789 14.8416C26.6185 15.019 26.3228 15.1025 26.055 15.1025C25.4229 15.1025 25.0405 14.6359 25.0405 13.8648C25.0405 12.7461 25.6094 11.9618 26.4212 11.9618Z" fill="black"/>
<path fill-rule="evenodd" clip-rule="evenodd" d="M9.83267 15.7748H8.74517L9.36843 11.87L7.97778 15.7748H7.23666L7.14506 11.8923L6.49042 15.7748H5.47266L6.32281 10.6953H7.88618L7.93012 13.84L8.98485 10.6953H10.6735L9.83267 15.7748Z" fill="white"/>
<path fill-rule="evenodd" clip-rule="evenodd" d="M35.6261 10.9966L35.3851 12.4644C35.0877 12.0732 34.7683 11.79 34.3466 11.79C33.798 11.79 33.2986 12.2059 32.9718 12.818C32.5166 12.7236 32.0458 12.5634 32.0458 12.5634L32.0456 12.5672C32.0823 12.225 32.097 12.0162 32.0937 11.9453H31.095C30.959 13.2239 30.7173 14.519 30.5283 15.7992L30.4785 16.0768H31.566C31.7129 15.123 31.8255 14.3309 31.9082 13.7028C32.2797 13.3671 32.4657 13.0742 32.8411 13.0937C32.6749 13.4957 32.5775 13.9587 32.5775 14.4337C32.5775 15.4666 33.1001 16.1479 33.8905 16.1479C34.289 16.1479 34.5947 16.0105 34.8929 15.6921L34.842 16.0761H35.8705L36.6985 10.9966H35.6261ZM34.2664 15.122C33.8963 15.122 33.7094 14.8482 33.7094 14.3077C33.7094 13.4957 34.0593 12.9198 34.5526 12.9198C34.9262 12.9198 35.1284 13.2046 35.1284 13.7293C35.1284 14.5483 34.773 15.122 34.2664 15.122Z" fill="black"/>
<path fill-rule="evenodd" clip-rule="evenodd" d="M12.5101 13.9348C12.3961 13.9216 12.3457 13.9181 12.2676 13.9181C11.6513 13.9181 11.3396 14.1294 11.3396 14.5467C11.3396 14.8036 11.4918 14.9677 11.729 14.9677C12.1723 14.9677 12.4915 14.546 12.5101 13.9348ZM13.3012 15.7751H12.4003L12.4208 15.3476C12.1462 15.6853 11.7792 15.8469 11.2814 15.8469C10.6919 15.8469 10.2881 15.3866 10.2881 14.7183C10.2881 13.7121 10.9906 13.1258 12.1971 13.1258C12.3204 13.1258 12.4784 13.137 12.64 13.1577C12.6737 13.0214 12.6826 12.9631 12.6826 12.8894C12.6826 12.6156 12.4933 12.514 11.9854 12.514C11.4532 12.5079 11.0148 12.6407 10.8344 12.6992C10.8458 12.6309 10.985 11.771 10.985 11.771C11.5267 11.6115 11.8845 11.5518 12.2862 11.5518C13.22 11.5518 13.7147 11.9711 13.7138 12.7627C13.7154 12.9759 13.6801 13.2376 13.6255 13.5815C13.5313 14.1799 13.3286 15.4631 13.3012 15.7751Z" fill="white"/>
<path fill-rule="evenodd" clip-rule="evenodd" d="M27.884 10.8322L27.706 11.9351C27.3182 11.74 27.0364 11.6605 26.7347 11.6605C25.9229 11.6605 25.3538 12.4449 25.3538 13.5635C25.3538 14.3346 25.7364 14.801 26.3683 14.801C26.6361 14.801 26.9316 14.7178 27.2919 14.5401L27.1011 15.6979C26.7003 15.8071 26.4418 15.8469 26.14 15.8469C24.9697 15.8469 24.2402 15.0053 24.2402 13.6537C24.2402 11.8377 25.2478 10.5684 26.6889 10.5684C27.1636 10.5684 27.7245 10.7697 27.884 10.8322Z" fill="white"/>
<path fill-rule="evenodd" clip-rule="evenodd" d="M29.638 13.9348C29.5241 13.9216 29.4739 13.9181 29.3955 13.9181C28.7795 13.9181 28.4675 14.1294 28.4675 14.5467C28.4675 14.8036 28.6198 14.9677 28.8571 14.9677C29.3 14.9677 29.6194 14.546 29.638 13.9348ZM30.4291 15.7751H29.528L29.5487 15.3476C29.2739 15.6853 28.9071 15.8469 28.4094 15.8469C27.8201 15.8469 27.416 15.3866 27.416 14.7183C27.416 13.7121 28.1188 13.1258 29.3248 13.1258C29.4483 13.1258 29.6061 13.137 29.7679 13.1577C29.8014 13.0214 29.8105 12.9631 29.8105 12.8894C29.8105 12.6156 29.6212 12.514 29.1133 12.514C28.5814 12.5079 28.1427 12.6407 27.9623 12.6992C27.9737 12.6309 28.1132 11.771 28.1132 11.771C28.6549 11.6115 29.0124 11.5518 29.4141 11.5518C30.3482 11.5518 30.8426 11.9711 30.8415 12.7627C30.8433 12.9759 30.8082 13.2376 30.7534 13.5815C30.6595 14.1799 30.4563 15.4631 30.4291 15.7751Z" fill="white"/>
<path fill-rule="evenodd" clip-rule="evenodd" d="M18.132 15.7124C17.8342 15.8061 17.6022 15.8468 17.3509 15.8468C16.7951 15.8468 16.4917 15.5274 16.4917 14.9392C16.484 14.7562 16.5719 14.2764 16.6409 13.838C16.7035 13.4516 17.1121 11.0186 17.1121 11.0186H18.1927L18.0667 11.6441H18.6214L18.4737 12.6366H17.9172C17.7917 13.4228 17.6124 14.4008 17.6106 14.5307C17.6106 14.7444 17.7245 14.8367 17.9828 14.8367C18.1067 14.8367 18.2024 14.8246 18.2759 14.7981L18.132 15.7124Z" fill="white"/>
<path fill-rule="evenodd" clip-rule="evenodd" d="M21.4467 15.6796C21.0757 15.793 20.717 15.8476 20.3376 15.8469C19.1278 15.8458 18.4971 15.2139 18.4971 14.0039C18.4971 12.5911 19.2993 11.5518 20.3885 11.5518C21.2795 11.5518 21.8486 12.1336 21.8486 13.047C21.8486 13.3502 21.8096 13.6459 21.7157 14.0632H19.5634C19.4907 14.6625 19.8742 14.9124 20.5029 14.9124C20.8895 14.9124 21.2386 14.8324 21.6264 14.6516L21.4467 15.6796ZM20.839 13.2295C20.8455 13.1437 20.9539 12.4921 20.3362 12.4921C19.9921 12.4921 19.7459 12.7553 19.6457 13.2295H20.839Z" fill="white"/>
<path fill-rule="evenodd" clip-rule="evenodd" d="M13.9523 12.9503C13.9523 13.4729 14.2057 13.8328 14.7803 14.1038C15.2206 14.3107 15.2887 14.3723 15.2887 14.5597C15.2887 14.8173 15.0944 14.9335 14.6646 14.9335C14.34 14.9335 14.0383 14.8829 13.69 14.7706C13.69 14.7706 13.5475 15.6812 13.541 15.7246C13.7877 15.7786 14.0083 15.8279 14.6722 15.8469C15.8197 15.8469 16.3493 15.4101 16.3493 14.4663C16.3493 13.8983 16.1277 13.5652 15.5828 13.3148C15.1272 13.1051 15.0744 13.0591 15.0744 12.8659C15.0744 12.6428 15.2555 12.5279 15.6068 12.5279C15.8199 12.5279 16.1115 12.5514 16.3881 12.5907L16.5427 11.6322C16.2614 11.5876 15.8346 11.5518 15.5861 11.5518C14.3695 11.5518 13.9488 12.1866 13.9523 12.9503Z" fill="white"/>
<path fill-rule="evenodd" clip-rule="evenodd" d="M36.1843 15.7748H35.1557L35.2068 15.3903C34.9085 15.7093 34.6028 15.8467 34.2044 15.8467C33.414 15.8467 32.8916 15.1653 32.8916 14.1324C32.8916 12.7583 33.7018 11.5999 34.6607 11.5999C35.0824 11.5999 35.4016 11.7721 35.6987 12.1631L35.94 10.6953H37.0124L36.1843 15.7748ZM34.5805 14.8203C35.0868 14.8203 35.4425 14.2466 35.4425 13.428C35.4425 12.9033 35.24 12.6186 34.8665 12.6186C34.3734 12.6186 34.023 13.1942 34.023 14.0064C34.023 14.5469 34.2104 14.8203 34.5805 14.8203Z" fill="white"/>
<path fill-rule="evenodd" clip-rule="evenodd" d="M31.4078 11.6442C31.2715 12.9228 31.0298 14.2179 30.8408 15.4974L30.791 15.775H31.8785C32.2674 13.2489 32.3616 12.7556 32.9714 12.8175C33.0685 12.3004 33.2494 11.8476 33.3842 11.6191C32.9288 11.5242 32.6745 11.7816 32.3416 12.2705C32.3679 12.0591 32.416 11.8539 32.4065 11.6442H31.4078Z" fill="white"/>
<path fill-rule="evenodd" clip-rule="evenodd" d="M22.4585 11.6442C22.3221 12.9228 22.0803 14.2179 21.8913 15.4974L21.8418 15.775H22.9298C23.3182 13.2489 23.4121 12.7556 24.0217 12.8175C24.1193 12.3004 24.3002 11.8476 24.4346 11.6191C23.9796 11.5242 23.7251 11.7816 23.3924 12.2705C23.4187 12.0591 23.4663 11.8539 23.4572 11.6442H22.4585Z" fill="white"/>
<path fill-rule="evenodd" clip-rule="evenodd" d="M36.6611 15.452C36.6611 15.2728 36.806 15.1284 36.9845 15.1284C37.1633 15.1284 37.3079 15.2728 37.3079 15.452C37.3079 15.6303 37.1633 15.7754 36.9845 15.7754C36.806 15.7754 36.6611 15.6303 36.6611 15.452ZM36.9845 15.6977C37.1205 15.6977 37.2302 15.5875 37.2302 15.452C37.2302 15.3163 37.1205 15.2061 36.9845 15.2061C36.8487 15.2061 36.7385 15.3163 36.7385 15.452C36.7385 15.5875 36.8487 15.6977 36.9845 15.6977ZM36.9408 15.5934H36.8745V15.3097H36.9947C37.0196 15.3097 37.0454 15.3102 37.067 15.3239C37.0903 15.3397 37.1035 15.3667 37.1035 15.3951C37.1035 15.4271 37.0847 15.4571 37.054 15.4685L37.1065 15.5934H37.0329L36.9894 15.4813H36.9408V15.5934ZM36.9408 15.4327H36.9773C36.991 15.4327 37.0059 15.4337 37.018 15.4271C37.0289 15.4202 37.0345 15.4069 37.0345 15.3944C37.0345 15.3839 37.028 15.3714 37.0184 15.3651C37.0071 15.3586 36.9882 15.3604 36.9759 15.3604H36.9408V15.4327Z" fill="white"/>
</svg>
