<svg width="42" height="12" viewBox="0 0 42 12" fill="none" xmlns="http://www.w3.org/2000/svg">
<g clip-path="url(#clip0_678_5387)">
<path d="M15.6986 2.73975H13.3879C13.218 2.73975 13.0821 2.84902 13.0821 3.03114L12.1306 9.40531C12.0966 9.51458 12.1986 9.66028 12.3345 9.66028H13.4559C13.6258 9.66028 13.7617 9.55101 13.7617 9.36889L13.9995 7.65697C14.0335 7.47485 14.1694 7.36557 14.3054 7.36557H15.0529C16.5821 7.36557 17.4656 6.56425 17.7034 4.99802C17.8054 4.30597 17.7034 3.75961 17.3976 3.39538C17.0578 2.99471 16.4801 2.73975 15.6986 2.73975ZM15.9704 5.1073C15.8345 6.01789 15.2228 6.01789 14.5772 6.01789H14.2374L14.4753 4.3424C14.4753 4.23312 14.5772 4.16028 14.6792 4.16028H14.8491C15.2568 4.16028 15.6646 4.16028 15.8685 4.41524C15.9704 4.56094 16.0044 4.77948 15.9704 5.1073Z" fill="white"/>
<path d="M22.6652 5.0707H21.5438C21.4419 5.0707 21.3739 5.14355 21.3399 5.25282L21.306 5.58063L21.238 5.47136C21.0001 5.10712 20.4565 4.96143 19.9128 4.96143C18.6895 4.96143 17.6361 5.94487 17.4322 7.3654C17.3302 8.05745 17.4662 8.74951 17.8399 9.18659C18.1798 9.62368 18.6555 9.8058 19.2332 9.8058C20.2186 9.8058 20.7623 9.11374 20.7623 9.11374L20.7283 9.44156C20.6943 9.55083 20.7963 9.69652 20.9322 9.69652H21.9516C22.1215 9.69652 22.2574 9.58725 22.2574 9.40513L22.8691 5.32566C22.8691 5.17997 22.7671 5.0707 22.6652 5.0707ZM21.1021 7.3654C21.0001 8.05745 20.4904 8.49454 19.8448 8.49454C19.505 8.49454 19.2671 8.38527 19.0972 8.16672C18.9273 7.94818 18.8594 7.65679 18.9273 7.32898C19.0293 6.63692 19.539 6.16341 20.1846 6.16341C20.4904 6.16341 20.7623 6.27268 20.9322 6.49123C21.0681 6.74619 21.1361 7.03758 21.1021 7.3654Z" fill="white"/>
<path d="M28.5775 5.0708H27.4561C27.3542 5.0708 27.2523 5.14365 27.1843 5.2165L25.6552 7.65689L25.0095 5.32577C24.9756 5.18007 24.8396 5.0708 24.7037 5.0708H23.6163C23.4804 5.0708 23.3785 5.2165 23.4464 5.36219L24.6697 9.22312L23.5144 10.9715C23.4125 11.1172 23.5144 11.2993 23.6843 11.2993H24.8057C24.9076 11.2993 25.0095 11.2264 25.0775 11.1536L28.7474 5.39862C28.8154 5.25292 28.7474 5.0708 28.5775 5.0708Z" fill="white"/>
<path d="M32.2816 2.73975H29.9709C29.801 2.73975 29.6651 2.84902 29.6651 3.03114L28.7136 9.40531C28.6796 9.51458 28.7816 9.66028 28.9175 9.66028H30.1068C30.2088 9.66028 30.3107 9.58743 30.3447 9.44173L30.6165 7.62054C30.6505 7.43842 30.7864 7.32915 30.9224 7.32915H31.6699C33.1991 7.32915 34.0826 6.52783 34.3204 4.9616C34.4224 4.26955 34.3204 3.72319 34.0146 3.35895C33.6408 2.99471 33.0631 2.73975 32.2816 2.73975ZM32.5534 5.1073C32.4175 6.01789 31.8059 6.01789 31.1602 6.01789H30.8204L31.0583 4.3424C31.0583 4.23312 31.1602 4.16028 31.2622 4.16028H31.4321C31.8398 4.16028 32.2476 4.16028 32.4515 4.41524C32.5534 4.56094 32.5874 4.77948 32.5534 5.1073Z" fill="white"/>
<path d="M39.214 5.0707H38.0927C37.9907 5.0707 37.9228 5.14355 37.8888 5.25282L37.8548 5.58063L37.7868 5.47136C37.549 5.10712 37.0053 4.96143 36.4616 4.96143C35.2383 4.96143 34.1849 5.94487 33.981 7.3654C33.8791 8.05745 34.015 8.74951 34.3888 9.18659C34.7286 9.62368 35.2043 9.8058 35.782 9.8058C36.7674 9.8058 37.3111 9.11374 37.3111 9.11374L37.2771 9.44156C37.2431 9.55083 37.3451 9.69652 37.481 9.69652H38.4664C38.6363 9.69652 38.7723 9.58725 38.7723 9.40513L39.3839 5.32566C39.4519 5.17997 39.3499 5.0707 39.214 5.0707ZM37.6849 7.3654C37.583 8.05745 37.0732 8.49454 36.4276 8.49454C36.1218 8.49454 35.8499 8.38527 35.68 8.16672C35.5101 7.94818 35.4422 7.65679 35.5101 7.32898C35.6121 6.63692 36.1218 6.16341 36.7674 6.16341C37.0732 6.16341 37.3451 6.27268 37.515 6.49123C37.6509 6.74619 37.7189 7.03758 37.6849 7.3654Z" fill="white"/>
<path d="M40.5391 2.92197L39.5876 9.44184C39.5537 9.55111 39.6556 9.69681 39.7915 9.69681H40.743C40.9129 9.69681 41.0488 9.58754 41.0488 9.40542L42.0003 3.03124C42.0342 2.92197 41.9323 2.77628 41.7964 2.77628H40.709C40.641 2.73985 40.5391 2.84913 40.5391 2.92197Z" fill="white"/>
<path d="M2.48082 10.9351L2.65072 9.73311H2.24296H0.374023L1.66529 0.772846C1.66529 0.736422 1.69927 0.699998 1.69927 0.699998C1.73325 0.699998 1.76723 0.663574 1.76723 0.663574H4.9614C6.0148 0.663574 6.76237 0.918541 7.13616 1.39205C7.30606 1.61059 7.44198 1.82914 7.47596 2.0841C7.54393 2.33907 7.54393 2.66689 7.47596 3.03112V3.06755V3.32251L7.64587 3.43179C7.78179 3.50463 7.91771 3.6139 8.01965 3.72318C8.18956 3.9053 8.25752 4.16026 8.32548 4.41523C8.35946 4.70662 8.35946 5.03443 8.2915 5.4351C8.22354 5.87218 8.08762 6.27285 7.88373 6.60066C7.71383 6.89205 7.50995 7.14702 7.27208 7.32914C7.03422 7.51126 6.76237 7.65695 6.42257 7.7298C6.11674 7.80265 5.77694 7.87549 5.36917 7.87549H5.1313C4.9614 7.87549 4.7915 7.94834 4.65558 8.05761C4.51965 8.16688 4.41771 8.349 4.41771 8.53112L4.38373 8.64039L4.07791 10.7894V10.8622C4.07791 10.8987 4.07791 10.8987 4.04393 10.8987H4.00995C4.00995 10.9351 2.48082 10.9351 2.48082 10.9351Z" fill="white"/>
<path d="M7.81558 3.104C7.81558 3.14043 7.81558 3.21328 7.81558 3.28612C7.40781 5.61725 5.94665 6.38215 4.1117 6.38215H3.16024C2.92238 6.38215 2.75247 6.56427 2.71849 6.78281L2.24277 10.0245L2.10684 10.9351C2.07286 11.0808 2.20879 11.2265 2.34471 11.2265H4.00976C4.21364 11.2265 4.38354 11.0808 4.41752 10.8623V10.7894L4.72335 8.67685L4.75733 8.56758C4.79131 8.34904 4.96121 8.20334 5.1651 8.20334H5.40296C7.00005 8.20334 8.25733 7.51129 8.63112 5.47155C8.80102 4.63381 8.69908 3.90533 8.29131 3.43182C8.15539 3.32255 8.01947 3.17685 7.81558 3.104Z" fill="white"/>
<path d="M7.40807 2.92187C7.34011 2.88544 7.27215 2.84902 7.20419 2.84902C7.13623 2.84902 7.06826 2.81259 7.0003 2.81259C6.76244 2.77617 6.45661 2.73975 6.18477 2.73975H3.67021C3.60225 2.73975 3.53428 2.73975 3.5003 2.77617C3.36438 2.84902 3.29642 2.95829 3.26244 3.10398L2.71875 6.70995V6.81922C2.75273 6.56425 2.95661 6.41855 3.1605 6.41855H4.11195C5.94691 6.41855 7.37409 5.61723 7.81584 3.32253C7.81584 3.21326 7.81584 3.14041 7.81584 3.10398C7.71389 3.03114 7.57797 2.99471 7.47603 2.95829C7.44205 2.92187 7.40807 2.92187 7.40807 2.92187Z" fill="#093C6A"/>
<path d="M3.2625 3.10395C3.29648 2.95826 3.36444 2.84899 3.50036 2.77614C3.56832 2.73971 3.6023 2.73971 3.67026 2.73971H6.18483C6.49065 2.73971 6.7625 2.77614 7.00036 2.81256C7.06832 2.81256 7.13628 2.84899 7.20424 2.84899C7.2722 2.84899 7.34017 2.88541 7.40813 2.92183C7.44211 2.92183 7.47609 2.95826 7.51007 2.95826C7.64599 2.99468 7.74793 3.06753 7.84987 3.10395C7.9858 2.2662 7.84987 1.68342 7.40813 1.13706C6.9324 0.554283 6.08288 0.299316 4.96152 0.299316H1.76735C1.56347 0.299316 1.35958 0.481436 1.3256 0.699979L0.000359073 9.73309C-0.0336215 9.91521 0.102301 10.0609 0.272204 10.0609H2.24308L2.71881 6.70991L3.2625 3.10395Z" fill="white"/>
</g>
<defs>
<clipPath id="clip0_678_5387">
<rect width="42" height="11" fill="white" transform="translate(0 0.299316)"/>
</clipPath>
</defs>
</svg>
