<svg width="42" height="27" viewBox="0 0 42 27" fill="none" xmlns="http://www.w3.org/2000/svg">
<g clip-path="url(#clip0_678_5379)">
<path d="M39.76 0.299316H2.24C1.00288 0.299316 0 1.2879 0 2.50738V24.0912C0 25.3107 1.00288 26.2993 2.24 26.2993H39.76C40.9971 26.2993 42 25.3107 42 24.0912V2.50738C42 1.2879 40.9971 0.299316 39.76 0.299316Z" fill="#0E4C96"/>
<path fill-rule="evenodd" clip-rule="evenodd" d="M34.5658 19.4412C34.5658 21.7384 32.677 23.6012 30.3457 23.6012H7.43457V7.15767C7.43457 4.85983 9.32362 2.99709 11.655 2.99709L34.5658 2.99707V19.4412H34.5658Z" fill="white"/>
<path fill-rule="evenodd" clip-rule="evenodd" d="M27.0965 13.6607C27.7508 13.6747 28.409 13.6322 29.0608 13.6828C29.7209 13.8043 29.88 14.7892 29.2936 15.1118C28.8936 15.3243 28.4181 15.1909 27.9843 15.2285H27.0965V13.6607ZM29.4391 11.8863C29.5846 12.3922 29.0898 12.8463 28.5954 12.7767H27.0965C27.1068 12.2996 27.0759 11.7819 27.1117 11.3299C27.7123 11.3466 28.3185 11.2959 28.9155 11.3564C29.172 11.4199 29.3866 11.6278 29.4391 11.8863ZM33.0471 4.38419C33.075 5.35028 33.0511 6.36739 33.0591 7.3531C33.0572 11.3605 33.0631 15.3681 33.056 19.3754C33.0298 20.8773 31.6794 22.1821 30.1664 22.2121C28.6518 22.2183 27.1371 22.213 25.6225 22.2147V16.1563C27.2728 16.1478 28.9242 16.1733 30.5738 16.1435C31.3392 16.0961 32.1772 15.5983 32.2129 14.7682C32.3031 13.9345 31.5056 13.3578 30.7484 13.2666C30.4573 13.2591 30.4659 13.183 30.7484 13.1498C31.4703 12.9959 32.0375 12.2592 31.825 11.5214C31.6438 10.7454 30.7737 10.445 30.05 10.4465C28.5743 10.4366 27.0983 10.4451 25.6225 10.4422C25.6321 9.31122 25.6026 8.17894 25.6385 7.04878C25.7554 5.57401 27.1396 4.35782 28.6315 4.38421C30.1034 4.38419 31.5753 4.38424 33.0471 4.38419Z" fill="url(#paint0_linear_678_5379)"/>
<path fill-rule="evenodd" clip-rule="evenodd" d="M8.9455 7.20179C8.9832 5.7023 10.3392 4.40795 11.8505 4.38607C13.3594 4.38151 14.8684 4.38543 16.3773 4.38412C16.3732 9.40114 16.3856 14.4185 16.3711 19.4353C16.313 20.9166 14.9717 22.1862 13.4771 22.2123C11.9653 22.2178 10.4533 22.2131 8.9415 22.2147V15.9518C10.41 16.2938 11.9499 16.4394 13.448 16.2125C14.3436 16.0703 15.3233 15.637 15.6265 14.7212C15.8497 13.9378 15.724 13.1134 15.7572 12.3094V10.4422H13.1646C13.1529 11.6771 13.1884 12.9142 13.1458 14.1476C13.0759 14.9058 12.3144 15.3875 11.589 15.3618C10.6893 15.3711 8.90669 14.7192 8.90669 14.7192C8.90221 12.4053 8.93283 9.50778 8.9455 7.20179Z" fill="url(#paint1_linear_678_5379)"/>
<path fill-rule="evenodd" clip-rule="evenodd" d="M17.3443 11.1955C17.208 11.2241 17.3168 10.7373 17.2819 10.5526C17.2912 9.38508 17.2625 8.21631 17.2978 7.04961C17.4144 5.56862 18.8093 4.34938 20.3072 4.38402H24.7181C24.7139 9.40101 24.7263 14.4183 24.7118 19.4351C24.6536 20.9164 23.3123 22.186 21.8177 22.2122C20.3058 22.2177 18.7938 22.213 17.2819 22.2146V15.3532C18.3146 16.1883 19.7179 16.3183 21.0043 16.3206C21.9741 16.3203 22.9382 16.1729 23.8799 15.9524V14.6953C22.8185 15.2168 21.5709 15.5479 20.3943 15.2483C19.5736 15.0468 18.9779 14.2651 18.9912 13.4302C18.896 12.5619 19.4125 11.6452 20.2781 11.3871C21.3528 11.0554 22.5242 11.3091 23.5315 11.7403C23.7473 11.8517 23.9663 11.9899 23.8799 11.6342V10.6461C22.1952 10.251 20.4023 10.1056 18.7095 10.5355C18.2196 10.6717 17.7423 10.8783 17.3443 11.1955Z" fill="url(#paint2_linear_678_5379)"/>
</g>
<defs>
<linearGradient id="paint0_linear_678_5379" x1="25.6225" y1="13.2995" x2="33.0592" y2="13.2995" gradientUnits="userSpaceOnUse">
<stop stop-color="#007B40"/>
<stop offset="1" stop-color="#55B330"/>
</linearGradient>
<linearGradient id="paint1_linear_678_5379" x1="8.9415" y1="13.2994" x2="16.3773" y2="13.2994" gradientUnits="userSpaceOnUse">
<stop stop-color="#1D2970"/>
<stop offset="1" stop-color="#006DBA"/>
</linearGradient>
<linearGradient id="paint2_linear_678_5379" x1="17.2819" y1="13.2993" x2="24.7181" y2="13.2993" gradientUnits="userSpaceOnUse">
<stop stop-color="#6E2B2F"/>
<stop offset="1" stop-color="#E30138"/>
</linearGradient>
<clipPath id="clip0_678_5379">
<rect width="42" height="26" fill="white" transform="translate(0 0.299316)"/>
</clipPath>
</defs>
</svg>
