<svg width="45" height="45" viewBox="0 0 45 45" fill="none" xmlns="http://www.w3.org/2000/svg">
<rect width="45" height="45" fill="#11B6EF"/>
<path d="M21.9996 20.3479L25.9373 18.7749L16.1873 14.8749L12.8255 16.2191C12.6559 16.2867 12.4966 16.3777 12.3523 16.4895L21.9996 20.3492V20.3479ZM11.6451 17.6088C11.6148 17.7467 11.5995 17.8875 11.5996 18.0287V27.9685C11.5995 28.3583 11.7163 28.7392 11.9348 29.062C12.1533 29.3848 12.4636 29.6347 12.8255 29.7794L20.3096 32.7733C20.6476 32.9085 20.996 33.0008 21.3496 33.0515V30.2318C20.9212 29.4029 20.6983 28.4831 20.6996 27.5499C20.6996 26.584 20.9336 25.6714 21.3496 24.868V21.4893L11.6451 17.6075V17.6088ZM32.3996 27.455V18.03C32.3996 17.8857 32.384 17.744 32.3541 17.6075L22.6496 21.4893V23.1884C23.4854 22.4407 24.5185 21.9489 25.6258 21.7716C26.7332 21.5944 27.8682 21.7392 28.8956 22.1888C29.923 22.6384 30.7995 23.3738 31.4208 24.3075C32.042 25.2411 32.3818 26.3337 32.3996 27.455V27.455ZM31.6469 16.4895L27.6871 18.0742L17.9371 14.1742L20.3096 13.2239C21.3945 12.7899 22.6047 12.7899 23.6896 13.2239L31.1737 16.2178C31.3433 16.2854 31.5026 16.3764 31.6469 16.4882V16.4895ZM30.1935 30.2747C30.8824 29.3535 31.1968 28.2055 31.0734 27.0618C30.9499 25.9181 30.3979 24.8636 29.5283 24.1105C28.6588 23.3574 27.5362 22.9617 26.3866 23.0029C25.237 23.0441 24.1457 23.5192 23.3323 24.3326C22.5189 25.146 22.0437 26.2373 22.0025 27.3869C21.9613 28.5365 22.3571 29.6591 23.1102 30.5287C23.8633 31.3982 24.9178 31.9503 26.0615 32.0737C27.2052 32.1971 28.3532 31.8827 29.2744 31.1938L32.5894 34.5088C32.6498 34.5693 32.7214 34.6172 32.8003 34.65C32.8792 34.6827 32.9637 34.6996 33.0492 34.6996C33.1346 34.6997 33.2191 34.6829 33.2981 34.6503C33.377 34.6177 33.4487 34.5698 33.5092 34.5095C33.5696 34.4491 33.6176 34.3775 33.6503 34.2986C33.683 34.2197 33.6999 34.1352 33.7 34.0497C33.7 33.9643 33.6833 33.8798 33.6506 33.8008C33.618 33.7219 33.5702 33.6502 33.5098 33.5897L30.1948 30.2747H30.1935ZM29.7996 27.5486C29.7996 28.4106 29.4572 29.2372 28.8477 29.8467C28.2382 30.4562 27.4116 30.7986 26.5496 30.7986C25.6877 30.7986 24.861 30.4562 24.2515 29.8467C23.642 29.2372 23.2996 28.4106 23.2996 27.5486C23.2996 26.6867 23.642 25.86 24.2515 25.2505C24.861 24.641 25.6877 24.2986 26.5496 24.2986C27.4116 24.2986 28.2382 24.641 28.8477 25.2505C29.4572 25.86 29.7996 26.6867 29.7996 27.5486V27.5486Z" fill="white"/>
</svg>
