<svg width="45" height="45" viewBox="0 0 45 45" fill="none" xmlns="http://www.w3.org/2000/svg">
<rect width="45" height="45" fill="#33B7D3"/>
<path d="M26.8814 13.6298C26.7454 15.1194 25.936 16.0784 24.5008 16.5273C22.5624 17.1259 22.2359 15.0378 21.2633 14.0992C20.0322 12.9021 18.6719 12.8341 17.0123 12.8341C14.2985 12.8341 10.8297 14.0311 11.0065 17.2551C11.1289 19.4384 14.5297 19.4452 14.4073 17.2551C14.3529 16.3165 16.4886 16.2348 17.0123 16.2348C18.2162 16.2348 18.7127 16.3709 19.3861 17.4727C20.1886 18.7854 21.8754 19.8329 23.4126 19.9281C27.2555 20.1594 29.9421 17.3095 30.2754 13.6298C30.4794 11.4465 27.0787 11.4669 26.8814 13.6298Z" fill="white"/>
<path d="M30.9607 28.6067C30.3962 29.9942 29.1991 30.654 27.4171 30.6064C25.0161 30.5452 25.2066 28.4299 24.3496 27.2056C23.2545 25.648 21.7038 25.1379 19.7857 24.5938C16.657 23.7028 12.3176 23.7028 11.6374 26.8655C11.1749 29.0012 15.0994 30.1303 15.5619 27.9878C15.7592 27.0696 18.2486 27.6953 18.8539 27.8653C20.2414 28.2598 20.7788 28.5591 21.2549 29.8378C21.8262 31.3614 23.479 32.9257 25.2338 33.5243C29.6072 35.0138 33.4909 33.157 34.8853 29.7222C35.715 27.6953 31.7837 26.5934 30.9607 28.6067Z" fill="white"/>
</svg>
