<svg width="45" height="45" viewBox="0 0 45 45" fill="none" xmlns="http://www.w3.org/2000/svg">
<rect width="45" height="45" fill="#E35738"/>
<path d="M13.5058 19.7016C11.9472 19.0466 12.1914 19.2769 11.2627 18.6529C10.3534 18.0419 9.95552 17.5482 8.95572 17.4366C8.36964 17.3711 7.82736 17.6101 7.5968 18.83C7.22116 20.8171 8.98733 21.4591 9.61507 22.0471C10.2428 22.6352 10.9079 23.2973 11.657 23.9465C12.4062 24.5957 13.5597 24.8317 14.349 24.6021C15.1384 24.3726 15.6591 22.6438 15.1025 21.4116C14.5602 20.2118 14.0244 19.9196 13.5058 19.7016Z" fill="white"/>
<path d="M18.2364 14.1171C16.5327 14.3755 15.8202 15.196 15.051 16.7981C14.2817 18.4002 13.7962 19.5345 13.1684 19.7684C12.5407 20.0023 11.7923 21.8073 12.1162 23.4094C12.4401 25.0115 14.3284 25.2224 14.9727 24.3422C15.6162 23.462 16.2246 22.1111 17.6216 21.1581C19.0185 20.2052 19.614 18.6837 19.4581 16.6764C19.3008 14.6684 18.895 14.0178 18.2364 14.1171Z" fill="white"/>
<path d="M12.463 19.6771C12.8731 19.2964 14.0467 18.8588 14.9776 19.7383C15.9084 20.6171 16.1534 22.1904 15.708 23.2261C15.318 24.1336 14.8497 24.8498 14.1969 24.867C13.1461 24.8958 12.5973 24.3963 11.9495 22.9698C11.3016 21.5434 11.8008 20.2925 12.463 19.6771Z" fill="white"/>
<path opacity="0.1" d="M15.7074 23.2262C16.1685 22.5245 16.7367 21.7616 17.6208 21.1577C18.6587 20.4495 19.2541 19.4275 19.4272 18.1255L19.359 15.79L17.317 16.1082C16.5212 17.4058 16.5341 19.6521 16.305 19.8673C16.0759 20.0832 16.05 19.7715 15.7591 19.6096C15.4683 19.4477 16.4127 20.4481 16.2511 21.2995C16.0895 22.1509 15.5494 23.1621 15.158 23.8056C14.7665 24.4497 15.5623 23.1031 15.5085 21.7234C15.4553 20.3437 13.9384 19.1396 13.1246 19.5571C13.5793 19.5959 14.7529 20.3257 14.9016 21.7587C15.0502 23.1917 14.9411 23.9826 14.429 24.2899C13.9168 24.5973 12.1492 23.7185 11.6501 23.3061C11.1509 22.8937 11.7413 23.7127 12.856 24.1885C13.9707 24.6649 12.1959 24.3806 11.3498 23.4752C10.5037 22.5691 9.99092 22.0559 9.73451 21.7716C9.47809 21.4881 9.20013 21.0548 8.6241 20.6899C8.04807 20.325 7.82828 19.3786 8.34255 19.3786C8.85753 19.3786 9.83793 17.834 8.7541 17.6332C7.67027 17.4317 7.36932 19.4858 7.89723 20.2573C8.42514 21.0289 8.85178 20.9778 9.56428 21.8263C9.70003 21.9883 9.85158 22.1948 10.0168 22.4273C10.5267 22.9131 11.0654 23.4335 11.6565 23.9459C12.0049 24.2475 12.4401 24.4591 12.8862 24.5771C13.1821 24.7671 13.5254 24.8578 13.8544 24.8556C13.9628 24.8664 14.0763 24.8708 14.1962 24.8672C14.8491 24.8499 15.3174 24.1338 15.7074 23.2262Z" fill="black"/>
<path d="M9.00693 17.6648C9.30429 17.7792 9.12472 18.4421 8.69306 18.9423C8.26139 19.4425 7.62287 19.2899 7.55536 19.0049C7.48856 18.7199 7.15099 18.604 7.01596 18.3204C6.88093 18.0368 7.63652 17.1984 8.01432 17.1034C8.39211 17.0084 8.36482 17.279 8.49985 17.3869C8.6356 17.4956 8.74334 17.5633 9.00693 17.6648Z" fill="white"/>
<path opacity="0.15" d="M17.8428 14.1909C16.4171 14.5134 15.757 15.3252 15.0503 16.7977C14.5454 17.85 14.1618 18.7007 13.7811 19.2268C13.4271 19.2153 13.0959 19.3053 12.8381 19.4298C11.997 19.1009 12.0286 19.1671 11.2623 18.6525C10.353 18.0414 9.95506 17.5477 8.95526 17.4361C8.82598 17.4217 8.69885 17.4225 8.57674 17.4448C8.55161 17.4268 8.52647 17.4074 8.50061 17.3865C8.39647 17.303 8.38785 17.1231 8.21475 17.0892C8.23773 17.1137 8.26215 17.1425 8.28801 17.1778C8.4805 17.4412 8.23701 17.837 8.13574 18.0601C8.19105 18.2221 8.69741 18.6892 8.81951 18.633C9.21886 18.1012 9.07162 17.7694 9.07162 17.7694C9.47455 17.4973 10.261 18.1494 10.6388 18.6057C11.0166 19.062 11.1517 19.0821 12.3928 19.6169C13.6339 20.1509 13.9442 21.1787 13.9442 21.9488C13.9442 22.7196 14.5511 23.869 14.4434 21.8142C14.3356 19.7601 12.9695 19.4816 12.9695 19.4816C13.4766 19.2858 13.7819 19.2268 14.7034 19.7659C15.6256 20.3057 16.0896 22.6383 15.8066 21.1139C15.5236 19.5895 14.592 19.2448 14.2947 19.2282C13.9981 19.2117 14.2135 18.7172 14.875 18.9375C15.5365 19.1577 15.8576 19.4629 15.5933 19.198C14.6682 18.271 14.3622 18.7979 14.4699 18.3531C14.5777 17.9083 15.8483 15.436 15.9072 15.8643C15.966 16.2925 16.3726 16.6351 16.6563 15.7189C16.8926 14.9545 17.2215 14.4997 17.8428 14.1909Z" fill="white"/>
<path opacity="0.2" d="M26.7973 31.9086C26.4224 33.2926 26.64 33.1846 24.1564 33.6985C21.6727 34.2124 19.1373 33.4819 18.3673 32.6168C17.5981 31.7517 19.2709 31.9086 19.2709 31.9086H26.7973Z" fill="black"/>
<path d="M27.3118 31.4408C26.9893 31.7539 26.9901 31.8943 26.9635 32.1483C26.9362 32.4024 26.9778 32.4578 26.572 32.7543C26.302 32.9515 24.7032 33.6007 21.4043 33.32C18.7044 33.0904 17.7283 31.995 17.8245 31.4732C17.8245 31.0248 18.0228 31.0831 17.7505 30.6671C17.4783 30.2511 19.7724 29.8726 22.2008 30.0618C24.6292 30.2511 28.1055 30.67 27.3118 31.4408Z" fill="white"/>
<path d="M25.7639 13.0838C26.9784 13.7682 29.0599 14.172 29.4542 14.2224C29.8485 14.2728 31.6132 14.4728 31.6405 18.1772C31.6678 21.8817 29.6704 23.4499 29.266 25.2622C28.8609 27.0737 28.9421 27.6149 29.0498 28.94C29.1576 30.265 28.7158 30.6709 27.9251 31.2387C27.1343 31.8066 24.6125 32.1463 22.5045 32.1463C20.3971 32.1463 18.4586 31.1574 17.8107 30.5082C17.1629 29.859 17.3388 29.4675 17.4466 29.3588C17.1227 28.845 17.244 28.7773 17.5414 27.9935C17.838 27.209 17.9465 26.7901 17.7166 24.7756C17.4868 22.7611 17.6355 23.3693 17.1902 22.0105C16.7449 20.6516 16.5603 18.2327 17.0386 16.311C17.517 14.3894 18.4054 14.0935 18.9362 13.959C19.467 13.8244 20.6313 13.6041 21.1168 13.553C21.6023 13.5027 22.0426 13.2486 23.1329 13.0053C24.2225 12.7628 25.4529 12.9089 25.7639 13.0838Z" fill="white"/>
<path opacity="0.1" d="M25.0092 17.5993C25.4365 17.8289 25.8043 18.3809 25.7842 19.1409C25.7641 19.9009 25.2175 20.3644 24.8533 20.5228C24.4892 20.6818 23.4908 20.5401 23.1906 19.3784C23.1331 19.667 23.424 20.3292 23.962 20.576C24.4992 20.8229 23.508 20.7524 23.103 19.7584C22.6979 18.7645 23.3256 17.7922 23.781 17.6345C24.2356 17.4776 24.6695 17.4172 25.0092 17.5993Z" fill="black"/>
<path opacity="0.1" d="M28.2681 14.5928C27.7258 15.1851 27.1311 16.7836 27.4277 18.693C27.7244 20.6032 27.8019 21.3222 28.0303 22.1218C28.3923 23.3928 29.4079 23.7627 30.129 22.6558C30.8502 21.5496 31.4061 18.2346 30.9981 16.8066C30.5909 15.3787 29.0617 13.7255 28.2681 14.5928Z" fill="black"/>
<path opacity="0.25" d="M28.4586 14.0802C27.6348 13.9003 26.3714 13.5598 25.5267 13.0841C25.2157 12.9092 23.9854 12.7631 22.8951 13.0064C21.8048 13.2496 21.3645 13.503 20.879 13.5541C20.6613 13.5771 20.3065 13.634 19.9338 13.7016C19.9338 13.7023 19.8928 13.8844 20.109 14.037C20.3058 14.1759 21.0722 15.2332 21.2718 15.7564C21.2855 15.8018 21.2999 15.8478 21.3135 15.8968C21.4651 16.4243 21.4148 16.4949 21.1009 17.6306C20.787 18.7663 20.4839 20.906 20.4839 22.9342C20.4839 24.9624 20.6764 25.672 20.5177 26.4731C20.359 27.2741 20.3317 27.254 20.4466 28.3285C20.5615 29.403 20.3927 29.9205 20.2203 30.5798C20.0487 31.2383 20.3087 31.8335 20.6944 31.9732C20.8624 32.0092 21.0334 32.0408 21.2072 32.066C21.0011 31.9199 20.6958 31.4406 20.6348 30.9648C20.5737 30.4884 20.851 29.9133 20.7159 28.3451C20.5809 26.7768 21.121 27.0201 20.9745 25.6677C20.828 24.3153 20.9321 20.7196 21.4909 18.3935C21.8673 16.8259 22.2918 16.4625 22.8786 16.0789C24.198 15.3383 26.296 13.8765 28.4586 14.0802Z" fill="black"/>
<path d="M22.1489 15.764C23.2881 15.7956 24.0745 15.2774 25.3307 14.5671C26.587 13.8574 28.1965 14.0244 28.4594 14.0798C28.5305 13.6753 27.6665 12.7829 27.0869 12.965C27.033 12.3359 26.1883 11.9055 24.0695 12.0178C21.9507 12.1301 20.976 12.9801 21.0012 13.255C20.5559 13.1874 20.0287 13.5098 19.9346 13.7005C19.9755 13.8639 20.4481 14.0935 20.8259 14.729C21.2037 15.3652 21.4213 15.7438 22.1489 15.764Z" fill="white"/>
<path opacity="0.2" d="M25.4219 12.2694C25.6999 12.3298 25.9384 12.5551 25.5282 13.0719C25.1181 13.5894 24.3137 14.2227 22.9426 14.4106C21.5714 14.5984 21.3538 13.8175 21.2827 13.4828C21.2116 13.1482 21.4192 13.29 22.1324 13.0013C22.8456 12.7127 24.5565 12.0808 25.4219 12.2694Z" fill="black"/>
<path opacity="0.2" d="M22.5002 14.9244C24.795 14.9244 26.021 13.2431 27.0869 12.966C27.0869 12.966 26.7493 12.6889 26.2774 12.9934C25.8055 13.2978 25.1842 14.0679 24.1054 14.4465C23.0259 14.8251 22.0082 14.946 21.4932 14.2435C20.9789 13.5418 21.0005 13.2014 21.2052 12.9322C21.0622 13.0653 20.9954 13.1819 21.0019 13.2568C20.8525 13.9456 21.3653 14.9244 22.5002 14.9244Z" fill="black"/>
<path opacity="0.2" d="M25.7251 14.2443C24.0501 15.1223 22.1001 15.6067 21.4019 14.8236C21.6483 15.2029 22.2049 15.5261 23.6472 15.1763C23.0352 15.4347 22.266 15.6477 21.6411 15.3944C21.0162 15.141 20.8288 14.4465 20.4546 14.1039C20.0804 13.762 20.1048 13.526 20.2621 13.4209C20.099 13.5109 19.9755 13.6188 19.9346 13.7016C19.9755 13.865 20.4481 14.0946 20.8259 14.7301C21.2037 15.3656 21.4213 15.7442 22.1489 15.7643C23.2881 15.796 24.0745 15.2778 25.3307 14.5674C26.587 13.8578 28.1965 14.0247 28.4594 14.0802C28.2835 13.5979 27.4 13.3662 25.7251 14.2443Z" fill="black"/>
<path opacity="0.15" d="M28.3815 13.755C28.1602 13.3318 27.5382 12.8237 27.0865 12.9654C27.0491 12.53 26.6325 12.1896 25.6758 12.0586C25.6277 12.1205 25.6528 12.2047 25.7376 12.2695C25.9437 12.4257 25.8252 12.7013 25.7642 12.8532C25.7031 13.005 25.7541 13.2591 25.8784 13.1367C26.0026 13.0144 26.1994 12.8323 26.5234 12.7618C26.8473 12.6905 27.0154 12.9208 27.0154 12.9208L26.4321 13.0792L24.8369 14.2926C24.8369 14.2926 25.1371 14.2019 25.6126 13.886C26.0881 13.57 26.9076 13.167 26.8071 13.3361C26.7058 13.5045 26.0888 13.8471 26.9723 13.624C27.6761 13.4462 28.161 13.5333 28.3815 13.755Z" fill="white"/>
<path opacity="0.1" d="M19.8677 17.5829L19.8138 18.0968C19.8138 18.0968 19.3548 18.1242 19.018 17.9212C18.6804 17.7182 18.5863 17.9075 18.3838 17.9615C18.1812 18.0155 17.8307 17.9075 17.6282 17.9888C17.5068 17.9212 17.6282 17.6376 17.6282 17.6376C17.6282 17.6376 18.0333 17.8132 18.2085 17.665C18.3838 17.516 18.6 17.3814 18.7479 17.4757C18.8966 17.5707 19.301 17.6513 19.4762 17.6376C19.6522 17.6232 19.8677 17.5829 19.8677 17.5829Z" fill="black"/>
<path opacity="0.1" d="M19.3724 18.3598C19.6863 18.3332 19.7466 18.4311 19.7164 18.5729C19.6863 18.7147 19.6726 18.8564 19.5477 18.8262C19.4227 18.796 19.0485 18.8262 19.0585 18.6434C19.0686 18.4606 19.0449 18.4707 19.0312 18.4037C19.0183 18.3361 19.1361 18.38 19.3724 18.3598Z" fill="black"/>
<path opacity="0.1" d="M18.6265 18.3194C18.6459 18.454 18.6875 18.5151 18.5654 18.6576C18.444 18.7994 17.85 18.6915 17.7962 18.5936C17.7423 18.4957 17.715 18.3266 17.7351 18.2927C17.7552 18.2589 18.0526 18.2589 18.1869 18.2524C18.3227 18.2445 18.6071 18.1848 18.6265 18.3194Z" fill="black"/>
<path opacity="0.25" d="M28.6108 25.9044C28.4083 26.7155 28.024 27.1618 27.1944 27.2431C26.3648 27.3244 25.5755 26.432 25.4541 25.6611C25.4541 25.6611 25.717 26.5234 26.3648 26.7767C27.0127 27.03 27.8983 26.9804 28.2474 26.4723C28.595 25.9649 28.6108 25.9044 28.6108 25.9044Z" fill="black"/>
<path d="M24.3908 20.3115C25.1028 20.3115 25.6801 19.6915 25.6801 18.9267C25.6801 18.162 25.1028 17.542 24.3908 17.542C23.6788 17.542 23.1016 18.162 23.1016 18.9267C23.1016 19.6915 23.6788 20.3115 24.3908 20.3115Z" fill="white"/>
<path opacity="0.2" d="M24.2406 19.9608C24.7979 19.9608 25.2497 19.4758 25.2497 18.8776C25.2497 18.2794 24.7979 17.7944 24.2406 17.7944C23.6832 17.7944 23.2314 18.2794 23.2314 18.8776C23.2314 19.4758 23.6832 19.9608 24.2406 19.9608Z" fill="white"/>
<path opacity="0.2" d="M24.398 17.6094C24.2127 17.6094 24.0381 17.6576 23.8816 17.7404C23.9994 17.6936 24.125 17.6662 24.2572 17.6662C24.8648 17.6662 25.3583 18.2096 25.3583 18.8797C25.3583 19.5497 24.8656 20.0931 24.2572 20.0931C23.8945 20.0931 23.5734 19.8988 23.373 19.6001C23.5813 19.9852 23.962 20.2436 24.398 20.2436C25.058 20.2436 25.5924 19.6541 25.5924 18.9265C25.5924 18.1988 25.058 17.6094 24.398 17.6094Z" fill="black"/>
<path opacity="0.5" d="M25.0082 19.1808C25.0082 19.1808 25.0233 19.3478 24.963 19.424C24.9019 19.5003 23.8296 19.2513 23.334 19.2772C23.2988 19.206 23.334 19.044 23.334 19.044C23.334 19.044 23.8799 18.9325 25.0082 19.1808Z" fill="black"/>
<path opacity="0.5" d="M24.7651 18.878C24.7651 19.3026 24.077 18.5174 23.5512 18.8153C23.4974 18.4907 24.1043 17.9106 24.2393 17.9106C24.3736 17.9099 24.7651 18.349 24.7651 18.878Z" fill="black"/>
<path opacity="0.25" d="M18.0705 26.0716C18.2235 25.3619 18.0999 24.897 18.0999 24.897C18.1136 25.6138 17.8816 26.6207 17.6029 26.489C17.6022 26.6387 17.5957 26.7718 17.585 26.8942C17.585 26.8942 17.9175 26.7812 18.0705 26.0716Z" fill="black"/>
<path opacity="0.2" d="M23.8647 17.5232C23.3483 17.706 23.0043 18.1623 22.954 18.6992C22.8728 18.3645 23.1055 17.9205 23.3383 17.6865C23.5717 17.4526 23.8647 17.5232 23.8647 17.5232Z" fill="black"/>
<path d="M34.5741 20.8243C34.5195 20.0585 34.2732 19.7016 33.3244 18.8242C32.3756 17.9469 32.1565 17.2739 31.9231 16.5571C31.7457 16.0123 31.4706 15.3213 30.8091 14.7614C30.172 14.2223 29.3819 14.2079 29.2196 14.223C28.1429 14.3202 27.554 16.1749 27.8075 18.1952C28.0991 20.5206 30.5074 23.1238 31.0475 23.4599C31.5876 23.7968 34.8751 25.0764 34.5741 20.8243Z" fill="white"/>
<path opacity="0.15" d="M31.3669 16.1889C30.6774 15.8247 29.1353 16.2515 28.6598 16.8956C28.1844 17.5398 27.7125 15.4907 28.6347 14.5666C28.9141 14.2866 29.8026 14.0175 30.7923 14.8574C31.4244 15.3943 31.7828 16.4084 31.3669 16.1889Z" fill="white"/>
<path opacity="0.15" d="M34.5733 20.8243C34.5187 20.0585 34.2723 19.7016 33.3235 18.8242C32.3747 17.9469 32.1557 17.2739 31.9222 16.5571C31.7448 16.0123 31.4697 15.3213 30.8082 14.7614C30.1711 14.2223 29.3811 14.2079 29.2188 14.223C30.1029 14.3627 31.2112 15.2119 31.5502 16.8133C31.3096 16.6269 30.5647 16.6046 30.3349 16.6485C30.6854 16.6924 31.594 16.9443 31.7685 17.559C31.9438 18.1729 32.2921 18.74 33.0484 19.3122C33.4097 19.5857 34.0762 20.4263 34.5898 21.4987C34.5955 21.2907 34.5905 21.0669 34.5733 20.8243Z" fill="white"/>
<path d="M35.0004 20.9156C34.9989 20.5687 34.9386 20.0318 34.4639 19.7295C34.3813 19.4445 34.4186 19.2314 33.9359 19.0018C33.4533 18.7722 32.1827 18.4037 31.114 19.2365C30.0452 20.0692 29.1761 23.1309 31.1355 24.2054C34.3978 25.9932 35.0025 21.6446 35.0004 20.9156Z" fill="white"/>
<path opacity="0.15" d="M34.9961 20.77C34.976 20.4317 34.8762 19.9927 34.4639 19.73C34.3813 19.4449 34.4186 19.2319 33.936 19.0023C33.4533 18.7727 32.1827 18.4042 31.114 19.2369C31.0767 19.2665 31.0393 19.2988 31.002 19.3341C31.9285 18.6353 33.862 19.1441 33.9985 19.2262C34.1357 19.3082 34.0753 19.4349 34.1191 19.55C33.9547 19.5004 33.8182 19.4788 33.4346 19.4241C34.54 19.73 34.9343 20.3842 34.9961 20.77Z" fill="white"/>
<path d="M31.3748 19.578C33.1043 19.1829 35.1621 19.6874 34.8776 21.6623C34.8338 22.4303 35.1498 23.0881 34.9042 23.5271C34.6586 23.9662 34.3196 24.4268 33.6739 24.2181C32.6338 24.5247 31.7468 24.3167 30.5868 23.3731C29.4269 22.4296 28.6167 21.4644 28.5068 20.5871C28.3976 19.7097 29.47 19.3369 29.7328 19.3369C29.9957 19.3362 31.3748 19.578 31.3748 19.578Z" fill="white"/>
<path opacity="0.05" d="M33.6741 24.2176C32.8129 23.7094 32.4301 23.4324 31.7492 22.6709C31.0683 21.9094 30.4729 21.261 30.6991 20.647C30.9132 20.0662 30.8162 19.299 29.8961 19.3487C29.8258 19.3407 29.7697 19.3364 29.7338 19.3364C29.4709 19.3364 28.3986 19.7092 28.5078 20.5866C28.6169 21.4639 29.4271 22.4291 30.5878 23.3726C31.7471 24.3169 32.6341 24.5249 33.6741 24.2176Z" fill="black"/>
<path opacity="0.05" d="M28.5791 20.9165C28.8226 21.7032 29.5703 22.546 30.5866 23.3722C31.7466 24.3157 32.6336 24.5237 33.6736 24.2171C34.3193 24.4259 34.659 23.9645 34.904 23.5262C35.0476 23.2693 34.9988 22.9368 34.9428 22.5517C34.9823 22.8454 34.9435 23.2707 34.6073 23.6212C34.2719 23.9724 34.0816 24.2503 32.8124 23.709C32.8419 23.9285 33.104 24.0127 33.104 24.0127C33.104 24.0127 32.0533 24.0451 31.1188 23.2844C30.1844 22.5236 29.8928 21.8802 29.8051 21.6168C29.7175 21.3534 29.7319 21.968 29.9804 22.3919C30.1477 22.6791 29.1702 21.8658 28.5791 20.9165Z" fill="black"/>
<path opacity="0.3" d="M33.0162 19.8925C33.0162 19.8925 32.4905 19.8047 32.2427 19.7169C35.454 19.5413 34.666 22.4087 34.4901 22.6714C34.6459 22.4677 34.7731 22.2295 34.8772 21.9682C34.8722 21.8682 34.8715 21.7667 34.8772 21.6623C35.1616 19.6881 33.1039 19.1836 31.3743 19.578C31.3743 19.578 29.9953 19.3369 29.7324 19.3369C29.7324 19.3369 30.5864 19.6111 31.3636 19.8083C32.1407 20.0055 33.0162 19.8925 33.0162 19.8925Z" fill="white"/>
<path opacity="0.15" d="M28.8129 28.9393C28.7052 27.6143 28.624 27.0738 29.0291 25.2615C29.1246 24.8347 29.3085 24.4216 29.5333 23.9912C29.1139 24.5454 27.8799 24.7786 27.8799 24.7786C27.8799 24.7786 28.2161 24.9815 28.665 24.8909C28.7476 24.8743 27.7988 26.3397 28.6894 25.5285C28.7397 25.8834 28.4768 26.6743 28.0616 26.9687C27.6465 27.2631 27.0798 27.4552 26.5181 27.1565C26.6395 27.3797 27.2349 27.6236 27.7471 27.5063C28.1019 27.425 28.2685 30.4061 27.5962 30.8322C26.9031 31.2712 26.5031 31.562 25.7345 31.6534C24.9653 31.7448 24.864 31.3324 23.508 31.5353C22.1519 31.7383 21.4452 31.9981 21.1155 31.6634C20.7858 31.3288 20.7456 30.9027 20.7858 30.6393C20.6846 30.7004 20.6996 31.3489 20.9582 31.6836C21.2161 32.0183 20.7506 31.7088 20.5639 31.6836C20.3764 31.6584 20.4073 31.8052 20.2859 31.6886C20.1645 31.572 20.0008 31.0797 20.176 30.5795C20.0934 30.5932 19.957 30.8926 19.9972 31.2064C20.0374 31.5209 19.9211 31.5713 19.4657 31.3791C19.0103 31.1863 18.4759 31.1359 17.9294 30.6083C17.3828 30.0808 17.0919 29.8109 17.2104 29.3574C17.1027 29.4654 16.9267 29.8577 17.5746 30.5068C18.2224 31.156 20.161 32.1449 22.2683 32.1449C24.3763 32.1449 26.8981 31.8052 27.6889 31.2374C28.4789 30.6702 28.9207 30.2643 28.8129 28.9393Z" fill="white"/>
<path opacity="0.15" d="M28.0076 14.7025C27.5055 15.2156 27.1967 16.4046 27.1335 17.4324C27.0703 18.4608 26.4425 17.1725 26.5036 16.519C26.5646 15.8648 26.1854 16.0678 25.8787 16.1088C25.572 16.1491 25.6833 14.5398 27.117 14.2159C27.9458 14.0288 28.825 14.1857 28.547 14.2936C28.3854 14.357 28.2604 14.4441 28.0076 14.7025Z" fill="white"/>
<path opacity="0.15" d="M18.2707 25.8418C18.1192 26.9084 17.5855 26.979 17.5855 26.979C17.5855 26.979 17.5819 26.9797 17.5769 26.9804C17.5331 27.3626 17.4383 27.6411 17.3047 27.993C17.1919 28.291 17.105 28.4846 17.0576 28.6394C17.128 29.3396 18.0646 29.7852 18.0172 29.6419C17.9633 29.48 17.5044 29.1691 17.4505 28.8308C17.3966 28.4925 17.5044 28.5875 17.7708 27.9383C18.038 27.2906 18.3411 26.858 18.2707 25.8418Z" fill="white"/>
<path opacity="0.15" d="M19.7339 14.3202C19.749 14.3266 19.7648 14.3331 19.7806 14.3396C19.889 14.3828 20.0262 14.4288 20.2158 14.5123C20.1347 14.2266 19.5414 14.1222 19.6298 13.7588C19.2721 13.8279 18.9273 13.9013 18.6989 13.9596C18.1681 14.0942 17.2797 14.3893 16.8013 16.3116C16.323 18.2333 16.5075 20.6523 16.9529 22.0111C17.3982 23.3699 17.2495 22.7618 17.4793 24.7763C17.5662 25.5421 17.605 26.0775 17.6029 26.4899C17.837 25.5536 17.6517 24.2084 17.5619 23.0914C17.4714 21.9744 16.7783 21.3626 17.3012 21.7275C17.8241 22.0924 18.1107 22.2162 17.5741 21.7074C17.0376 21.1985 16.7683 20.2176 16.8092 19.066C16.8279 18.5356 16.8437 18.1138 16.8739 17.7453C16.8753 17.7331 16.876 17.7194 16.8774 17.7043C16.8789 17.6885 16.8803 17.6734 16.8818 17.6575C16.9435 17.0623 17.4966 15.9158 17.4772 16.2879C17.4571 16.6693 17.7602 16.8802 18.064 16.2713C18.3678 15.6632 18.732 15.068 19.3812 15.2033C20.0305 15.3386 19.8115 15.109 19.6456 14.811C19.4926 14.5354 19.5493 14.264 19.7339 14.3202Z" fill="white"/>
<path opacity="0.15" d="M26.9182 31.8057C26.7257 32.3757 27.1667 32.2411 26.4226 32.6981C25.6785 33.1551 24.5638 33.1479 24.5638 33.1479C24.5638 33.1479 24.5566 32.5909 24.6119 32.506C24.8439 32.1461 25.6139 32.2908 26.0786 32.0655C26.0786 32.0655 26.0383 32.5124 26.0175 32.6175C25.9974 32.7219 26.2057 32.7147 26.2538 32.6427C26.3019 32.5707 26.2617 32.3534 26.3098 32.1691C26.358 31.9842 26.4061 32.0489 26.5102 31.9525C26.6151 31.8553 26.7099 32.0468 26.9182 31.8057Z" fill="white"/>
<path opacity="0.15" d="M18.0428 31.106C18.0428 31.106 17.9379 31.3262 17.9415 31.6234C17.9451 31.9207 18.3157 32.146 18.3157 32.146C18.3157 32.146 18.2755 32.0114 18.3157 31.7004C18.3559 31.3902 18.4069 31.3701 18.3157 31.2888C18.2252 31.2074 18.0428 31.106 18.0428 31.106Z" fill="white"/>
<path opacity="0.15" d="M24.2366 32.4768C24.3566 32.525 24.3781 32.5833 24.3515 32.8467C24.3243 33.1102 24.3989 33.1713 24.1627 33.2116C23.9264 33.2519 23.9781 33.1505 23.996 32.8871C24.014 32.6236 23.889 32.3365 24.2366 32.4768Z" fill="white"/>
</svg>
