<svg width="45" height="45" viewBox="0 0 45 45" fill="none" xmlns="http://www.w3.org/2000/svg">
<rect width="45" height="45" fill="#3A8BD3"/>
<path d="M18.9063 24.257C17.7313 24.257 16.7783 23.304 16.7783 22.129C16.7783 20.954 17.7313 20.001 18.9063 20.001C20.0813 20.001 21.0343 20.954 21.0343 22.129C21.0343 23.304 20.0813 24.257 18.9063 24.257Z" fill="white"/>
<path d="M26.168 26.1241C26.168 25.9461 26.2719 25.777 26.4463 25.7013C26.6806 25.5991 26.9519 25.7066 27.0541 25.9391L29.6383 31.851C29.7405 32.0853 29.633 32.3566 29.4005 32.4588C29.168 32.5609 28.8949 32.4552 28.7928 32.2209L26.2085 26.309C26.1803 26.2491 26.168 26.1857 26.168 26.1241Z" fill="white"/>
<path d="M29.2148 33.9284C28.6299 33.9284 28.1543 33.4528 28.1543 32.868V31.2068C28.1543 30.6202 28.6299 30.1445 29.2148 30.1445C29.8014 30.1445 30.277 30.6202 30.277 31.2068V32.868C30.277 33.4528 29.8014 33.9284 29.2148 33.9284Z" fill="white"/>
<path d="M33 32.2531V12.0053C32.9683 12.0035 32.9383 12 32.9066 12C31.8356 12 30.9689 12.8685 30.9689 13.9395V19.6365H27.3682V24.6218H30.9689V30.3188C30.9689 31.3899 31.8356 32.2566 32.9066 32.2566C32.9383 32.2566 32.9683 32.2531 33 32.2531Z" fill="white"/>
<path d="M28.8144 22.1289C28.8144 16.6574 24.3787 12.2217 18.9072 12.2217C13.4357 12.2217 9 16.6574 9 22.1289C9 27.6004 13.4357 32.0361 18.9072 32.0361C24.3787 32.0361 28.8144 27.6004 28.8144 22.1289ZM24.8896 25.1025C25.7193 25.9322 25.7193 27.2798 24.8896 28.1113C24.0581 28.9428 22.7105 28.9428 21.8808 28.1113C21.0493 27.2798 21.0493 25.9322 21.8808 25.1025C22.7123 24.2728 24.0599 24.2728 24.8896 25.1025ZM27.3682 22.1289C27.3682 23.3039 26.4151 24.2569 25.2402 24.2569C24.0652 24.2569 23.1122 23.3039 23.1122 22.1289C23.1122 20.9539 24.0652 20.0009 25.2402 20.0009C26.4169 20.0009 27.3682 20.9539 27.3682 22.1289ZM24.8896 16.1448C25.7193 16.9745 25.7193 18.3221 24.8896 19.1536C24.0581 19.985 22.7105 19.985 21.8808 19.1536C21.0493 18.3221 21.0493 16.9762 21.8808 16.1448C22.7123 15.315 24.0599 15.315 24.8896 16.1448ZM18.9072 13.6662C20.0822 13.6662 21.0352 14.6192 21.0352 15.7942C21.0352 16.9692 20.0822 17.9222 18.9072 17.9222C17.7322 17.9222 16.7792 16.9692 16.7792 15.7942C16.7792 14.6192 17.7322 13.6662 18.9072 13.6662ZM12.9231 19.1536C12.0916 18.3221 12.0916 16.9745 12.9231 16.1448C13.7528 15.315 15.1022 15.315 15.9319 16.1448C16.7634 16.9762 16.7634 18.3239 15.9319 19.1536C15.1022 19.985 13.7546 19.985 12.9231 19.1536ZM10.4445 22.1289C10.4445 20.9539 11.3975 20.0009 12.5725 20.0009C13.7475 20.0009 14.7005 20.9539 14.7005 22.1289C14.7005 23.3039 13.7475 24.2569 12.5725 24.2569C11.3975 24.2551 10.4445 23.3039 10.4445 22.1289ZM15.8033 22.1289C15.8033 20.4149 17.1932 19.0267 18.9072 19.0267C20.6213 19.0267 22.0112 20.4166 22.0112 22.1289C22.0112 23.8429 20.6213 25.2328 18.9072 25.2328C17.1932 25.2328 15.8033 23.8429 15.8033 22.1289ZM12.9231 28.113C12.0916 27.2816 12.0916 25.9339 12.9231 25.1042C13.7546 24.2728 15.1022 24.2728 15.9319 25.1042C16.7634 25.9357 16.7634 27.2833 15.9319 28.113C15.1022 28.9428 13.7546 28.9428 12.9231 28.113ZM16.7792 28.4618C16.7792 27.2869 17.7322 26.3338 18.9072 26.3338C20.0822 26.3338 21.0352 27.2869 21.0352 28.4618C21.0352 29.6368 20.0822 30.5898 18.9072 30.5898C17.7322 30.5898 16.7792 29.6386 16.7792 28.4618Z" fill="white"/>
</svg>
