<svg width="45" height="45" viewBox="0 0 45 45" fill="none" xmlns="http://www.w3.org/2000/svg">
<rect width="45" height="45" fill="#38AF6F"/>
<path d="M26.0849 22.1383L27.1682 25.3286C27.2047 25.2921 27.2413 25.257 27.2778 25.2205C27.8705 24.6278 28.4266 24.0275 28.9507 23.4257L27.6161 19.4965C27.4591 19.0318 27.7075 18.5275 28.1706 18.3706C28.6353 18.2137 29.1396 18.462 29.2981 18.9252L30.2747 21.8047C30.8856 21.0033 31.4295 20.2095 31.8988 19.4355L30.8292 16.2849C30.6708 15.8202 30.9206 15.3159 31.3838 15.159C31.8485 15.002 32.3528 15.2504 32.5112 15.7135L33.0429 17.2797C34.1353 14.8375 34.3029 12.802 33.2943 11.7432L32.9241 12.1134C33.2959 12.5232 33.2867 13.1555 32.8921 13.5516C32.496 13.9477 31.8652 13.9554 31.4539 13.5836L14.8457 30.1903C15.1672 30.5498 15.158 31.0983 14.8137 31.4441C14.4694 31.7885 13.9194 31.7976 13.5614 31.4761L13.1348 31.9027C13.7381 32.468 14.6827 32.4603 15.2769 31.8783C16.2108 31.9911 17.3839 31.7671 18.6988 31.2537L17.9796 29.136C17.8212 28.6713 18.0711 28.167 18.5342 28.0101C18.9989 27.8516 19.5032 28.1015 19.6601 28.5646L20.3198 30.5087C20.9749 30.1659 21.6514 29.7637 22.34 29.3066L21.1913 25.9243C21.0328 25.4597 21.2827 24.9554 21.7458 24.7984C22.2105 24.6415 22.7148 24.8898 22.8718 25.353L23.8483 28.231C24.4791 27.7495 25.1129 27.227 25.7452 26.6663L24.4029 22.7127C24.246 22.248 24.4943 21.7437 24.9575 21.5868C25.4222 21.4253 25.9265 21.6736 26.0849 22.1383Z" fill="#F6F6F6"/>
<path d="M13.5194 31.4421C13.1629 31.0856 13.1629 30.5067 13.5194 30.1502C13.8759 29.7937 14.4549 29.7937 14.8129 30.1502C14.8251 30.1624 14.8342 30.1761 14.8449 30.1898L31.4531 13.5831C31.4409 13.5709 31.4257 13.5633 31.4135 13.5511C31.0052 13.1428 31.0067 12.4816 31.4135 12.0733C31.8218 11.665 32.483 11.665 32.8898 12.0733C32.902 12.0855 32.9111 12.0992 32.9218 12.1129L33.292 11.7427C33.2798 11.7305 33.2707 11.7168 33.2585 11.7046C32.2103 10.6564 30.155 10.8179 27.6838 11.9225L29.25 12.4542C29.7132 12.6126 29.9631 13.1169 29.8046 13.5801C29.6462 14.0448 29.1434 14.2931 28.6787 14.1347L25.528 13.0651C24.754 13.5344 23.9603 14.0783 23.1589 14.6892L26.0369 15.6658C26.5016 15.8243 26.7499 16.327 26.5914 16.7917C26.433 17.2564 25.9302 17.5047 25.4655 17.3463L21.5363 16.0117C20.9345 16.5358 20.3342 17.0919 19.7416 17.6845C19.705 17.7211 19.67 17.7576 19.6334 17.7942L22.8237 18.8775C23.2884 19.0359 23.5367 19.5387 23.3783 20.0034C23.2198 20.468 22.7171 20.7164 22.2524 20.5579L18.2988 19.2172C17.7381 19.8495 17.2155 20.4833 16.7341 21.114L19.6121 22.0906C20.0768 22.2491 20.3251 22.7518 20.1667 23.218C20.0082 23.6827 19.5054 23.9311 19.0408 23.7726L15.6585 22.6239C15.2014 23.3125 14.7992 23.989 14.4564 24.6441L16.3989 25.3038C16.8636 25.4622 17.1119 25.9665 16.955 26.4297C16.7966 26.8944 16.2938 27.1427 15.8291 26.9842L13.7114 26.2651C13.1979 27.5784 12.974 28.7516 13.0867 29.687C12.4925 30.2934 12.4956 31.2654 13.0974 31.8657C13.1096 31.8779 13.1233 31.8885 13.1355 31.9007L13.5621 31.4741C13.5453 31.4635 13.5316 31.4559 13.5194 31.4421Z" fill="#F6F6F6"/>
<path d="M12.9407 32.612C12.7853 32.7689 12.5309 32.7689 12.3755 32.612C12.2186 32.4551 12.2186 32.2022 12.3755 32.0453L13.3597 31.0611C13.5151 30.9041 13.7696 30.9041 13.9265 31.0611C14.0834 31.218 14.0819 31.4709 13.9265 31.6278L12.9407 32.612Z" fill="#F6F6F6"/>
<path d="M10.5188 34.4803C9.82708 33.787 9.82708 32.6611 10.5188 31.9695C11.2105 31.2778 12.3379 31.2778 13.0296 31.9695C13.7228 32.6611 13.7228 33.7886 13.0296 34.4803C12.3364 35.1735 11.2105 35.1735 10.5188 34.4803ZM12.5862 32.4128C12.1383 31.9649 11.4085 31.9649 10.9606 32.4128C10.5127 32.8607 10.5127 33.5905 10.9606 34.0384C11.4085 34.4864 12.1383 34.4864 12.5862 34.0384C13.0341 33.589 13.0341 32.8607 12.5862 32.4128Z" fill="#F6F6F6"/>
</svg>
