<svg width="45" height="45" viewBox="0 0 45 45" fill="none" xmlns="http://www.w3.org/2000/svg">
<rect width="45" height="45" fill="#FF9B3F"/>
<path d="M10 24.5881C10.428 24.7227 10.8893 24.5064 11.0542 24.086L14.1472 16.1728C14.312 15.7508 14.1199 15.2774 13.7131 15.0898L10 24.5881Z" fill="white"/>
<path d="M32.5506 15.1019L33.2615 15.3802L32.9711 16.1243L32.115 16.324L30.8385 16.0306L29.1309 20.4001L28.3127 20.0809L25.7899 19.0948L23.2686 18.1087L22.4504 17.7896L24.158 13.4185L23.0206 12.7697L22.5275 12.0422L22.8179 11.2981L23.5273 11.5748L23.8328 10.7944C23.8328 10.7944 23.2081 9.772 22.2749 10.8005L21.5384 12.6835C21.5384 12.6835 21.1466 14.0054 22.1403 14.3941L20.4902 18.6184L25.2499 20.4787L30.0112 22.339L31.6613 18.1147C32.655 18.5034 33.263 17.2662 33.263 17.2662L33.9995 15.3832C34.0101 13.9933 32.8576 14.3215 32.8576 14.3215L32.5506 15.1019Z" fill="white"/>
<path d="M23.0051 17.289L22.9004 17.5566L28.9994 19.9418L29.1041 19.6741L23.0051 17.289Z" fill="white"/>
<path d="M25.3126 11.3844L25.0049 12.1719L31.106 14.5562L31.4137 13.7688L25.3126 11.3844Z" fill="white"/>
<path d="M25.1537 10.528L24.999 10.9238L31.9651 13.6455L32.1197 13.2496L25.1537 10.528Z" fill="white"/>
<path d="M30.4519 14.6284L29.5082 15.8867L29.2707 17.7108L24.3945 15.8051L25.4699 14.3607L25.5758 12.7227L30.4519 14.6284Z" fill="white"/>
<path d="M29.6759 18.1971L29.2736 19.2437L23.1738 16.8601L23.5746 15.8135L29.6759 18.1971Z" fill="white"/>
<path d="M26.2031 10.5644L31.2714 12.5457C31.3062 11.9271 31.0082 11.3584 30.4743 11.1497L27.7352 10.0804C27.2029 9.87015 26.5979 10.0864 26.2031 10.5644Z" fill="white"/>
<path d="M23.7535 25.2052L23.6643 25.2097C23.6446 25.2112 23.6249 25.2112 23.6053 25.2112C23.4556 25.2112 23.3134 25.184 23.1788 25.1311C22.8884 25.0176 22.66 24.7983 22.5345 24.5125C22.4089 24.2266 22.4029 23.9105 22.5163 23.6186C22.6902 23.1739 23.1273 22.876 23.6053 22.876C23.7505 22.876 23.8927 22.9032 24.0288 22.9561C24.3192 23.0696 24.5476 23.2889 24.6716 23.5747C24.7971 23.8606 24.8032 24.1782 24.6897 24.4686C24.6292 24.6229 24.5354 24.765 24.419 24.877L24.354 24.939L28.2939 33.9321L27.8251 34.4947L23.7535 25.2052Z" fill="white"/>
<path d="M21.1607 21.6975L19.5 22.2798L17.8575 21.3511L13.7375 19.7404L13.2142 17.9375L11.5898 22.0922L13.1598 21.1106L16.5341 22.4295L19.5363 25.8537L20.8113 28.5641C20.8113 28.5641 21.3619 29.6167 22.5355 29.5245C22.5355 29.5245 23.6684 29.6742 24.8844 28.6835L23.5201 25.5664C23.3583 25.5573 23.198 25.524 23.0467 25.465C22.2633 25.1595 21.8761 24.2717 22.1816 23.4882C22.4886 22.7018 23.3734 22.3176 24.1569 22.6231C24.9403 22.9301 25.3306 23.8119 25.0235 24.5984C24.9645 24.7511 24.8814 24.8903 24.7785 25.0143L25.8947 27.5643C26.2335 27.0667 26.5556 26.4496 26.8339 25.6737L28.4054 21.6597L22.1317 19.208L21.1607 21.6975Z" fill="white"/>
<path d="M30.1874 35.0027C30.3205 34.5111 30.0301 34.0029 29.537 33.8698L26.5303 33.0561C26.0387 32.923 25.5305 33.2149 25.3974 33.7065C25.2643 34.198 25.5562 34.7062 26.0478 34.8393L29.0546 35.653C29.5476 35.7861 30.0543 35.4942 30.1874 35.0027Z" fill="white"/>
</svg>
