<svg width="45" height="45" viewBox="0 0 45 45" fill="none" xmlns="http://www.w3.org/2000/svg">
<rect width="45" height="45" fill="#1EC5CB"/>
<path d="M33.9885 13.888C33.9885 12.1063 32.8476 11.1524 32.8476 11.1524C32.8476 11.1524 31.8937 10.0115 30.112 10.0115C30.112 10.0115 24.6734 9.73115 22.3754 11.9342L11.7311 22.5785C11.7311 22.5785 7.4482 26.7353 12.3557 31.6443C17.2632 36.5518 21.4215 32.2689 21.4215 32.2689L32.0658 21.6246C34.2688 19.3266 33.9885 13.888 33.9885 13.888ZM30.8315 20.4199L20.1917 31.0598C20.1353 31.1147 19.3342 31.8728 18.1607 32.1635C16.6461 32.5374 15.1032 31.9529 13.5752 30.4248C12.0471 28.8968 11.4626 27.3539 11.8365 25.8393C12.1228 24.6806 12.8675 23.884 12.9372 23.8113L12.9521 23.7965H12.9506L23.58 13.167C24.8618 11.955 28.2101 11.6434 30.026 11.7324L30.069 11.7354H30.1135C30.9413 11.7354 31.4338 12.1716 31.5377 12.2739L31.6564 12.3926L31.7365 12.4727C31.8552 12.5973 32.2646 13.0854 32.2646 13.8865V13.931L32.2661 13.9755C32.3551 15.7899 32.045 19.1382 30.8315 20.4199Z" fill="white"/>
<path d="M17.2713 32.4127C16.0074 32.4127 14.7315 31.7763 13.478 30.5227C11.9128 28.9576 11.315 27.3702 11.7022 25.8051C11.8609 25.1642 12.1532 24.6331 12.4024 24.2667L12.1398 24.4136L12.8534 23.6985L23.4828 13.069C24.6459 11.9683 27.4023 11.5796 29.4095 11.5796C29.6276 11.5796 29.8383 11.584 30.0326 11.5944L30.1127 11.5959C30.9776 11.5959 31.4968 12.0395 31.6348 12.1745L31.8351 12.3748C31.9701 12.5157 32.4048 13.0379 32.4048 13.888L32.4062 13.9695C32.4967 15.8032 32.1763 19.2019 30.9346 20.5163L20.2918 31.1591C20.2013 31.2467 19.3943 32.0033 18.1956 32.3C17.89 32.3742 17.5799 32.4127 17.2713 32.4127ZM13.0359 23.9092C12.9795 23.97 12.2481 24.7533 11.9722 25.8719C11.6102 27.3361 12.1828 28.8345 13.6738 30.3254C14.874 31.5241 16.083 32.1323 17.2698 32.1323C17.5547 32.1323 17.844 32.0967 18.1273 32.027C19.2741 31.7437 20.0618 30.9915 20.0945 30.9589L30.7328 20.3205C31.9137 19.0729 32.2149 15.7705 32.1259 13.9829L32.1229 13.888C32.1229 13.1417 31.7476 12.6907 31.6333 12.5691L31.4375 12.3733C31.3544 12.2902 30.8916 11.8748 30.1112 11.8748L30.0178 11.8733C29.8264 11.8629 29.6217 11.8585 29.408 11.8585C27.297 11.8585 24.7053 12.2946 23.6757 13.2693L13.7658 23.1793L13.8919 23.1081L13.0359 23.9092ZM17.2728 30.5598C16.9138 30.5598 16.531 30.4545 16.132 30.2438C15.7018 30.0183 15.2508 29.6712 14.7894 29.2098C14.328 28.7484 13.9809 28.2974 13.7554 27.8672C13.3133 27.0231 13.4468 26.4816 13.5032 26.2502C13.6708 25.5737 14.1188 25.0619 14.1708 25.0055L14.1752 24.9995L24.775 14.3998C25.2201 13.9977 26.4974 13.6447 28.0299 13.4993C28.4838 13.4562 28.9333 13.434 29.3665 13.434C29.5623 13.434 29.7567 13.4384 29.9406 13.4473L30.0237 13.4518H30.1083C30.1617 13.4518 30.2106 13.4592 30.2537 13.4711L30.2878 13.4815L30.5044 13.6981L30.5073 13.7366C30.5103 13.7455 30.5148 13.7589 30.5192 13.7722C30.5415 13.8405 30.5474 13.8598 30.5474 13.888V13.9755L30.5518 14.0645C30.5815 14.6535 30.5637 15.3121 30.5014 15.9693C30.356 17.5018 30.0015 18.7791 29.6009 19.2242L29.5965 19.2286L18.9937 29.8314C18.9373 29.8818 18.427 30.3284 17.752 30.4945C17.6541 30.5197 17.4939 30.5598 17.2728 30.5598ZM14.377 25.1954C14.3206 25.2577 13.9245 25.7176 13.7761 26.3184C13.7272 26.5187 13.61 26.989 14.0046 27.7396C14.2168 28.1446 14.5476 28.5719 14.9897 29.014C15.4303 29.4546 15.859 29.7854 16.264 29.999C16.6215 30.1874 16.9628 30.2824 17.2743 30.2824C17.4612 30.2824 17.5947 30.2483 17.6837 30.2275C18.2831 30.0791 18.74 29.686 18.8023 29.6296L29.3947 19.0373C29.7522 18.6382 30.0845 17.3965 30.2225 15.9456C30.2833 15.3018 30.3011 14.6564 30.2729 14.0823L30.2685 13.9829V13.9072C30.264 13.8954 30.2596 13.8776 30.2537 13.8613C30.2507 13.8509 30.2477 13.8434 30.2462 13.836L30.1468 13.7366C30.1365 13.7351 30.1246 13.7337 30.1098 13.7337H30.0148L29.9288 13.7292C29.7493 13.7203 29.5594 13.7159 29.368 13.7159C28.9452 13.7159 28.5031 13.7366 28.058 13.7797C26.6071 13.9176 25.3654 14.2499 24.9664 14.6075L14.377 25.1954Z" fill="white"/>
<path d="M21.1975 28.919C20.7836 29.3329 20.1116 29.3329 19.6977 28.919L15.0809 24.3023C14.667 23.8884 14.667 23.2163 15.0809 22.8024L15.2219 22.6615C15.6358 22.2476 16.3078 22.2476 16.7217 22.6615L21.3384 27.2782C21.7523 27.6921 21.7523 28.3642 21.3384 28.7781L21.1975 28.919Z" fill="white"/>
<path d="M28.8567 21.2593C28.4428 21.6733 27.7707 21.6733 27.3568 21.2593L22.7401 16.6426C22.3262 16.2287 22.3262 15.5567 22.7401 15.1428L22.8811 15.0018C23.295 14.5879 23.967 14.5879 24.3824 15.0018L28.9991 19.6186C29.413 20.0325 29.413 20.7045 28.9991 21.1184L28.8567 21.2593Z" fill="white"/>
<path d="M25.0266 25.0884C24.6127 25.5023 23.9407 25.5023 23.5268 25.0884L18.91 20.4717C18.4961 20.0578 18.4961 19.3858 18.91 18.9719L19.051 18.8309C19.4649 18.417 20.1369 18.417 20.5508 18.8309L25.1675 23.4477C25.5814 23.8616 25.5814 24.5336 25.1675 24.9475L25.0266 25.0884Z" fill="white"/>
</svg>
