<svg width="45" height="45" viewBox="0 0 45 45" fill="none" xmlns="http://www.w3.org/2000/svg">
<rect width="45" height="45" fill="#33B7D3"/>
<path d="M18.1923 33.5747C18.1926 33.5772 18.1929 33.5797 18.1931 33.5823L18.1927 33.5781L18.1923 33.5747ZM18.1756 33.2826C18.1704 33.2817 18.1654 33.2808 18.1604 33.28L16.6245 19.1035H28.9648L27.2769 33.2794C27.2709 33.2804 27.2647 33.2815 27.2584 33.2826C27.0285 33.3225 26.6799 33.3607 26.231 33.3936C25.3379 33.459 24.0953 33.4999 22.717 33.4999C21.3387 33.4999 20.0962 33.459 19.203 33.3936C18.7541 33.3607 18.4055 33.3225 18.1756 33.2826ZM27.2422 33.5704L27.2419 33.5728L27.2422 33.5704ZM27.4694 33.2349C27.4714 33.234 27.4725 33.2336 27.4726 33.2336C27.4726 33.2336 27.4716 33.234 27.4694 33.2349ZM17.9647 33.2349C17.9624 33.234 17.9614 33.2336 17.9615 33.2336C17.9615 33.2336 17.9626 33.234 17.9647 33.2349Z" fill="white" stroke="white"/>
<path d="M29.0741 18.4376C29.0741 18.4376 29.0737 18.4381 29.0728 18.4391C29.0736 18.4381 29.0741 18.4376 29.0741 18.4376ZM28.8065 18.5783C28.8105 18.5799 28.8145 18.5816 28.8184 18.5833C28.8143 18.585 28.8103 18.5867 28.8061 18.5885C28.5156 18.7108 28.0648 18.8321 27.4702 18.9379C26.2891 19.1481 24.6375 19.2808 22.7997 19.2808C20.9612 19.2808 19.3095 19.1481 18.1287 18.9379C17.5342 18.8321 17.0835 18.7108 16.7931 18.5885C16.7888 18.5867 16.7844 18.5848 16.7802 18.583C16.7844 18.5812 16.7887 18.5794 16.793 18.5775C17.0836 18.4554 17.5346 18.3342 18.1292 18.2285C19.3103 18.0185 20.962 17.8857 22.7997 17.8857C24.6374 17.8857 26.289 18.0189 27.4702 18.2291C28.0648 18.3349 28.5158 18.4561 28.8065 18.5783ZM16.5254 18.4377C16.5254 18.4377 16.5259 18.4382 16.5267 18.4391C16.5258 18.4382 16.5253 18.4377 16.5254 18.4377ZM16.5249 18.7282C16.5249 18.7282 16.5253 18.7277 16.5263 18.7267C16.5255 18.7277 16.525 18.7282 16.5249 18.7282ZM29.0734 18.7274C29.0744 18.7284 29.0748 18.7289 29.0748 18.7289C29.0748 18.7289 29.0743 18.7284 29.0734 18.7274Z" fill="white" stroke="white"/>
<path d="M22.8028 27.9971C23.1814 27.4862 23.6885 26.6178 23.6885 25.6616C23.6885 24.7021 23.1766 23.8301 22.7976 23.3192C22.4189 23.8303 21.9092 24.6996 21.9092 25.6584C21.9092 25.7284 21.9119 25.7982 21.9174 25.866L21.9177 25.8702L21.9177 25.8702L21.9177 25.8702C21.9177 25.8704 21.9179 25.8726 21.9185 25.878L21.9221 25.9035L21.9241 25.9181L21.9254 25.9327C21.9293 25.9803 21.9345 26.0272 21.9408 26.0721C21.9448 26.0956 21.9477 26.1114 21.951 26.1263L21.9542 26.1406L21.9565 26.1551C21.9651 26.2085 21.9707 26.2416 21.9774 26.2705C21.9775 26.2707 21.9775 26.2708 21.9775 26.2709L21.9871 26.3115L21.9968 26.3531L21.9971 26.354C22.0081 26.4012 22.0173 26.4405 22.0272 26.4784L22.0367 26.5098L22.0484 26.5489C22.0565 26.575 22.0621 26.5938 22.0666 26.6089C22.0733 26.6313 22.0776 26.6458 22.084 26.6641L22.1118 26.7381L22.1146 26.7455L22.1145 26.7455C22.1315 26.793 22.1441 26.8281 22.1572 26.8602L22.1625 26.8732L22.1623 26.8733C22.166 26.8831 22.1716 26.8965 22.1798 26.9139L22.1836 26.9222L22.1872 26.9306C22.1953 26.9497 22.2021 26.9662 22.2084 26.9812C22.219 27.0066 22.2279 27.0279 22.2381 27.051L22.2385 27.052C22.2395 27.0542 22.2415 27.0586 22.247 27.0698C22.2476 27.0711 22.2484 27.0727 22.2494 27.0745C22.2539 27.0837 22.2612 27.0985 22.268 27.1131C22.2807 27.1396 22.2887 27.1569 22.295 27.1704C22.303 27.1877 22.3081 27.1988 22.3165 27.2148L22.3205 27.2225L22.3204 27.2225C22.3257 27.233 22.3284 27.238 22.3333 27.2469C22.3375 27.2545 22.3433 27.265 22.3535 27.2841L22.3556 27.2881L22.3556 27.2881C22.3755 27.3264 22.3929 27.3596 22.4099 27.3907L22.4121 27.3948L22.4121 27.3948C22.4181 27.4062 22.4261 27.4197 22.442 27.4461L22.4475 27.4553L22.4474 27.4553C22.4674 27.4904 22.4843 27.5199 22.5006 27.5471M22.8028 27.9971L22.5006 27.5471M22.8028 27.9971C22.7955 27.9872 22.7882 27.9773 22.7823 27.9694C22.779 27.9651 22.7762 27.9613 22.7741 27.9585L22.7543 27.9302L22.7354 27.9032C22.7145 27.872 22.6945 27.8441 22.6753 27.818C22.6754 27.8181 22.6754 27.8181 22.6754 27.8181C22.6754 27.8181 22.6733 27.8152 22.666 27.8039C22.6652 27.8026 22.6643 27.8011 22.6632 27.7994C22.6563 27.7888 22.6443 27.7701 22.6321 27.7523L22.6321 27.7522L22.6269 27.7449C22.6203 27.7356 22.6155 27.7284 22.6065 27.7149C22.602 27.708 22.5963 27.6994 22.5888 27.6882C22.5801 27.6751 22.5765 27.669 22.5706 27.6593C22.5647 27.6494 22.5565 27.6358 22.5386 27.6074L22.5386 27.6073L22.5364 27.604C22.5212 27.5804 22.5107 27.5639 22.5006 27.5471M22.8028 27.9971L22.5006 27.5471M22.1158 27.8744C22.1012 27.8516 22.0865 27.8288 22.0719 27.8043L22.1158 27.8744ZM22.1158 27.8744C22.1233 27.8862 22.1305 27.898 22.1377 27.9098M22.1158 27.8744L22.1377 27.9098M22.1377 27.9098C22.1493 27.9287 22.1608 27.9474 22.1728 27.9655M22.1377 27.9098L22.1728 27.9655M22.1728 27.9655C22.1769 27.9717 22.1809 27.9778 22.1849 27.9838M22.1728 27.9655L22.1849 27.9838M22.1849 27.9838C22.1966 28.0015 22.2079 28.0185 22.22 28.0355L22.1849 27.9838ZM22.7972 28.421L22.7765 28.4035L22.7804 28.4005L22.8291 28.3631L22.7996 28.4166L22.7972 28.421ZM22.8362 28.3502L22.7769 28.3976L22.7731 28.4007L22.7107 28.3479L22.7019 28.3405L22.6774 28.3197L22.6811 28.317L22.8791 28.1756C22.8818 28.1765 22.8845 28.1774 22.8872 28.1783C22.896 28.1814 22.9046 28.1849 22.913 28.1889C22.9162 28.1904 22.9193 28.192 22.9224 28.1936L22.8362 28.3502ZM22.7857 28.1639C22.7985 28.1632 22.8112 28.1635 22.8238 28.1646L22.6651 28.3035L22.6617 28.3065L22.6187 28.2701L22.6225 28.2677L22.7857 28.1639ZM22.6983 28.1836L22.6074 28.255L22.604 28.2577L22.6003 28.2546C22.6012 28.2535 22.6022 28.2524 22.6031 28.2514C22.6308 28.2205 22.6634 28.1981 22.6983 28.1836ZM21.7267 27.1254C21.7326 27.1395 21.7386 27.1538 21.7446 27.1681C21.7565 27.1966 21.7685 27.2252 21.7804 27.2524C21.7872 27.268 21.7947 27.283 21.8019 27.2978C21.8068 27.3077 21.8117 27.3175 21.8162 27.3273C21.8229 27.3412 21.8294 27.355 21.8358 27.3688C21.8482 27.3954 21.8603 27.4215 21.8732 27.4461L21.7267 27.1254Z" fill="#CCCCCC" stroke="white"/>
<mask id="path-5-inside-1_263_923" fill="white">
<path d="M22.7178 34C25.4906 34 27.7392 33.8356 27.7392 33.6321L29.5286 18.6036H29.5253C29.5253 18.5971 29.5286 18.5906 29.5286 18.5825C29.5286 17.9214 26.5148 17.3857 22.7992 17.3857"/>
</mask>
<path d="M22.7178 34C25.4906 34 27.7392 33.8356 27.7392 33.6321L29.5286 18.6036H29.5253C29.5253 18.5971 29.5286 18.5906 29.5286 18.5825C29.5286 17.9214 26.5148 17.3857 22.7992 17.3857" fill="white"/>
<path d="M27.7392 33.6321L26.7462 33.5138L26.7392 33.5727V33.6321H27.7392ZM29.5286 18.6036L30.5216 18.7219L30.6547 17.6036H29.5286V18.6036ZM29.5253 18.6036H28.5253V19.6036H29.5253V18.6036ZM22.7178 35C24.1205 35 25.4014 34.9585 26.3413 34.8897C26.8066 34.8556 27.2127 34.8132 27.5153 34.7607C27.659 34.7358 27.8253 34.7012 27.9745 34.6477C28.0429 34.6232 28.1701 34.5733 28.2988 34.4804C28.3958 34.4103 28.7392 34.1375 28.7392 33.6321H26.7392C26.7392 33.1521 27.065 32.9044 27.1277 32.8591C27.2221 32.7909 27.2983 32.7655 27.2998 32.7649C27.3152 32.7594 27.2842 32.771 27.1738 32.7901C26.9681 32.8257 26.6387 32.8626 26.1953 32.895C25.3177 32.9593 24.0879 33 22.7178 33V35ZM28.7322 33.7503L30.5216 18.7219L28.5356 18.4854L26.7462 33.5138L28.7322 33.7503ZM29.5286 17.6036H29.5253V19.6036H29.5286V17.6036ZM30.5253 18.6036C30.5253 18.6444 30.5228 18.6801 30.5196 18.7095C30.5164 18.7386 30.5124 18.7628 30.5092 18.7802C30.5061 18.7974 30.5031 18.8107 30.5017 18.817C30.5009 18.8203 30.5004 18.8228 30.5002 18.8235C30.5001 18.8239 30.5 18.8242 30.5001 18.824C30.5001 18.824 30.5002 18.8233 30.5004 18.8227C30.5009 18.8204 30.5031 18.8112 30.5055 18.7998C30.5081 18.7879 30.5115 18.7709 30.5148 18.7505C30.5216 18.7091 30.5286 18.6515 30.5286 18.5825H28.5286C28.5286 18.5175 28.5351 18.4638 28.5413 18.4261C28.5444 18.4076 28.5474 18.3924 28.5496 18.3823C28.5517 18.3726 28.5534 18.3652 28.5535 18.3647C28.5536 18.3645 28.5536 18.3643 28.5535 18.3646C28.5535 18.3648 28.5533 18.3656 28.5531 18.3664C28.5528 18.368 28.552 18.3713 28.551 18.3755C28.5492 18.3834 28.5459 18.3984 28.5425 18.4172C28.5389 18.4363 28.5347 18.4621 28.5314 18.4929C28.528 18.5239 28.5253 18.5613 28.5253 18.6036H30.5253ZM30.5286 18.5825C30.5286 18.0902 30.2451 17.7579 30.0477 17.5864C29.8444 17.4098 29.6033 17.2856 29.3872 17.1947C28.9465 17.0095 28.3699 16.865 27.7323 16.7517C26.4408 16.522 24.6971 16.3857 22.7992 16.3857V18.3857C24.6168 18.3857 26.2378 18.5173 27.3822 18.7208C27.9625 18.824 28.3715 18.9373 28.6121 19.0385C28.7365 19.0908 28.7599 19.117 28.7359 19.0961C28.7179 19.0804 28.5286 18.9095 28.5286 18.5825H30.5286Z" fill="white" mask="url(#path-5-inside-1_263_923)"/>
<path d="M30.0825 18.2697C30.0825 17.0095 30.0825 10 22.8728 10C15.6631 10 15.6631 17.0095 15.6631 18.2697" stroke="white" stroke-miterlimit="10"/>
<path d="M30.616 18.7748C30.616 19.0695 30.3766 19.3088 30.0819 19.3088C29.7872 19.3088 29.5479 19.0695 29.5479 18.7748C29.5479 18.4801 29.7872 18.2407 30.0819 18.2407C30.3766 18.2407 30.616 18.4801 30.616 18.7748Z" stroke="white" stroke-width="3.0838" stroke-miterlimit="10"/>
<path d="M16.0681 18.6034C16.0681 18.8981 15.8288 19.1374 15.5341 19.1374C15.2393 19.1374 15 18.8981 15 18.6034C15 18.3087 15.2393 18.0693 15.5341 18.0693C15.8288 18.0693 16.0681 18.3087 16.0681 18.6034Z" stroke="white" stroke-width="3.0838" stroke-miterlimit="10"/>
</svg>
