<svg width="45" height="45" viewBox="0 0 45 45" fill="none" xmlns="http://www.w3.org/2000/svg">
<rect width="45" height="45" fill="#E35738"/>
<path fill-rule="evenodd" clip-rule="evenodd" d="M27.8721 25.1914C28.2481 24.8604 28.4586 24.4887 28.4586 24.0924C28.4586 23.5974 28.1291 23.1401 27.5571 22.7511C27.367 22.2865 27.2799 21.7944 27.29 21.2761C27.3031 20.5474 27.5049 19.762 27.8736 18.923C28.2496 18.592 28.4601 18.2203 28.4601 17.8255C28.4601 17.2869 28.0725 16.7933 27.4032 16.3839C26.6658 15.3779 25.9196 14.3864 25.172 13.3964C24.0861 11.9577 23.0003 10.5206 21.9783 9.07759C21.9681 9.06017 21.9565 9.04565 21.9391 9.03258C21.8723 8.98032 21.775 8.99194 21.7242 9.06017C20.618 10.4828 19.5104 11.9403 18.4042 13.3978C17.674 14.3588 16.9438 15.3213 16.1831 16.3099C15.4355 16.7324 15 17.2521 15 17.824C15 18.2203 15.2105 18.5905 15.5865 18.923C15.9552 19.762 16.157 20.5474 16.1701 21.2761C16.1788 21.7944 16.0917 22.2865 15.903 22.7511C15.3295 23.1401 15 23.5974 15 24.0924C15 24.3552 15.0944 24.6078 15.2671 24.8444L15.2178 24.872C15.9131 26.1045 16.2978 27.231 16.3152 28.2486C16.3181 28.4315 16.3094 28.6101 16.2891 28.7872C15.4776 29.2212 15 29.7642 15 30.3623C15 31.1288 15.781 31.8024 17.044 32.2742C18.2474 32.7227 19.9038 33 21.7286 33C23.5534 33 25.2097 32.7227 26.4132 32.2742C27.6762 31.8038 28.4572 31.1288 28.4572 30.3623C28.4572 29.8658 28.1276 29.41 27.5542 29.0209C27.3655 28.5564 27.2769 28.0643 27.2871 27.546C27.3016 26.8158 27.5034 26.0304 27.8721 25.1914ZM27.727 24.7747C27.425 25.0897 26.9227 25.3801 26.2724 25.6225C25.1139 26.0537 23.5084 26.3208 21.73 26.3208C19.9517 26.3208 18.3461 26.0537 17.1877 25.6225C16.0902 25.2131 15.4108 24.6716 15.4108 24.0953C15.6852 23.7861 15.9044 23.4638 16.0713 23.1271C16.3617 22.9224 16.7391 22.7322 17.1877 22.5652C18.3461 22.1341 19.9517 21.867 21.73 21.867C23.5084 21.867 25.1139 22.1341 26.2724 22.5652C26.721 22.7322 27.0984 22.9224 27.3887 23.1271C27.5557 23.4638 27.7749 23.7861 28.0492 24.0953C28.0492 24.1157 28.0463 24.1374 28.0449 24.1578C27.9288 24.3653 27.8228 24.5715 27.727 24.7747ZM27.727 18.5049C27.425 18.8199 26.9227 19.1102 26.2709 19.3527C25.1125 19.7838 23.5069 20.0509 21.7286 20.0509C19.9503 20.0509 18.3447 19.7838 17.1862 19.3527C16.5359 19.1102 16.0336 18.8199 15.7302 18.5049C15.6329 18.3016 15.527 18.0955 15.4123 17.8864C15.4108 17.8661 15.4079 17.8443 15.4079 17.8226C15.4079 17.8168 15.4094 17.8124 15.4094 17.8066C15.6808 17.4567 15.9523 17.1054 16.2252 16.7512C16.4909 16.5857 16.8146 16.4319 17.1862 16.2925C18.3447 15.8613 19.9503 15.5942 21.7286 15.5942C23.5069 15.5942 25.1125 15.8613 26.2709 16.2925C26.7006 16.4522 27.065 16.6336 27.351 16.8282C27.5862 17.1504 27.817 17.4727 28.0463 17.795C28.0463 17.8037 28.0478 17.8124 28.0478 17.8211C28.0478 17.8429 28.0449 17.8632 28.0434 17.885C27.9288 18.0969 27.8228 18.3016 27.727 18.5049ZM18.6466 13.5807C19.6817 12.2176 20.7182 10.853 21.8389 9.41002C22.8493 10.8298 23.8872 12.206 24.9267 13.5807C25.5509 14.4082 26.1751 15.2371 26.7877 16.066C26.6687 16.0138 26.5438 15.9615 26.4146 15.9136C25.2112 15.465 23.5548 15.1878 21.73 15.1878C19.9053 15.1878 18.2489 15.465 17.0454 15.9136C16.9598 15.9455 16.877 15.9789 16.7957 16.0123C17.4127 15.2052 18.0297 14.3937 18.6466 13.5807ZM16.0554 19.2641C16.3385 19.4369 16.6694 19.5951 17.044 19.7359C18.2474 20.1845 19.9038 20.4617 21.7286 20.4617C23.5534 20.4617 25.2097 20.1845 26.4132 19.7359C26.7892 19.5965 27.1202 19.4369 27.4018 19.2641C27.1376 19.9682 26.9924 20.6374 26.9808 21.2718C26.9735 21.7015 27.0273 22.1123 27.1434 22.5072C26.9227 22.391 26.6789 22.2822 26.4117 22.182C25.2083 21.7334 23.5519 21.4562 21.7271 21.4562C19.9024 21.4562 18.246 21.7334 17.0425 22.182C16.7754 22.2822 16.5315 22.391 16.3109 22.5072C16.427 22.1123 16.4807 21.7015 16.4735 21.2718C16.4648 20.6389 16.3196 19.9696 16.0554 19.2641ZM16.186 29.3171C16.0554 29.799 15.8217 30.2549 15.4791 30.6831C15.4326 30.5771 15.4094 30.4712 15.4094 30.3623C15.4094 29.9906 15.6925 29.6335 16.186 29.3171ZM26.2709 31.8909C25.1125 32.3221 23.5069 32.5892 21.7286 32.5892C19.9503 32.5892 18.3447 32.3221 17.1862 31.8909C16.4749 31.6252 15.9407 31.3044 15.6518 30.9546C16.128 30.3855 16.4212 29.7714 16.5475 29.1109C16.7406 29.0137 16.954 28.9193 17.1862 28.8322C18.3447 28.401 19.9503 28.1325 21.7286 28.1325C23.5069 28.1325 25.1125 28.3996 26.2709 28.8322C26.7195 28.9991 27.0969 29.1893 27.3873 29.394C27.5542 29.7308 27.7734 30.0531 28.0478 30.3623C28.0478 30.9401 27.3684 31.4815 26.2709 31.8909ZM26.4132 28.4504C25.2097 28.0018 23.5534 27.7246 21.7286 27.7246C19.9038 27.7246 18.2474 28.0018 17.044 28.4504C16.8916 28.507 16.7478 28.5665 16.6099 28.629C16.6186 28.5027 16.6215 28.3749 16.6201 28.2457C16.6041 27.3616 16.3297 26.4093 15.8318 25.3873C16.1555 25.6182 16.5649 25.8257 17.044 26.0043C18.2474 26.4529 19.9038 26.7301 21.7286 26.7301C23.5534 26.7301 25.2097 26.4529 26.4132 26.0043C26.7892 25.8649 27.1202 25.7067 27.4018 25.5325C27.1376 26.2366 26.9924 26.9058 26.9808 27.5402C26.9735 27.9699 27.0273 28.3807 27.1434 28.7756C26.9242 28.6594 26.6803 28.5506 26.4132 28.4504Z" fill="white"/>
<path fill-rule="evenodd" clip-rule="evenodd" d="M16.7966 16.245L18.4893 15.5975L21.2765 15.3652L24.431 15.5975L26.2645 16.0664L27.3533 16.8329L28.0501 17.4194L28.2809 17.8259L28.0501 18.3354L27.873 18.9233L27.4041 20.0527L26.9831 21.2722L27.0964 22.3232L27.4027 22.8458L28.0487 23.322L28.2795 23.9084V24.4223L27.8716 25.1917L27.4027 25.7056L27.0543 26.79L26.9817 27.5406L27.3504 28.3201L27.4027 29.0794L27.8759 29.6295L28.458 30.3612L27.9064 31.4311L27.121 31.5008L26.4562 32.0234L24.0914 32.591L21.6191 32.8218L18.9204 32.591L16.7966 32.0234L15.7993 31.5008L15.4102 31.0057L15.1504 30.3627L15.4102 29.7137L16.0562 29.1084L16.4163 28.776L16.499 28.1343L16.2246 27.4114L16.0577 26.6594L15.8341 25.9713L15.4117 25.064L15.1518 24.569V23.936L15.4117 23.3582L16.0577 22.946C16.0577 22.946 16.3132 22.4771 16.1883 22.3682C16.0635 22.2593 16.3626 21.323 16.3626 21.323L16.1883 20.4157L16.0577 19.1498C16.0577 19.1498 15.7732 18.7099 15.6556 18.6548C15.538 18.5996 15.1533 18.0218 15.1533 18.0218L15.2912 17.4165C15.2912 17.4165 16.139 16.7835 16.0591 16.7008C15.9793 16.618 16.7966 16.245 16.7966 16.245Z" fill="white"/>
</svg>
