<svg width="45" height="45" viewBox="0 0 45 45" fill="none" xmlns="http://www.w3.org/2000/svg">
<rect width="45" height="45" fill="#1C77C8"/>
<path d="M17.2248 19.5098C17.1048 19.6798 16.9831 19.8516 16.8632 20.0378C16.8632 20.0378 12.4259 25.9912 12.5565 32.0144L12.9843 32.444C19.0076 32.5747 24.961 28.1356 24.961 28.1356C25.1471 28.0157 25.319 27.8939 25.489 27.774L17.2248 19.5098Z" fill="white"/>
<path d="M28.615 24.615L20.3848 16.3848C19.4648 16.8895 18.534 17.7075 17.6426 18.9498L26.0518 27.359C27.2905 26.4658 28.1085 25.535 28.615 24.615Z" fill="white"/>
<path d="M12.696 32.8737L12.125 32.3027C11.8279 32.2114 11.4913 32.2794 11.2551 32.5157C10.915 32.854 10.915 33.4053 11.2551 33.7454C11.5952 34.0855 12.1447 34.0837 12.4848 33.7454C12.7193 33.5073 12.7873 33.1708 12.696 32.8737Z" fill="white"/>
<path d="M28.7855 17.8201C28.7819 17.813 28.7765 17.804 28.773 17.7969C28.7712 17.7987 28.7694 17.8005 28.7676 17.8005L28.7855 17.8201Z" fill="white"/>
<path d="M28.6537 17.8974L28.6358 17.8795L27.1215 16.3652L27.1036 16.3473C25.8453 15.626 23.4682 14.7006 21.0088 16.052L28.9508 23.9941C30.2987 21.5329 29.3751 19.1558 28.6537 17.8974Z" fill="white"/>
<path d="M34.6747 10.3222C34.2451 9.8926 33.5506 9.8926 33.1228 10.3222L27.7189 15.7261C27.6634 15.7816 27.6151 15.8424 27.5739 15.9051C27.5721 15.9069 27.5721 15.9087 27.5703 15.9105L29.0846 17.4248C29.0864 17.423 29.0882 17.423 29.09 17.4212C29.1544 17.38 29.2135 17.3317 29.269 17.2762L34.6729 11.8723C35.1043 11.4463 35.1043 10.7518 34.6747 10.3222Z" fill="white"/>
</svg>
