<svg width="150" height="157" viewBox="0 0 150 157" fill="none" xmlns="http://www.w3.org/2000/svg">
<path d="M65.4678 121.875H95.3115C98.2124 121.875 100.994 120.723 103.046 118.671C105.097 116.62 106.249 113.838 106.249 110.937V85.9375C106.249 83.0367 105.097 80.2547 103.046 78.2035C100.994 76.1523 98.2124 75 95.3115 75H54.6865C53.1865 75 51.749 75.3062 50.4365 75.8562C45.4887 73.2352 39.9733 71.8682 34.374 71.875C31.2043 71.872 28.0494 72.3073 24.999 73.1687V28.125C24.999 24.8098 26.316 21.6304 28.6602 19.2862C31.0044 16.942 34.1838 15.625 37.499 15.625H74.999V53.125C74.999 56.4402 76.316 59.6196 78.6602 61.9638C81.0044 64.308 84.1838 65.625 87.499 65.625H124.999V128.125C124.999 131.44 123.682 134.62 121.338 136.964C118.994 139.308 115.814 140.625 112.499 140.625H81.1365C80.8015 138.288 79.7157 136.123 78.0428 134.456L65.4678 121.875ZM96.874 103.125V110.937C96.874 111.352 96.7094 111.749 96.4164 112.042C96.1234 112.335 95.7259 112.5 95.3115 112.5H71.874V103.125H96.874ZM71.874 93.75V84.375H95.3115C95.7259 84.375 96.1234 84.5396 96.4164 84.8326C96.7094 85.1257 96.874 85.5231 96.874 85.9375V93.75H71.874ZM84.374 18.75V53.125C84.374 53.9538 84.7033 54.7487 85.2893 55.3347C85.8754 55.9208 86.6702 56.25 87.499 56.25H121.874L84.374 18.75ZM57.299 122.544C61.3855 116.796 63.1635 109.723 62.2808 102.726C61.398 95.7292 57.9188 89.3193 52.5327 84.7668C47.1467 80.2143 40.2468 77.8513 33.2007 78.1463C26.1545 78.4412 19.4763 81.3726 14.4896 86.3593C9.50285 91.346 6.57154 98.0242 6.27658 105.07C5.98163 112.117 8.34457 119.016 12.8971 124.402C17.4496 129.788 23.8595 133.268 30.8563 134.15C37.8532 135.033 44.9264 133.255 50.674 129.169L66.999 145.5C67.4282 145.961 67.9457 146.33 68.5207 146.586C69.0957 146.842 69.7164 146.98 70.3458 146.991C70.9752 147.002 71.6004 146.887 72.184 146.651C72.7677 146.415 73.2979 146.064 73.743 145.619C74.1881 145.174 74.5391 144.644 74.7748 144.06C75.0106 143.476 75.1263 142.851 75.1152 142.222C75.1041 141.592 74.9664 140.972 74.7102 140.397C74.454 139.822 74.0846 139.304 73.624 138.875L57.299 122.544ZM53.124 106.25C53.124 108.712 52.6391 111.15 51.6968 113.425C50.7545 115.7 49.3734 117.767 47.6323 119.508C45.8912 121.249 43.8242 122.63 41.5494 123.573C39.2745 124.515 36.8363 125 34.374 125C31.9118 125 29.4736 124.515 27.1987 123.573C24.9239 122.63 22.8569 121.249 21.1158 119.508C19.3747 117.767 17.9936 115.7 17.0513 113.425C16.109 111.15 15.624 108.712 15.624 106.25C15.624 101.277 17.5995 96.508 21.1158 92.9917C24.6321 89.4754 29.4012 87.5 34.374 87.5C39.3469 87.5 44.116 89.4754 47.6323 92.9917C51.1486 96.508 53.124 101.277 53.124 106.25Z" fill="#A4AAAF"/>
</svg>
