<svg width="40" height="35" viewBox="0 0 40 35" fill="none" xmlns="http://www.w3.org/2000/svg">
<g clip-path="url(#clip0_1208_5772)">
<path d="M27.4464 6.43379H26.4464V5.43379V1.36571C26.4464 1.25264 26.4024 1.14951 26.3404 1.08091C26.282 1.01625 26.2271 1 26.1848 1H1.2218C1.21639 1 1.17131 1.00193 1.10888 1.07258C1.04524 1.14461 1.00049 1.2519 1.00049 1.36571V11.5449C1.07772 11.2793 1.21532 11.0281 1.41329 10.8138L6.55353 5.24922C7.10351 4.65384 7.89615 4.57564 8.51085 4.86083C9.11769 5.14237 9.54967 5.76575 9.54967 6.52345V7.80448H23.3933C24.0505 7.80448 24.5683 8.15184 24.8688 8.63263H25.1717V9.63263V14.4998C25.1717 15.4526 24.4373 16.3279 23.4067 16.3279H9.54967V17.609C9.54967 18.3586 9.12861 18.9855 8.51815 19.2705C7.89755 19.5603 7.11347 19.4722 6.56342 18.8937L6.55844 18.8885L6.55353 18.8832L1.41329 13.3186C1.21532 13.1043 1.07772 12.8531 1.00049 12.5875V27.8784C1.72627 24.638 4.42837 22.1299 7.79809 22.1299C11.252 22.1299 14.0004 24.7711 14.6246 28.1498C17.751 28.1188 21.04 28.1161 24.1229 28.1158C24.7479 24.7678 27.5013 22.1445 30.9493 22.1445C34.3267 22.1445 37.0473 24.677 37.7295 27.9646L38.2893 27.3244L38.3118 27.2986L38.3361 27.2744C38.4549 27.156 38.6123 26.9093 38.7413 26.5692C38.868 26.2351 38.9279 25.9139 38.9279 25.7015V17.5799C38.9279 16.9933 38.7095 16.0032 38.4643 15.4302L34.5912 7.04446C34.5416 6.93705 34.4055 6.77026 34.1854 6.62586C33.9624 6.47954 33.7721 6.43379 33.6872 6.43379H27.4464ZM27.4464 17.2433H26.4464V16.2433V8.12163V7.12163H27.4464H32.4122H33.1475L33.3667 7.82351L35.9033 15.9451L36.3087 17.2433H34.9487H27.4464ZM34.9285 29.6243C34.9285 27.0875 33.0567 25.1905 30.9493 25.1905C28.7966 25.1905 26.9298 27.093 26.9298 29.6243C26.9298 32.1194 28.7899 34.0145 30.9493 34.0145C33.0617 34.0145 34.9285 32.1121 34.9285 29.6243ZM11.7773 29.6243C11.7773 27.0875 9.90548 25.1905 7.79809 25.1905C5.64543 25.1905 3.77864 27.093 3.77864 29.6243C3.77864 32.1194 5.63872 34.0145 7.79809 34.0145C9.91048 34.0145 11.7773 32.1121 11.7773 29.6243Z" stroke="#BDBDBD" stroke-width="2"/>
</g>
<defs>
<clipPath id="clip0_1208_5772">
<rect width="40" height="35" fill="white"/>
</clipPath>
</defs>
</svg>
