<svg width="50" height="50" viewBox="0 0 50 50" fill="none" xmlns="http://www.w3.org/2000/svg">
<path d="M22.9771 5.29159C23.5959 4.94792 24.2921 4.76758 25 4.76758C25.7079 4.76758 26.4041 4.94792 27.0229 5.29159L42.6792 13.9874C43.0038 14.1679 43.2742 14.4319 43.4625 14.7521C43.6507 15.0722 43.75 15.4369 43.75 15.8083V32.9645C43.7498 33.7075 43.551 34.437 43.174 35.0773C42.7971 35.7176 42.2558 36.2454 41.6063 36.6062L27.0229 44.7103C26.4041 45.054 25.7079 45.2344 25 45.2344C24.2921 45.2344 23.5959 45.054 22.9771 44.7103L8.39375 36.6062C7.74449 36.2456 7.2034 35.7181 6.82649 35.0782C6.44958 34.4383 6.25055 33.7092 6.25 32.9666V15.8083C6.24998 15.4369 6.34926 15.0722 6.53753 14.7521C6.72581 14.4319 6.99624 14.1679 7.32083 13.9874L22.9792 5.29159H22.9771Z" stroke="#BDBDBD" stroke-width="2.5" stroke-linecap="round" stroke-linejoin="round"/>
<path d="M15.625 9.375L34.375 19.7917V27.0833" stroke="#BDBDBD" stroke-width="2.5" stroke-linecap="round" stroke-linejoin="round"/>
<path d="M12.5 25.6836L18.75 29.1669" stroke="#BDBDBD" stroke-width="2.5" stroke-linecap="round" stroke-linejoin="round"/>
<path d="M25 25.0007V44.7923V25.0007ZM6.25 14.584L25 25.0007L6.25 14.584ZM25 25.0007L43.75 14.584L25 25.0007Z" stroke="#BDBDBD" stroke-width="2.5" stroke-linejoin="round"/>
</svg>
