<svg width="35" height="37" viewBox="0 0 35 37" fill="none" xmlns="http://www.w3.org/2000/svg">
<path d="M3.5 2.16601V0.666016C2.67157 0.666016 2 1.33759 2 2.16601H3.5ZM31.5 2.16601H33C33 1.33759 32.3284 0.666016 31.5 0.666016V2.16601ZM31.5 34.8327L30.8292 36.1743C31.2942 36.4068 31.8464 36.382 32.2886 36.1086C32.7308 35.8353 33 35.3525 33 34.8327H31.5ZM26.8333 32.4993L27.5042 31.1577C27.0819 30.9466 26.5848 30.9466 26.1625 31.1577L26.8333 32.4993ZM22.1667 34.8327L21.4958 36.1743C21.9181 36.3855 22.4152 36.3855 22.8375 36.1743L22.1667 34.8327ZM17.5 32.4993L18.1708 31.1577C17.7485 30.9466 17.2515 30.9466 16.8292 31.1577L17.5 32.4993ZM12.8333 34.8327L12.1625 36.1743C12.5848 36.3855 13.0819 36.3855 13.5042 36.1743L12.8333 34.8327ZM3.5 34.8327H2C2 35.3525 2.26918 35.8353 2.7114 36.1086C3.15363 36.382 3.70584 36.4068 4.17082 36.1743L3.5 34.8327ZM8.16667 32.4993L8.83749 31.1577C8.4152 30.9466 7.91814 30.9466 7.49585 31.1577L8.16667 32.4993ZM3.5 3.66601H31.5V0.666016H3.5V3.66601ZM30 2.16601V34.8327H33V2.16601H30ZM32.1708 33.491L27.5042 31.1577L26.1625 33.841L30.8292 36.1743L32.1708 33.491ZM26.1625 31.1577L21.4958 33.491L22.8375 36.1743L27.5042 33.841L26.1625 31.1577ZM22.8375 33.491L18.1708 31.1577L16.8292 33.841L21.4958 36.1743L22.8375 33.491ZM16.8292 31.1577L12.1625 33.491L13.5042 36.1743L18.1708 33.841L16.8292 31.1577ZM5 34.8327V2.16601H2V34.8327H5ZM13.5042 33.491L8.83749 31.1577L7.49585 33.841L12.1625 36.1743L13.5042 33.491ZM7.49585 31.1577L2.82918 33.491L4.17082 36.1743L8.83749 33.841L7.49585 31.1577Z" fill="#BDBDBD"/>
<path d="M19 8L18.2889 21.5504H15.7111L15 8H19ZM17 27C16.4519 27 15.9815 26.8374 15.5889 26.5121C15.1963 26.1869 15 25.7972 15 25.343C15 24.8889 15.1963 24.4992 15.5889 24.1739C15.9815 23.8487 16.4519 23.686 17 23.686C17.5481 23.686 18.0185 23.8487 18.4111 24.1739C18.8037 24.4992 19 24.8889 19 25.343C19 25.6437 18.9074 25.9199 18.7222 26.1715C18.5444 26.4231 18.3037 26.6256 18 26.7791C17.7037 26.9264 17.3704 27 17 27Z" fill="#BDBDBD"/>
</svg>
