<svg width="35" height="37" viewBox="0 0 35 37" fill="none" xmlns="http://www.w3.org/2000/svg">
<path d="M3.5 2.16601V0.666016C2.67157 0.666016 2 1.33759 2 2.16601H3.5ZM31.5 2.16601H33C33 1.33759 32.3284 0.666016 31.5 0.666016V2.16601ZM31.5 34.8327L30.8292 36.1743C31.2942 36.4068 31.8464 36.382 32.2886 36.1086C32.7308 35.8353 33 35.3525 33 34.8327H31.5ZM26.8333 32.4993L27.5042 31.1577C27.0819 30.9466 26.5848 30.9466 26.1625 31.1577L26.8333 32.4993ZM22.1667 34.8327L21.4958 36.1743C21.9181 36.3855 22.4152 36.3855 22.8375 36.1743L22.1667 34.8327ZM17.5 32.4993L18.1708 31.1577C17.7485 30.9466 17.2515 30.9466 16.8292 31.1577L17.5 32.4993ZM12.8333 34.8327L12.1625 36.1743C12.5848 36.3855 13.0819 36.3855 13.5042 36.1743L12.8333 34.8327ZM3.5 34.8327H2C2 35.3525 2.26918 35.8353 2.7114 36.1086C3.15363 36.382 3.70584 36.4068 4.17082 36.1743L3.5 34.8327ZM8.16667 32.4993L8.83749 31.1577C8.4152 30.9466 7.91814 30.9466 7.49585 31.1577L8.16667 32.4993ZM3.5 3.66601H31.5V0.666016H3.5V3.66601ZM30 2.16601V34.8327H33V2.16601H30ZM32.1708 33.491L27.5042 31.1577L26.1625 33.841L30.8292 36.1743L32.1708 33.491ZM26.1625 31.1577L21.4958 33.491L22.8375 36.1743L27.5042 33.841L26.1625 31.1577ZM22.8375 33.491L18.1708 31.1577L16.8292 33.841L21.4958 36.1743L22.8375 33.491ZM16.8292 31.1577L12.1625 33.491L13.5042 36.1743L18.1708 33.841L16.8292 31.1577ZM5 34.8327V2.16601H2V34.8327H5ZM13.5042 33.491L8.83749 31.1577L7.49585 33.841L12.1625 36.1743L13.5042 33.491ZM7.49585 31.1577L2.82918 33.491L4.17082 36.1743L8.83749 33.841L7.49585 31.1577ZM9.33333 12.9993H14V9.99935H9.33333V12.9993ZM18.6667 12.9993H25.6667V9.99935H18.6667V12.9993ZM9.33333 19.9993H14V16.9993H9.33333V19.9993ZM18.6667 19.9993H25.6667V16.9993H18.6667V19.9993ZM18.6667 26.9993H25.6667V23.9993H18.6667V26.9993Z" fill="#BDBDBD"/>
</svg>
